<?xml version="1.0" encoding="UTF-8"?>
<svg id="Layer_2" data-name="Layer 2" xmlns="http://www.w3.org/2000/svg" xmlns:xlink="http://www.w3.org/1999/xlink" viewBox="0 0 2447.4 1440.65">
  <defs>
    <style>
      .cls-1 {
      fill: #436281;
      }

      .cls-1, .cls-2, .cls-3, .cls-4, .cls-5, .cls-6, .cls-7, .cls-8, .cls-9, .cls-10, .cls-11, .cls-12, .cls-13, .cls-14, .cls-15, .cls-16, .cls-17, .cls-18, .cls-19, .cls-20, .cls-21, .cls-22, .cls-23, .cls-24, .cls-25, .cls-26, .cls-27, .cls-28, .cls-29, .cls-30 {
      stroke-width: 0px;
      }

      .cls-2 {
      fill: #c8987e;
      }

      .cls-3 {
      fill: #6dacfa;
      }

      .cls-4 {
      fill: #3a4c71;
      }

      .cls-5 {
      fill: #0c3450;
      }

      .cls-6 {
      fill: #00898e;
      }

      .cls-7 {
      fill: #ddd;
      }

      .cls-8 {
      fill: #cecece;
      }

      .cls-31 {
      stroke-width: .35px;
      }

      .cls-31, .cls-32 {
      stroke: #1a55b5;
      }

      .cls-31, .cls-32, .cls-33 {
      fill: none;
      stroke-linecap: round;
      stroke-linejoin: round;
      }

      .cls-9 {
      fill: #a2dfff;
      }

      .cls-10 {
      fill: #e29e21;
      }

      .cls-11 {
      fill: #e7afa7;
      }

      .cls-12 {
      fill: #f4b54e;
      }

      .cls-32 {
      stroke-width: .5px;
      }

      .cls-13 {
      fill: #005d79;
      }

      .cls-14 {
      fill: #6c7888;
      }

      .cls-15 {
      fill: #e29e21;
      filter: url(#drop-shadow-2);
      }

      .cls-16 {
      fill: #3c4856;
      }

      .cls-17 {
      fill: #0c3450;
      }

      .cls-18 {
      fill: #389dff;
      filter: url(#drop-shadow-4);
      }

      .cls-19 {
      fill: #d1d5d8;
      }

      .cls-20 {
      fill: #003aa7;
      }

      .cls-21 {
      fill: #1a55b5;
      }

      .cls-22 {
      fill: #001868;
      }

      .cls-23 {
      fill: #45a0ff;
      }

      .cls-24 {
      fill: #7aa9fe;
      }

      .cls-33 {
      stroke: #fff;
      stroke-width: .29px;
      }

      .cls-25 {
      fill: #e8e8e8;
      }

      .cls-26 {
      fill: #f1f1e6;
      }

      .cls-27 {
      filter: url(#drop-shadow-1);
      }

      .cls-27, .cls-28, .cls-29 {
      fill: #fff;
      }

      .cls-28 {
      filter: url(#drop-shadow-3);
      }

      .cls-30 {
      fill: #676390;
      }
    </style>
    <filter id="drop-shadow-1" filterUnits="userSpaceOnUse">
      <feOffset dx="1.71" dy="1.71"/>
      <feGaussianBlur result="blur" stdDeviation="0"/>
      <feFlood flood-color="#81acea" flood-opacity=".4"/>
      <feComposite in2="blur" operator="in"/>
      <feComposite in="SourceGraphic"/>
    </filter>
    <filter id="drop-shadow-2" filterUnits="userSpaceOnUse">
      <feOffset dx=".86" dy="1.71"/>
      <feGaussianBlur result="blur-2" stdDeviation="0"/>
      <feFlood flood-color="#81acea" flood-opacity=".4"/>
      <feComposite in2="blur-2" operator="in"/>
      <feComposite in="SourceGraphic"/>
    </filter>
    <filter id="drop-shadow-3" filterUnits="userSpaceOnUse">
      <feOffset dx=".86" dy="1.71"/>
      <feGaussianBlur result="blur-3" stdDeviation="0"/>
      <feFlood flood-color="#81acea" flood-opacity=".4"/>
      <feComposite in2="blur-3" operator="in"/>
      <feComposite in="SourceGraphic"/>
    </filter>
    <filter id="drop-shadow-4" filterUnits="userSpaceOnUse">
      <feOffset dx=".86" dy="1.71"/>
      <feGaussianBlur result="blur-4" stdDeviation="0"/>
      <feFlood flood-color="#81acea" flood-opacity=".4"/>
      <feComposite in2="blur-4" operator="in"/>
      <feComposite in="SourceGraphic"/>
    </filter>
  </defs>
  <g id="Layer_1-2" data-name="Layer 1">
    <g>
      <path class="cls-4" d="M552.4,758.65c-19.43-22.16,5.38-43,8.16-47.23.12-.16.25-.32.37-.48,14.14-19.43,21.01-49.77,2.86-69.24-19.5-20.91-50.94-28.72-77.86-18.91-31.83,11.61-45.57,41.29-49.8,72.88-3.24,21.58,7.49,42.4,7.49,42.4l108.78,20.59Z"/>
      <path class="cls-11" d="M545.18,666.14c2.05,14.28,5.2,20.13,3.26,31.01l-1.71,4.55c-.11.19-.21.38-.34.57l.16-.09-5.18,13.8c-6.55,17.46-26.02,26.3-43.47,19.75-17.46-6.55-26.3-26.02-19.75-43.47l5.83-15.53c10.01-13.44,45.31,7.08,61.2-10.59Z"/>
      <path class="cls-11" d="M491.59,683.95c-2.47,6.58-9.8,9.91-16.37,7.44-6.58-2.47-9.91-9.8-7.44-16.37,2.47-6.58,9.8-9.91,16.37-7.44,6.58,2.47,9.91,9.8,7.44,16.37Z"/>
      <path class="cls-11" d="M477.84,716.21c-3.75,3.6-47.97,57.73-47.97,57.73l64.29,9.72,3.74-47.93-20.06-19.52Z"/>
      <g>
        <path class="cls-11" d="M581.01,911.68c7.93,7.96,7.91,20.84-.04,28.78-7.96,7.93-20.84,7.91-28.78-.04-7.93-7.96-7.91-20.84.04-28.78,7.96-7.93,20.84-7.91,28.78.04Z"/>
        <path class="cls-11" d="M586.06,919.58l-36.72,17.54-66.08-126.55c-8.83-13.26-3.87-31.27,10.5-38.13h0c14.38-6.86,43.27,4.83,48.03,20.04l44.27,127.11Z"/>
      </g>
      <path class="cls-13" d="M775.67,1040.32h-271.54l-12.09-70.23,238.7,16.35c26.03,4.76,44.93,27.43,44.93,53.89Z"/>
      <polygon class="cls-11" points="791.62 1296.94 809.46 1296.94 796.59 1237.04 770.49 1237.04 791.62 1296.94"/>
      <polygon class="cls-11" points="656.32 1291.77 674.15 1291.77 687.77 1237.04 661.68 1237.04 656.32 1291.77"/>
      <path class="cls-14" d="M678.51,1285.92l-14.28,6.27-13.26-6.27-11.9,38.85h110.36c0-19.43-41.49-19.43-41.49-19.43l-29.42-19.43Z"/>
      <path class="cls-14" d="M812.21,1285.92l-14.28,6.27-13.26-6.27-11.9,38.85h110.35c0-19.43-41.49-19.43-41.49-19.43l-29.42-19.43Z"/>
      <polygon class="cls-13" points="801.64 1255.9 775.57 1255.9 690.15 1040.32 775.67 1040.32 801.64 1255.9"/>
      <path class="cls-6" d="M728.75,1050.7l-83.49,17.36-239.96-119.9,278.52,48.66c26.03,4.76,44.93,27.43,44.93,53.89Z"/>
      <path class="cls-6" d="M409.23,938.49c-1.93,14.08-20.99,32.23-20.33,74.33.39,25.26,17.02,40.92,35.92,49.42,15.81,7.1,37.31,5.83,50.66,5.83h169.79l-99.65-97.97-136.37-31.6Z"/>
      <polygon class="cls-6" points="684.37 1255.9 658.3 1255.9 645.26 1068.06 728.75 1050.7 684.37 1255.9"/>
      <polygon class="cls-11" points="692.5 963.04 568.62 946.32 558.93 905.78 692.5 943.15 692.5 963.04"/>
      <path class="cls-12" d="M405.3,948.15l7.76-35.68-23.5-138.18c.93-13.96,13.8-24,27.56-21.52l94.02,8.94c13.77,2.48,22.32,16.38,18.32,29.79l-24.07,168.19-100.08-11.54Z"/>
      <path class="cls-12" d="M567.28,854.47l-47.92,20.52-38.3-62.76c-10.7-18.36-1.9-41.92,18.22-48.78h0c17.18-5.86,35.91,2.97,42.33,19.95l25.68,71.07Z"/>
      <polygon class="cls-20" points="722.77 986.08 528.67 976.03 528.67 970.09 722.77 980.14 722.77 986.08"/>
      <polygon class="cls-20" points="729.17 981.66 599.66 976.2 634.83 882.19 764.49 882.19 729.17 981.66"/>
      <polygon class="cls-11" points="503.3 970.54 373.85 954.02 369.74 913.28 503.3 950.65 503.3 970.54"/>
      <path class="cls-11" d="M396.74,930.84c1.56,11.13-6.19,21.42-17.32,22.98-11.13,1.56-21.42-6.19-22.98-17.32-1.56-11.13,6.19-21.42,17.32-22.98,11.13-1.56,21.42,6.19,22.98,17.32Z"/>
      <path class="cls-11" d="M503.3,950.65l16.77-4.28c13.62-3.47,28.08-.29,38.98,8.59l21.9,17.84-77.66-2.45v-19.69Z"/>
      <rect class="cls-13" x="284.68" y="1068.06" width="261.57" height="256.71"/>
      <rect class="cls-6" x="182.59" y="1068.06" width="102.09" height="256.71"/>
      <path class="cls-4" d="M478.23,692.07l-34.61,3.06v42.93c29.5,20.59,53.66-10.59,53.66-10.59-23.9-17.24-20.89-30.47-19.14-35.22"/>
      <path class="cls-11" d="M396.04,940.19l-39.58-9.46,28.89-144.11c.9-15.91,9.65-22.67,25.27-19.52h0c15.62,3.15,31.7,29.85,26.37,44.87l-40.95,128.21Z"/>
      <path class="cls-12" d="M421.45,867.16l-49.62-15.97,12.28-72.49c3.98-20.88,26.08-32.88,45.76-24.86h0c16.81,6.86,25.15,25.81,18.85,42.83l-27.27,70.48Z"/>
      <polygon class="cls-11" points="429.87 753.85 494.64 819.09 502.07 760.35 429.87 753.85"/>
    </g>
    <g>
      <circle class="cls-22" cx="1895.89" cy="597.94" r="63.48" transform="translate(132.49 1515.73) rotate(-45)"/>
      <path class="cls-30" d="M1999.01,1270.75h-75.94c-26.53,0-48.12,21.59-48.12,48.12,0,3.26,2.64,5.9,5.9,5.9s5.9-2.64,5.9-5.9c0-20.03,16.29-36.33,36.33-36.33h4.11c-10.18,8.83-16.66,21.82-16.66,36.33,0,3.26,2.64,5.9,5.9,5.9s5.9-2.64,5.9-5.9c0-20.03,16.29-36.33,36.5-36.33h4.6c20.03,0,36.33,16.29,36.33,36.33,0,3.26,2.64,5.9,5.9,5.9s5.9-2.64,5.9-5.9c0-14.5-6.48-27.49-16.68-36.33h4.15c20.03,0,36.32,16.29,36.32,36.33,0,3.26,2.64,5.9,5.9,5.9s5.9-2.64,5.9-5.9c0-26.53-21.59-48.12-48.12-48.12Z"/>
      <rect class="cls-30" x="1950.65" y="1076.23" width="20.76" height="211.2"/>
      <path class="cls-12" d="M2052.55,1084.9h-183.03c-7.58,0-13.73-6.15-13.73-13.73h0c0-7.58,6.15-13.73,13.73-13.73h183.03c7.58,0,13.73,6.15,13.73,13.73h0c0,7.58-6.15,13.73-13.73,13.73Z"/>
      <path class="cls-14" d="M1727.52,1324.45h0c3.47,0,6.03-3.24,5.23-6.62l-97.03-407.65h-21.33l107.93,410.26c.62,2.36,2.76,4.01,5.2,4.01Z"/>
      <polygon class="cls-2" points="1894.43 716.16 1955.19 721.05 1925.75 649.39 1880.86 659.34 1894.43 716.16"/>
      <path class="cls-2" d="M1918.87,613.57c1.01,5.63,6.39,9.38,12.02,8.38,5.63-1.01,9.38-6.39,8.38-12.02-1.01-5.63-6.39-9.38-12.02-8.38-5.63,1.01-9.38,6.39-8.38,12.02Z"/>
      <path class="cls-2" d="M1866,577.17c-9.4,3.3-14.88,9.46-18.07,15.23-3.39,6.15-4.37,13.37-3.23,20.3h0s1.09,6.08,1.09,6.08c.1.27.18.53.28.79l-.17-.15,3.03,16.96c4.18,23.39,25.14,40.4,47.4,36.8,22.56-3.65,37.5-26.03,33.28-49.65l-3.71-20.78s0-.03-.01-.04c0,0-7.52-40.64-59.89-25.55Z"/>
      <path class="cls-22" d="M1874.26,574.78c5.27-1.02,10.77-1.45,16.13-1.29,4.02.12,8.04.64,11.8,2.12,12.25,4.81,10.21,25.26,10.26,35.53.01,2.51.05,5.49,2.13,6.89,2.25,1.52,5.48-.06,6.85-2.4,1.37-2.34,1.52-5.17,2.05-7.84.53-2.66,1.72-5.51,4.22-6.6,0,0-16.3-40.81-16.32-40.84-.12-.3-26.3,8.44-28.31,9.09-4.07,1.31-8.81,5.34-8.81,5.34Z"/>
      <g>
        <path class="cls-2" d="M1801.13,857.63c-6.96,8.82-5.45,21.62,3.37,28.58,8.82,6.96,21.62,5.45,28.58-3.37,6.96-8.82,5.45-21.62-3.37-28.58-8.82-6.96-21.62-5.45-28.58,3.37Z"/>
        <path class="cls-2" d="M1797.03,866.06l38.51,13.17,51-133.34c7.24-14.19.23-31.51-14.85-36.66h0c-15.07-5.16-42.42,9.81-45.39,25.46l-29.27,131.38Z"/>
      </g>
      <path class="cls-7" d="M1676.99,1029.62h245.59l-22.8-68.73-177.86,14.85c-26.03,4.76-44.93,27.43-44.93,53.89Z"/>
      <polygon class="cls-2" points="1598.76 1296.62 1580.92 1296.62 1609.36 1236.72 1635.46 1236.72 1598.76 1296.62"/>
      <polygon class="cls-2" points="1796.34 1291.44 1778.51 1291.44 1764.89 1236.72 1790.98 1236.72 1796.34 1291.44"/>
      <path class="cls-14" d="M1774.15,1285.59l14.28,6.27,13.26-6.27,11.9,38.85h-110.36c0-19.43,41.49-19.43,41.49-19.43l29.42-19.43Z"/>
      <path class="cls-14" d="M1578.17,1285.59l14.28,6.27,13.26-6.27,11.9,38.85h-110.35c0-19.43,41.49-19.43,41.49-19.43l29.42-19.43Z"/>
      <polygon class="cls-7" points="1578.36 1281.52 1620.01 1291.9 1767.7 1029.62 1680.82 1009.58 1578.36 1281.52"/>
      <path class="cls-8" d="M1723.91,1040l83.49,17.36,223.75-96.48h-131.38s-130.94,25.24-130.94,25.24c-26.03,4.76-44.93,27.43-44.93,53.89Z"/>
      <path class="cls-8" d="M2031.16,960.87c3.85,10.61,6.93,23.89,6.65,41.24-.39,25.26-17.02,40.92-35.92,49.42-15.81,7.1-37.31,5.83-50.66,5.83h-143.84l92.38-96.47h131.37Z"/>
      <polygon class="cls-8" points="1768.29 1281.52 1809.94 1286.71 1807.4 1057.35 1723.91 1040 1768.29 1281.52"/>
      <polygon class="cls-2" points="1692.69 900.43 1814.96 890.46 1826.26 843.16 1692.69 880.53 1692.69 900.43"/>
      <path class="cls-12" d="M2031.16,960.87l-39.31-273.19-139.69,13-6.81,38.58c-.99,68.84,72.32,187.33,54.43,221.62h131.38Z"/>
      <path class="cls-12" d="M1804.28,823.04l55.16,14.83,29.46-90.6c8.5-19.48-2.96-41.86-23.74-46.35h0c-17.74-3.83-35.33,7.11-39.74,24.72l-21.15,97.4Z"/>
      <polygon class="cls-2" points="1892.27 907.93 2018.61 896.64 2025.84 850.67 1892.27 888.04 1892.27 907.93"/>
      <path class="cls-2" d="M1995.83,870.49c-1.77,12.58,7,24.21,19.58,25.98,12.58,1.77,24.21-7,25.98-19.58,1.77-12.58-7-24.21-19.58-25.98-12.58-1.77-24.21,7-25.98,19.58Z"/>
      <path class="cls-2" d="M1892.27,888.04l-16.77-4.28c-13.62-3.47-28.08-.29-38.98,8.59l-21.9,17.84,77.66-2.45v-19.69Z"/>
      <path class="cls-2" d="M1995.95,872.55l45.66-1.3-19.32-146.85c-.31-15.93-13.97-22.6-29.7-20.04h0c-15.72,2.56-32.79,28.65-28.02,43.85l31.38,124.34Z"/>
      <path class="cls-12" d="M1981.21,832.12l56.39-10.06-12.83-102.65c-1.37-21.21-21.81-35.85-42.33-30.32h0c-17.53,4.72-28.15,22.5-24,40.18l22.77,102.85Z"/>
      <path class="cls-14" d="M2098.26,915.36h-633.54c-5.17,0-9.36-4.19-9.36-9.36h0c0-5.17,4.19-9.36,9.36-9.36h633.54c5.17,0,9.36,4.19,9.36,9.36h0c0,5.17-4.19,9.36-9.36,9.36Z"/>
      <path class="cls-14" d="M1415.21,1324.45h0c-3.47,0-6.03-3.24-5.23-6.62l97.03-407.65h21.33l-107.93,410.26c-.62,2.36-2.76,4.01-5.2,4.01Z"/>
      <path class="cls-14" d="M2164.75,1324.45h0c3.47,0,6.03-3.24,5.23-6.62l-97.03-407.65h-21.33l107.94,410.26c.62,2.36,2.76,4.01,5.2,4.01Z"/>
      <path class="cls-14" d="M1852.44,1324.45h0c-3.47,0-6.03-3.24-5.23-6.62l97.03-407.65h21.33l-107.93,410.26c-.62,2.36-2.76,4.01-5.2,4.01Z"/>
      <path class="cls-2" d="M1880.71,698.03l1.14,3.67c4.54,14.91,18.29,25.11,33.88,25.11h0c18.26,0,33.52-13.88,35.26-32.05l.3-3.14-70.58,6.41Z"/>
      <polygon class="cls-16" points="1760.5 891.7 1609.31 891.7 1562.6 797.68 1713.79 797.68 1760.5 891.7"/>
      <rect class="cls-16" x="1620.95" y="889.08" width="194.6" height="7.56"/>
    </g>
    <g>
      <path class="cls-26" d="M1307.43,482.49l34.83-42.64-116.93-103.17c-11.91-10.14-30.03-7.38-38.38,5.85h0c-8.35,13.22-1.15,41.31,15.88,57.1,17.02,15.79,104.61,82.87,104.61,82.87Z"/>
      <rect class="cls-11" x="1146.51" y="1154.33" width="22" height="27.11"/>
      <polygon class="cls-11" points="963.93 1181.45 985.93 1181.45 996.07 1154.33 974.07 1154.33 963.93 1181.45"/>
      <polygon class="cls-11" points="1162.38 340.01 1102.96 344.79 1121.6 274.71 1155.67 280.08 1162.38 340.01"/>
      <path class="cls-26" d="M1065.69,596.24l-34.46-235.43c-3.16-12.57,5.31-25.09,18.15-26.83l157.6-3.99c12.84-1.74,24.34,8.07,24.64,21.03l-11.55,233.83-154.39,11.39Z"/>
      <polygon class="cls-5" points="1065.69 596.24 1124.76 675.44 1136.07 1166.61 1181.39 1166.61 1220.08 584.85 1065.69 596.24"/>
      <path class="cls-1" d="M1191.61,586.95l-14.05,76.34c-3.22,17.5-18.48,30.21-36.27,30.21h0l-145.36,473.12h-37.14l106.9-570.37,125.91-9.29Z"/>
      <path class="cls-21" d="M1067.37,239.64c7.61,20.54,26.94,35.14,48.78,36.82,31.18,2.4,58.4-20.93,60.81-52.12,1.21-15.77,10.71-29.86,11.14-45.82.49-18.12-15.49-27.46-32.27-24.55-9.07,1.57-17.56,5.52-26.56,7.46-7.77,1.67-15.79,1.82-23.63,3.15-9.6,1.62-16.75,5.51-23.76,12.1-8.19,7.69-13.76,18.13-16.32,29.28-2.57,11.21-2.1,23.13,1.81,33.69Z"/>
      <path class="cls-11" d="M1105.03,238.37c.25,5.96-4.38,10.99-10.34,11.24-5.96.25-10.99-4.38-11.24-10.34-.25-5.96,4.38-10.99,10.34-11.24,5.96-.25,10.99,4.38,11.24,10.34Z"/>
      <path class="cls-11" d="M1150.59,189.38c10.31,1.23,17.28,6.26,21.83,11.41,4.84,5.49,7.47,12.61,7.88,19.92h0s.27,6.43.27,6.43c-.04.29-.06.58-.11.87l.14-.19.75,17.95c1.04,24.74-16.44,46.79-39.9,48.16-23.78,1.39-44.04-18-45.08-42.98l-.92-21.98s0-.03,0-.05c0,0-1.54-43.04,55.15-39.54Z"/>
      <path class="cls-21" d="M1140.68,186.63c-5.25.14-10.59.9-15.68,2.19-3.81.97-7.54,2.32-10.82,4.53-10.67,7.19-4.38,26.29-2.26,36.1.52,2.4,1.12,5.25-.57,7.03-1.83,1.93-5.24,1.11-7.05-.84-1.81-1.94-2.55-4.62-3.62-7.05-1.07-2.43-2.82-4.9-5.42-5.4,0,0,6.9-42.42,6.91-42.46.05-.31,26.9,2.48,28.96,2.67,4.17.38,9.55,3.23,9.55,3.23Z"/>
      <polygon class="cls-29" points="1154.38 488.06 1045.42 539.94 1036.07 488.06 1147.6 457 1154.38 488.06"/>
      <path class="cls-29" d="M1051.23,493.65c11.78,9.62,13.52,26.96,3.9,38.74-9.62,11.78-26.96,13.52-38.74,3.9-11.78-9.62-13.52-26.96-3.9-38.74,9.62-11.77,26.96-13.52,38.74-3.9Z"/>
      <path class="cls-26" d="M1342.27,439.85c11.78,9.62,13.52,26.96,3.9,38.74-9.62,11.77-26.96,13.52-38.74,3.9-11.77-9.62-13.52-26.96-3.9-38.74,9.62-11.77,26.96-13.52,38.74-3.9Z"/>
      <polygon class="cls-26" points="1438.57 402.47 1342.27 482.49 1311.73 436.97 1430.85 367.51 1438.57 402.47"/>
      <path class="cls-29" d="M1060.64,521.05l-54.22-8.82,15.12-151.09c.79-18.63,17.9-32.24,36.23-28.82h0c18.33,3.42,37.06,32.49,37.06,60.18s-34.2,128.55-34.2,128.55Z"/>
      <polygon class="cls-12" points="1238.97 553.53 1135.82 553.53 1187.72 405.6 1290.87 405.6 1238.97 553.53"/>
      <path class="cls-11" d="M1210.92,458.54h0c1.55,7.42-3.55,14.6-11.07,15.57l-29.61,3.83-15.86,10.13-6.78-25.88,6.63-5.09c7.52-5.77,16.73-8.9,26.21-8.9h17.74c6.16,0,11.48,4.32,12.74,10.35Z"/>
      <path class="cls-11" d="M1503.86,355.16h-39.97c-9.48,0-18.69,3.13-26.21,8.9l-6.63,5.09,4.64,27.24,18-11.49,16.85,5.56c8.03,2.65,17.3-.07,21.57-7.37,1.61-2.75,2.53-5.95,2.53-9.37s-1.03-6.77-2.74-9.58h11.95c2.48,0,4.49-2.01,4.49-4.49s-2.01-4.49-4.49-4.49Z"/>
      <path class="cls-16" d="M989.99,1169.16l-14.28,6.27-13.26-6.27-11.9,38.85h110.35c0-19.43-41.49-19.43-41.49-19.43l-29.42-19.43Z"/>
      <path class="cls-16" d="M1172.38,1169.16l-14.28,6.27-13.26-6.27-11.9,38.85h110.35c0-19.43-41.49-19.43-41.49-19.43l-29.42-19.43Z"/>
    </g>
    <g>
      <rect class="cls-27" x="389.51" y="30.37" width="488.7" height="488.7" rx="6.88" ry="6.88"/>
      <path class="cls-25" d="M825.78,125.77h-383.85c-7.1,0-12.85-5.76-12.85-12.85h0c0-7.1,5.76-12.85,12.85-12.85h383.85c7.1,0,12.85,5.76,12.85,12.85h0c0,7.1-5.76,12.85-12.85,12.85Z"/>
      <path class="cls-25" d="M825.78,172.14h-383.85c-7.1,0-12.85-5.76-12.85-12.85h0c0-7.1,5.76-12.85,12.85-12.85h383.85c7.1,0,12.85,5.76,12.85,12.85h0c0,7.1-5.76,12.85-12.85,12.85Z"/>
      <path class="cls-3" d="M472.97,449.19h-43.9v-100.66c0-12.12,9.83-21.95,21.95-21.95h0c12.12,0,21.95,9.83,21.95,21.95v100.66Z"/>
      <path class="cls-9" d="M564.39,449.19h-43.9v-143.39c0-12.12,9.83-21.95,21.95-21.95h0c12.12,0,21.95,9.83,21.95,21.95v143.39Z"/>
      <path class="cls-19" d="M655.81,449.19h-43.9v-57.92c0-12.12,9.83-21.95,21.95-21.95h0c12.12,0,21.95,9.83,21.95,21.95v57.92Z"/>
      <path class="cls-9" d="M747.22,449.19h-43.9v-143.39c0-12.12,9.83-21.95,21.95-21.95h0c12.12,0,21.95,9.83,21.95,21.95v143.39Z"/>
      <path class="cls-23" d="M838.64,449.19h-43.9v-186.13c0-12.12,9.83-21.95,21.95-21.95h0c12.12,0,21.95,9.83,21.95,21.95v186.13Z"/>
    </g>
    <g>
      <path class="cls-15" d="M2042.38,88.09h-377.89c-24.32,0-44.04-19.72-44.04-44.04h0c0-24.32,19.72-44.04,44.04-44.04h377.89c24.32,0,44.04,19.72,44.04,44.04h0c0,24.32-19.72,44.04-44.04,44.04Z"/>
      <path class="cls-28" d="M2042.38,375.84h-377.89c-24.32,0-44.04-19.72-44.04-44.04h0c0-24.32,19.72-44.04,44.04-44.04h377.89c24.32,0,44.04,19.72,44.04,44.04h0c0,24.32-19.72,44.04-44.04,44.04Z"/>
      <path class="cls-18" d="M1921.84,231.96h-377.89c-24.32,0-44.04-19.72-44.04-44.04h0c0-24.32,19.72-44.04,44.04-44.04h377.89c24.32,0,44.04,19.72,44.04,44.04h0c0,24.32-19.72,44.04-44.04,44.04Z"/>
      <g>
        <path class="cls-29" d="M1945.09,52.8h-242.13c-6.04,0-10.95-4.9-10.95-10.95h0c0-6.04,4.9-10.95,10.95-10.95h242.13c6.04,0,10.95,4.9,10.95,10.95h0c0,6.05-4.9,10.95-10.95,10.95Z"/>
        <circle class="cls-29" cx="1994.22" cy="41.85" r="10.95"/>
      </g>
      <g>
        <path class="cls-10" d="M1840.9,198.86h-242.13c-6.05,0-10.95-4.9-10.95-10.95h0c0-6.05,4.9-10.95,10.95-10.95h242.13c6.04,0,10.94,4.9,10.94,10.95h0c0,6.04-4.9,10.95-10.94,10.95Z"/>
        <path class="cls-10" d="M1900.98,187.92c0,6.04-4.9,10.95-10.94,10.95s-10.95-4.9-10.95-10.95,4.9-10.95,10.95-10.95,10.94,4.9,10.94,10.95Z"/>
      </g>
      <g>
        <rect class="cls-3" x="1696.86" y="323.04" width="264.02" height="21.89" rx="1.61" ry="1.61"/>
        <path class="cls-3" d="M2010.02,333.98c0,6.05-4.9,10.95-10.94,10.95s-10.95-4.9-10.95-10.95,4.9-10.94,10.95-10.94,10.94,4.9,10.94,10.94Z"/>
      </g>
    </g>
    <g>
      <g>
        <path class="cls-17" d="M2239.51,1226.3c13.66-15.75,30.94-29.34,36.39-49.22,3.98-14.52.84-29.89-.71-44.87-1.56-14.98-1.01-31.54,8.68-43.06,7.98-9.5,20.59-13.62,32.73-16.23,12.13-2.61,24.79-4.25,35.55-10.43,17.48-10.02,14-27.07,23.38-42.02,10.53-16.78,35.03-38.18,56.03-27.04,22.24,11.8,18.72,47.63,3.92,63.45-9.81,10.49-22.38,20.56-23.82,34.86-2.17,21.52,22.48,40.89,15.7,61.43-5.01,15.17-24.13,20.39-33.57,33.27-9.34,12.75-7.46,30.61-1.96,45.43,5.5,14.82,14.17,28.52,17.59,43.95,7,31.58-17.77,53.39-46,60.43-25.94,6.47-81.88,3.42-81.88,3.42-19.96-6.98-42.1-24.52-53.08-43.68-8.29-14.48-9.44-32.83-3.02-48.23,3.31-7.93,8.38-14.88,14.07-21.45Z"/>
        <path class="cls-33" d="M2406.69,1027.49s-95.52,147.54-105.91,311.37"/>
        <path class="cls-12" d="M2312.83,1237.44c12.5,27.29,7.76,88.82-19.52,101.32-27.28,12.5-66.78-28.78-79.28-56.06-12.5-27.29-53.43-175.06-26.14-187.56,27.28-12.5,112.45,115.02,124.95,142.3Z"/>
        <line class="cls-31" x1="2195.6" y1="1113.09" x2="2294.33" y2="1335.52"/>
      </g>
      <path class="cls-14" d="M2339.99,1440.65h-53.89c-5.09,0-9.56-3.39-10.92-8.29l-27.06-96.84h129.87l-27.06,96.84c-1.37,4.9-5.84,8.29-10.92,8.29Z"/>
    </g>
    <g>
      <g>
        <path class="cls-24" d="M118.59,1009.27c4.08-.23,8.52,1.38,13.21,4.76.35.25.7.51,1.04.77,14.84,11.38,22.45,32.19,22.64,61.9.14,22.58-2.67,45.56-8.59,69.81-1.1-9.03-3.44-18.44-6.95-27.9-4.82-12.97-11.3-25.37-17.57-37.36-4.88-9.35-9.93-19.01-14.11-28.81-3.39-7.94-6.69-17.28-5.38-26.27,1.16-7.94,7.35-16.43,15.71-16.9Z"/>
        <path class="cls-24" d="M14.1,1094.74c3.58-1.95,8.29-2.4,13.97-1.35.43.08.85.16,1.27.25,18.28,3.93,34.07,19.49,46.95,46.26,9.79,20.35,17.08,42.32,22.11,66.77-4.86-7.69-11-15.2-18.22-22.25-9.91-9.66-21.07-18.1-31.87-26.25-8.41-6.36-17.1-12.93-25.08-20-6.47-5.73-13.44-12.76-16.11-21.44-2.35-7.67-.39-17.99,6.97-22Z"/>
        <path class="cls-24" d="M.44,1183.34c.87-2.65,3-5.08,6.32-7.22.25-.16.5-.32.75-.47,10.93-6.61,26.07-6.27,45.03,1,14.4,5.53,28.33,13.04,42.29,22.85-6.02-1.54-12.59-2.4-19.49-2.52-9.45-.16-18.96.87-28.15,1.88-7.16.78-14.57,1.59-21.85,1.81-5.9.18-12.66-.05-18.06-3.12-4.77-2.71-8.63-8.77-6.85-14.21Z"/>
        <path class="cls-32" d="M105.79,1299.42s74.46-98.09,18.72-272.57"/>
        <path class="cls-32" d="M105.79,1299.42s23.54-106.61-75.8-182.77"/>
        <path class="cls-32" d="M95.18,1201.3s-18.16-16.15-81.57-16.64"/>
      </g>
      <g>
        <path class="cls-24" d="M245.39,1137.34c-2.47,5.98-7.88,10.49-12.85,14.12-6.13,4.47-12.73,8.55-19.12,12.49-8.2,5.06-16.68,10.29-24.34,16.47-5.59,4.51-10.45,9.42-14.41,14.55,5.2-16.99,11.84-32.08,20.14-45.84,10.93-18.11,23.16-28.08,36.38-29.64.3-.04.61-.07.92-.09,4.1-.36,7.4.27,9.81,1.89,4.94,3.33,5.65,10.78,3.46,16.06Z"/>
        <path class="cls-24" d="M271.02,1227.6c-4.79,4.35-11.61,6.11-17.66,7.26-7.45,1.42-15.16,2.28-22.62,3.11-9.57,1.07-19.48,2.17-29.05,4.47-6.98,1.68-13.47,4.05-19.24,6.98,11.97-13.13,24.43-23.93,37.82-32.82,17.62-11.69,32.95-15.47,45.56-11.22.29.1.58.2.87.31,3.86,1.43,6.58,3.41,8.06,5.91,3.05,5.12.49,12.16-3.74,15.99Z"/>
        <path class="cls-24" d="M241.53,1276.99c-4.42-.08-8.64-2.4-12.18-4.66-4.37-2.78-8.61-5.97-12.71-9.05-5.26-3.96-10.7-8.05-16.54-11.39-4.26-2.44-8.6-4.3-12.84-5.55,12.11-.92,23.36-.45,34.19,1.41,14.25,2.45,23.63,7.75,27.92,15.77.1.19.2.37.29.56,1.25,2.52,1.67,4.78,1.24,6.72-.89,3.97-5.45,6.28-9.36,6.2Z"/>
        <path class="cls-32" d="M144.19,1303.49s-9.87-87.12,87.71-173.6"/>
        <path class="cls-32" d="M144.19,1303.49s24.38-73.81,112.88-84.26"/>
        <path class="cls-32" d="M186.38,1247.31s16.99-3.28,55.97,19.49"/>
      </g>
      <path class="cls-14" d="M172.84,1411.18h-66c-6.23,0-11.7-4.15-13.38-10.15l-33.14-118.58h159.03l-33.14,118.58c-1.68,6-7.15,10.15-13.38,10.15Z"/>
    </g>
  </g>
</svg>