<?xml version="1.0" encoding="UTF-8"?>
<svg width="288px" height="52px" viewBox="0 0 288 52" version="1.1" xmlns="http://www.w3.org/2000/svg" xmlns:xlink="http://www.w3.org/1999/xlink">
    <title>1-logo/default/en</title>
    <defs>
        <polygon id="path-1" points="0 0.44576 7.47876688 0.44576 7.47876688 10.18304 0 10.18304"></polygon>
    </defs>
    <g id="1-logo/default/en" stroke="none" stroke-width="1" fill="none" fill-rule="evenodd">
        <path d="M221.653847,10.3437439 C222.129151,10.3437439 222.513451,10.7142645 222.513451,11.1708175 L222.513451,11.1708175 L222.513451,23.1583709 C222.513451,26.2476255 224.737567,28.3240183 228.046056,28.3240183 C231.407174,28.3240183 233.57921,26.2961837 233.57921,23.1583709 L233.57921,23.1583709 L233.57921,11.1708175 C233.57921,10.7142645 233.964058,10.3437439 234.438814,10.3437439 L234.438814,10.3437439 L235.472203,10.3437439 C235.94641,10.3437439 236.331259,10.7142645 236.331259,11.1708175 L236.331259,11.1708175 L236.331259,23.1583709 C236.331259,27.7756268 232.924639,31 228.046056,31 C223.24532,31 219.761402,27.7022617 219.761402,23.1583709 L219.761402,23.1583709 L219.761402,11.1708175 C219.761402,10.7142645 220.14625,10.3437439 220.621006,10.3437439 L220.621006,10.3437439 Z M164.901716,9 C165.376472,9 165.76132,9.36999273 165.76132,9.82760143 L165.76132,9.82760143 L165.76132,23.3236273 L165.755838,23.3341834 C165.705402,27.3159597 162.533419,30.5720013 158.485385,30.9367159 C158.23485,30.9609951 157.982122,30.9736624 157.727749,30.9736624 C157.467346,30.9736624 157.211329,30.9594116 156.957504,30.9361881 L156.957504,30.9361881 C152.88809,30.5466665 149.693082,27.112754 149.693082,22.9430784 C149.693082,18.455663 153.29706,14.8053496 157.727749,14.8053496 C159.717228,14.8053496 161.589389,15.5580024 163.009271,16.8616858 L163.009271,16.8616858 L163.009271,9.82760143 C163.009271,9.36999273 163.393571,9 163.868327,9 L163.868327,9 Z M104.102264,14.8051912 C107.674446,14.8051912 110.126072,16.4482545 110.828886,19.3126633 C110.88919,19.5591492 110.829434,19.8188302 110.666614,20.0167579 C110.503793,20.2152133 110.255451,20.3308031 109.992307,20.3308031 L109.992307,20.3308031 L108.930959,20.3308031 C108.552689,20.3308031 108.219373,20.0927621 108.108634,19.7444094 C107.497372,17.8078854 105.607668,17.401474 104.130223,17.401474 C102.811213,17.401474 101.653927,17.7640775 101.03499,18.3705277 C100.725796,18.6729612 100.572295,19.0128689 100.579422,19.3807504 C100.593127,20.1682385 101.211516,20.6506541 104.556736,21.1024569 C106.651473,21.4038348 110.994448,22.0282305 111.185775,25.8595817 C111.186323,25.8653876 111.186323,25.8717213 111.18742,25.8769994 C111.221409,27.1025673 110.768034,28.2790492 109.942419,29.1066506 C108.723185,30.3121619 106.819227,30.9735041 104.576472,30.9735041 C100.39851,30.9735041 97.587254,29.0860661 97.0560318,25.9239742 C97.0165602,25.6848776 97.0872801,25.4410308 97.2501006,25.2562983 C97.4140174,25.0715658 97.65304,24.9649488 97.9052198,24.9649488 L97.9052198,24.9649488 L98.9375123,24.9649488 C99.3420964,24.9649488 99.6918588,25.2367694 99.7773807,25.6173183 C100.319567,28.0193681 102.999252,28.3782769 104.548513,28.3782769 C105.974973,28.3782769 107.246837,27.9597259 107.950747,27.2598538 C108.286256,26.9183626 108.446883,26.477116 108.409056,25.9878388 C108.380001,25.1465144 108.027497,24.242381 104.147766,23.7082403 C101.600202,23.3509149 97.8679411,22.8273303 97.7994139,19.4113632 C97.7994139,17.114347 99.9648709,14.8051912 104.102264,14.8051912 Z M278.928318,9.88634635 C282.711015,9.88634635 286.055139,11.823926 287.889472,14.9453768 C288.118627,15.3354262 287.981573,15.8299814 287.569862,16.0384651 L287.569862,16.0384651 L286.539762,16.5588829 C286.160944,16.749949 285.686189,16.6274978 285.474029,16.2696446 C284.116643,13.9757952 281.656794,12.5354099 278.928318,12.5354099 C274.692794,12.5354099 271.246154,16.0711892 271.246154,20.4171523 C271.246154,24.7768384 274.692794,28.3242295 278.928318,28.3242295 C281.530704,28.3242295 283.922575,26.9350413 285.333137,24.7145572 C285.56284,24.3530093 286.055687,24.2453367 286.431764,24.4649044 L286.431764,24.4649044 L287.421295,25.0428531 C287.795179,25.2613652 287.935523,25.735336 287.70582,26.0953004 C285.806248,29.0752989 282.496662,30.9727652 278.928318,30.9727652 C273.174781,30.9727652 268.494105,26.2378083 268.494105,20.4171523 C268.494105,14.6102193 273.174781,9.88634635 278.928318,9.88634635 Z M176.035454,14.8688975 C177.571558,14.8688975 178.982668,15.2235839 180.229313,15.9239838 C181.477055,16.6249115 182.477551,17.5976599 183.204487,18.8158385 C183.933615,20.034545 184.302017,21.4100101 184.302017,22.9052874 L184.302017,22.9052874 L184.302017,29.9193151 C184.302017,30.3911746 183.90456,30.7748903 183.413357,30.7748903 L183.413357,30.7748903 L182.315279,30.7748903 C181.824625,30.7748903 181.426071,30.3911746 181.426071,29.9193151 L181.426071,29.9193151 L181.426071,28.5538783 C180.888818,29.0922415 180.290166,29.5736015 179.607635,29.9425386 C179.603798,29.9446498 179.59996,29.9472889 179.595575,29.9494001 C179.548428,29.9752626 179.500185,30.0005974 179.451942,30.0254043 C179.221691,30.1504946 178.994181,30.2608062 178.786406,30.3405051 C178.684438,30.3785072 178.576988,30.406481 178.472826,30.4402606 C177.62309,30.7411106 176.708116,30.9142314 175.749833,30.9142314 C175.699397,30.9142314 175.650057,30.9084255 175.60017,30.9073699 C175.545348,30.9078977 175.490526,30.9142314 175.435705,30.9142314 C173.998828,30.9142314 172.677625,30.5637675 171.510471,29.8728681 C170.343866,29.1819687 169.412993,28.212915 168.745265,26.9952641 C168.076989,25.7791967 167.73819,24.4037316 167.73819,22.9052874 C167.73819,21.4100101 168.102206,20.034545 168.820919,18.8158385 C169.538535,17.5966043 170.545061,16.6243837 171.811442,15.9239838 C173.079468,15.2235839 174.499898,14.8688975 176.035454,14.8688975 Z M130.085774,14.6428906 C132.164612,14.6428906 134.136,15.4499075 135.634277,16.9150998 C137.223558,18.4689637 138.152786,20.64564 138.119345,22.7389226 C138.112218,23.1907255 137.729562,23.5549123 137.259741,23.5549123 L137.259741,23.5549123 L124.867845,23.5549123 C125.264206,26.2330052 127.452688,28.1621399 130.25298,28.1621399 C131.949711,28.1621399 133.219382,27.6654735 134.104204,26.6668626 C134.375571,26.3612623 134.845941,26.3116485 135.182547,26.5486338 L135.182547,26.5486338 L136.093683,27.1904472 C136.474146,27.4580453 136.538287,27.9821577 136.23622,28.3294548 C134.833881,29.9429609 132.791772,30.8112034 130.25298,30.8112034 C125.65344,30.8112034 122.051106,27.2843968 122.051106,22.7811472 C122.051106,18.293204 125.655084,14.6428906 130.085774,14.6428906 Z M116.189571,12.1980884 C116.664326,12.1980884 117.048627,12.5686089 117.048627,13.025162 L117.048627,13.025162 L117.048627,15.1543356 L120.06985,15.1543356 C120.544606,15.1543356 120.928906,15.5243283 120.928906,15.981937 L120.928906,15.981937 L120.928906,16.9768533 C120.928906,17.4334063 120.544606,17.8039269 120.06985,17.8039269 L120.06985,17.8039269 L117.048627,17.8039269 L117.048627,25.0391057 C117.048627,25.8038981 117.190067,26.8473726 117.86218,27.4686015 C118.344063,27.9135428 119.073192,28.1199154 120.035312,28.0824411 C120.268305,28.077163 120.496363,28.156334 120.664665,28.3120371 C120.834065,28.468268 120.928906,28.6836133 120.928906,28.9089869 L120.928906,28.9089869 L120.928906,29.8236765 C120.928906,30.2522558 120.590108,30.6095811 120.147149,30.6481111 C119.933892,30.6660565 119.723925,30.6760848 119.518344,30.6760848 C118.141771,30.6760848 116.950496,30.2628119 116.047034,29.4674067 C114.901809,28.4587675 114.296577,26.9281271 114.296577,25.0391057 L114.296577,25.0391057 L114.296577,17.8039269 L113.202885,17.8039269 C112.727032,17.8039269 112.342732,17.4334063 112.342732,16.9768533 L112.342732,16.9768533 L112.342732,15.981937 C112.342732,15.5243283 112.727032,15.1543356 113.202885,15.1543356 L113.202885,15.1543356 L114.296577,15.1543356 L114.296577,13.025162 C114.296577,12.5686089 114.680878,12.1980884 115.156182,12.1980884 L115.156182,12.1980884 Z M60.2841062,9.99486348 C65.163237,9.99486348 68.5698571,13.2197645 68.5698571,17.8364926 L68.5698571,17.8364926 L68.5698571,29.8240459 C68.5698571,30.2811268 68.1850088,30.6516474 67.7102529,30.6516474 L67.7102529,30.6516474 L66.676864,30.6516474 C66.2021081,30.6516474 65.817808,30.2811268 65.817808,29.8240459 L65.817808,29.8240459 L65.817808,23.4191076 L54.7520491,23.4191076 L54.7520491,29.8240459 C54.7520491,30.2811268 54.3672008,30.6516474 53.8924449,30.6516474 L53.8924449,30.6516474 L52.8596042,30.6516474 C52.3843001,30.6516474 52,30.2811268 52,29.8240459 L52,29.8240459 L52,17.8364926 C52,13.2926018 55.4839187,9.99486348 60.2841062,9.99486348 Z M258.44485,9.86027268 C262.366794,9.86027268 265.558513,12.9442492 265.558513,16.7344315 L265.558513,16.7344315 L265.558513,29.8240459 C265.558513,30.2811268 265.173117,30.6511196 264.698909,30.6511196 L264.698909,30.6511196 L263.66552,30.6511196 C263.190216,30.6511196 262.805916,30.2811268 262.805916,29.8240459 L262.805916,29.8240459 L262.805916,16.7344315 C262.805916,14.4046912 260.84933,12.5093362 258.44485,12.5093362 C255.985001,12.5093362 254.05747,14.3651057 254.05747,16.7344315 L254.05747,16.7344315 L254.05747,29.8240459 C254.05747,30.2811268 253.672622,30.6511196 253.198414,30.6511196 L253.198414,30.6511196 L252.165025,30.6511196 C251.689721,30.6511196 251.304873,30.2811268 251.304873,29.8240459 L251.304873,29.8240459 L251.304873,16.7344315 C251.304873,14.4046912 249.348286,12.5093362 246.943807,12.5093362 C244.524525,12.5093362 242.55533,14.4046912 242.55533,16.7344315 L242.55533,16.7344315 L242.55533,29.8240459 C242.55533,30.2811268 242.170482,30.6511196 241.696274,30.6511196 L241.696274,30.6511196 L240.662885,30.6511196 C240.188678,30.6511196 239.803281,30.2811268 239.803281,29.8240459 L239.803281,29.8240459 L239.803281,16.7344315 C239.803281,12.9442492 243.006513,9.86027268 246.943807,9.86027268 C249.250156,9.86027268 251.368466,10.9523054 252.688024,12.7389322 C253.99278,10.9523054 256.114928,9.86027268 258.44485,9.86027268 Z M143.456291,16.0640638 C144.870143,15.0633416 146.606346,14.6505965 148.528943,14.8643584 C148.963131,14.9113332 149.290964,15.2654917 149.290964,15.6866817 L149.290964,15.6866817 L149.290964,16.5997879 C149.290964,16.832023 149.189544,17.0531742 149.011374,17.2104607 C148.834848,17.3666915 148.602952,17.4469182 148.355706,17.4242225 C146.850303,17.2954376 145.582277,17.6348175 144.787362,18.3769142 C143.932144,19.1121494 143.456291,20.2295169 143.456291,21.4651132 L143.456291,21.4651132 L143.456291,29.8239931 C143.456291,30.281074 143.071443,30.6510668 142.596687,30.6510668 L142.596687,30.6510668 L141.535888,30.6510668 C141.061132,30.6510668 140.676283,30.281074 140.676283,29.8239931 L140.676283,29.8239931 L140.676283,15.9827815 C140.676283,15.5251728 141.061132,15.1551801 141.535888,15.1551801 L141.535888,15.1551801 L142.596687,15.1551801 C143.071443,15.1551801 143.456291,15.5251728 143.456291,15.9827815 L143.456291,15.9827815 Z M202.915901,14.8050857 C206.584569,14.8050857 209.24671,17.3681166 209.24671,20.9002013 L209.24671,20.9002013 L209.24671,29.823307 C209.24671,30.2798601 208.86241,30.6503806 208.387106,30.6503806 L208.387106,30.6503806 L207.354265,30.6503806 C206.878961,30.6503806 206.494661,30.2798601 206.494661,29.823307 L206.494661,29.823307 L206.494661,20.9002013 C206.494661,18.8876731 205.023247,17.4821229 202.915901,17.4821229 C200.82555,17.4821229 199.364552,18.8876731 199.364552,20.9002013 L199.364552,20.9002013 L199.364552,29.823307 C199.364552,30.2798601 198.979703,30.6503806 198.505496,30.6503806 L198.505496,30.6503806 L197.472655,30.6503806 C196.997899,30.6503806 196.613599,30.2798601 196.613599,29.823307 L196.613599,29.823307 L196.613599,20.9002013 C196.613599,18.8876731 195.141088,17.4821229 193.034291,17.4821229 C190.942843,17.4821229 189.482941,18.8876731 189.482941,20.9002013 L189.482941,20.9002013 L189.482941,29.823307 C189.482941,30.2798601 189.098093,30.6503806 188.623337,30.6503806 L188.623337,30.6503806 L187.562537,30.6503806 C187.087782,30.6503806 186.702933,30.2798601 186.702933,29.823307 L186.702933,29.823307 L186.702933,20.9002013 C186.702933,17.4256476 189.42483,14.8050857 193.034291,14.8050857 C195.065983,14.8050857 196.849332,15.6379652 197.977563,17.0493212 C199.11292,15.6226588 200.871052,14.8050857 202.915901,14.8050857 Z M87.9675817,14.8050857 C91.6362494,14.8050857 94.2983909,17.3681166 94.2983909,20.9002013 L94.2983909,20.9002013 L94.2983909,29.823307 C94.2983909,30.2798601 93.9140908,30.6503806 93.4387867,30.6503806 L93.4387867,30.6503806 L92.4053978,30.6503806 C91.9306419,30.6503806 91.5457936,30.2798601 91.5457936,29.823307 L91.5457936,29.823307 L91.5457936,20.9002013 C91.5457936,18.8876731 90.0743794,17.4821229 87.9675817,17.4821229 C85.8766822,17.4821229 84.4156841,18.8876731 84.4156841,20.9002013 L84.4156841,20.9002013 L84.4156841,29.823307 C84.4156841,30.2798601 84.0308358,30.6503806 83.5560799,30.6503806 L83.5560799,30.6503806 L82.5237874,30.6503806 C82.0490315,30.6503806 81.6641832,30.2798601 81.6641832,29.823307 L81.6641832,29.823307 L81.6641832,20.9002013 C81.6641832,18.8876731 80.192769,17.4821229 78.0848748,17.4821229 C75.9945236,17.4821229 74.5340737,18.8876731 74.5340737,20.9002013 L74.5340737,20.9002013 L74.5340737,29.823307 C74.5340737,30.2798601 74.1492254,30.6503806 73.6750177,30.6503806 L73.6750177,30.6503806 L72.6136697,30.6503806 C72.1389139,30.6503806 71.7540656,30.2798601 71.7540656,29.823307 L71.7540656,29.823307 L71.7540656,20.9002013 C71.7540656,17.4256476 74.4759627,14.8050857 78.0848748,14.8050857 C80.117115,14.8050857 81.8999165,15.6379652 83.0286952,17.0493212 C84.1640525,15.6226588 85.921636,14.8050857 87.9675817,14.8050857 Z M157.727749,17.4813312 C154.814524,17.4813312 152.445679,19.9319393 152.445679,22.9430784 C152.445679,25.9098817 154.814524,28.3235433 157.727749,28.3235433 C160.639329,28.3235433 163.009271,25.9098817 163.009271,22.9430784 C163.009271,19.9319393 160.639329,17.4813312 157.727749,17.4813312 Z M176.035454,17.5047659 C175.044826,17.5047659 174.135882,17.7412234 173.332196,18.2078048 C172.527962,18.6770253 171.884903,19.328867 171.420564,20.1469679 C170.955676,20.9682356 170.719394,21.8961204 170.719394,22.9052874 C170.719394,23.9155101 170.956224,24.8386446 171.421112,25.649884 C171.885452,26.4600678 172.529058,27.1071592 173.332196,27.5742684 C174.134238,28.0413777 175.043729,28.2778352 176.035454,28.2778352 C177.02663,28.2778352 177.93667,28.0413777 178.738712,27.5742684 C179.539108,27.1087426 180.176685,26.4611234 180.634446,25.649884 C181.090562,24.8386446 181.321362,23.9160379 181.321362,22.9052874 C181.321362,21.8961204 181.090562,20.96718 180.634446,20.1459123 C180.177233,19.3272835 179.539657,18.6749141 178.738712,18.2078048 C177.935026,17.7412234 177.025534,17.5047659 176.035454,17.5047659 Z M130.085774,17.3199278 C127.826023,17.3199278 125.876564,18.7798421 125.14305,20.9047932 L125.14305,20.9047932 L135.045492,20.9047932 C134.291694,18.7793143 132.335108,17.3199278 130.085774,17.3199278 Z M60.2841062,12.6708451 C56.975617,12.6708451 54.7520491,14.747238 54.7520491,17.8364926 L54.7520491,17.8364926 L54.7520491,20.5161689 L65.817808,20.5161689 L65.817808,17.8364926 C65.817808,14.6986798 63.6457725,12.6708451 60.2841062,12.6708451 Z" id="Woordmerk" fill="#003741"></path>
        <g id="Beeldmerk">
            <path d="M10.4856815,7.35662022 C15.235041,10.8228674 18.3312327,16.350418 18.4096937,22.5931146 L18.4096937,22.5931146 L18.4096937,37.5739685 C16.5546124,36.9364854 15.0040474,36.2698787 13.7799461,35.2737438 C11.6274811,33.5209348 10.4856815,30.5692045 10.4856815,24.1345079 L10.4856815,24.1345079 Z M28.7852006,7.35662022 L28.7852006,24.1345079 C28.7852006,30.5692045 27.6434011,33.5209348 25.4909361,35.2737438 C24.2668347,36.2698787 22.7168185,36.9364854 20.8611884,37.5739685 L20.8611884,22.5931146 C20.9401981,16.350418 24.0352925,10.8228674 28.7852006,7.35662022 Z" id="tulp" fill="#E6000F"></path>
            <path d="M39.2711016,28.159982 L39.270553,3.60663371 C36.4234612,3.77382472 33.7415216,4.53858876 31.3503815,5.7747236 L31.3503815,26.0474427 C31.3503815,39.5073978 21.4664904,39.9749933 19.6355508,39.9749933 C17.8046113,39.9749933 7.92017146,39.4869034 7.92017146,26.0474427 L7.92017146,5.7747236 C5.52903137,4.53858876 2.84709177,3.77382472 -1.42108547e-14,3.60663371 L-1.42108547e-14,28.159982 C-1.42108547e-14,39.3056899 8.80957901,47.7731056 19.6355508,47.7731056 C30.4615226,47.7731056 39.2711016,39.3056899 39.2711016,28.159982 Z" id="grachtencirkel" fill="#F07814"></path>
            <path d="M19.6355508,13.3882247 C21.0275477,10.6187865 23.005533,8.18588764 25.4136821,6.24808989 C23.976145,3.76988764 22.0014517,1.63307865 19.6355508,0 C17.2696499,1.63307865 15.2949567,3.76988764 13.8568708,6.24808989 C16.2655686,8.18588764 18.2435539,10.6187865 19.6355508,13.3882247" id="precisie" fill="#131516"></path>
        </g>
        <g id="Group-58" transform="translate(52.000000, 38.000000)">
            <g id="Group-3" transform="translate(0.000000, 0.221368)">
                <mask id="mask-2" fill="white">
                    <use xlink:href="#path-1"></use>
                </mask>
                <g id="Clip-2"></g>
                <path d="M7.18337834,0.44576 L6.70470318,0.44576 C6.54103439,0.44576 6.40875414,0.57792 6.40875414,0.74144 L6.40875414,6.51112 C6.40875414,8.05952 5.33649936,9.09944 3.73960764,9.09944 C2.14271592,9.09944 1.06990064,8.05952 1.06990064,6.51112 L1.06990064,0.74144 C1.06990064,0.57792 0.938180892,0.44576 0.774512102,0.44576 L0.295836943,0.44576 C0.132168153,0.44576 -0.000112101911,0.57792 -0.000112101911,0.74144 L-0.000112101911,6.51112 C-0.000112101911,8.63856 1.5721172,10.18304 3.73960764,10.18304 C5.94184968,10.18304 7.47876688,8.67272 7.47876688,6.51112 L7.47876688,0.74144 C7.47876688,0.57792 7.34648662,0.44576 7.18337834,0.44576" id="Fill-1" fill="#F07814" mask="url(#mask-2)"></path>
            </g>
            <path d="M12.9061248,2.814728 C12.0821758,2.814728 11.3473478,3.089128 10.7930038,3.586408 L10.7930038,3.278408 C10.7930038,3.114888 10.6607236,2.982728 10.4976153,2.982728 L10.0189401,2.982728 C9.85527134,2.982728 9.72299108,3.114888 9.72299108,3.278408 L9.72299108,9.940168 C9.72299108,10.103688 9.85527134,10.235288 10.0189401,10.235288 L10.4976153,10.235288 C10.6607236,10.235288 10.7930038,10.103688 10.7930038,9.940168 L10.7930038,5.917128 C10.7930038,4.751208 11.6959847,3.872008 12.8932331,3.872008 C14.1549401,3.872008 14.8505325,4.598328 14.8505325,5.917128 L14.8505325,9.940168 C14.8505325,10.103688 14.9828127,10.235288 15.145921,10.235288 L15.6245962,10.235288 C15.7877045,10.235288 15.9199847,10.103688 15.9199847,9.940168 L15.9199847,5.917128 C15.9199847,4.003608 14.765335,2.814728 12.9061248,2.814728" id="Fill-4" fill="#F07814"></path>
            <path d="M19.0164637,2.98312 L18.5377885,2.98312 C18.3741197,2.98312 18.2418395,3.11528 18.2418395,3.27824 L18.2418395,9.93944 C18.2418395,10.10296 18.3741197,10.23512 18.5377885,10.23512 L19.0164637,10.23512 C19.179572,10.23512 19.3124127,10.10296 19.3124127,9.93944 L19.3124127,3.27824 C19.3124127,3.11528 19.179572,2.98312 19.0164637,2.98312" id="Fill-6" fill="#F07814"></path>
            <path d="M19.0164637,0.667128 L18.5377885,0.667128 C18.3741197,0.667128 18.2418395,0.799288 18.2418395,0.962808 L18.2418395,1.775368 C18.2418395,1.938888 18.3741197,2.071608 18.5377885,2.071608 L19.0164637,2.071608 C19.179572,2.071608 19.3124127,1.938888 19.3124127,1.775368 L19.3124127,0.962808 C19.3124127,0.799288 19.179572,0.667128 19.0164637,0.667128" id="Fill-8" fill="#F07814"></path>
            <path d="M26.7585019,2.982616 L26.2405911,2.982616 C26.1184,2.982616 26.0079796,3.058216 25.9642599,3.172456 L23.9363363,8.454376 L21.9084127,3.172456 C21.8641325,3.058216 21.7542726,2.982616 21.6320815,2.982616 L21.1141707,2.982616 C21.016642,2.982616 20.925279,3.030776 20.870349,3.110856 C20.8148586,3.191496 20.8030879,3.293416 20.8378395,3.384696 L23.4010497,10.045896 C23.4453299,10.160136 23.5546293,10.235736 23.6768204,10.235736 L24.1958522,10.235736 C24.3180433,10.235736 24.4279032,10.160136 24.4716229,10.045896 L27.0342726,3.384696 C27.0695847,3.293416 27.0572535,3.191496 27.0023236,3.110856 C26.9468331,3.030776 26.8560306,2.982616 26.7585019,2.982616" id="Fill-10" fill="#F07814"></path>
            <path d="M31.4322548,2.814728 C29.4351592,2.814728 27.8096815,4.526088 27.8096815,6.629448 C27.8096815,8.738408 29.4351592,10.390968 31.5101656,10.390968 C33.1866497,10.390968 34.3900637,9.528008 34.8984459,7.961688 C34.9275924,7.871528 34.9124586,7.772968 34.8564076,7.696808 C34.8003567,7.620088 34.7117962,7.574728 34.6170701,7.574728 L34.1126115,7.574728 C33.9887389,7.574728 33.877758,7.652008 33.8345987,7.768488 C33.4551338,8.798328 32.6726624,9.320808 31.5101656,9.320808 C30.1189809,9.320808 29.0394395,8.298808 28.8965096,6.898248 L34.76,6.898248 C34.9214268,6.898248 35.052586,6.768888 35.0553885,6.606488 C35.0705223,5.627048 34.6512611,4.607288 33.9332484,3.878168 C33.2578344,3.192728 32.3694268,2.814728 31.4322548,2.814728 L31.4322548,2.814728 Z M29.0018854,5.828648 C29.3180127,4.691288 30.2938599,3.897768 31.4322548,3.897768 C32.5667261,3.897768 33.5459363,4.691288 33.8727134,5.828648 L29.0018854,5.828648 Z" id="Fill-12" fill="#F07814"></path>
            <path d="M40.308428,2.842616 C39.3684535,2.734536 38.5254471,2.970856 37.8651669,3.530296 L37.8651669,3.278296 C37.8651669,3.115336 37.7323261,2.983176 37.5692178,2.983176 L37.0770904,2.983176 C36.9134217,2.983176 36.7811414,3.115336 36.7811414,3.278296 L36.7811414,9.940056 C36.7811414,10.103576 36.9134217,10.235736 37.0770904,10.235736 L37.5692178,10.235736 C37.7323261,10.235736 37.8651669,10.103576 37.8651669,9.940056 L37.8651669,5.917016 C37.8651669,5.293736 38.0977783,4.728136 38.5131159,4.357416 C38.9037911,3.979416 39.5186701,3.805816 40.249014,3.870776 C40.3314089,3.879736 40.4132433,3.850616 40.4743389,3.794056 C40.5359949,3.738616 40.5707465,3.659096 40.5707465,3.576776 L40.5707465,3.136056 C40.5707465,2.985976 40.4580841,2.859416 40.308428,2.842616" id="Fill-14" fill="#F07814"></path>
            <path d="M44.5880306,5.844384 C42.9535847,5.615344 42.6626803,5.362784 42.6548331,4.916464 C42.6514701,4.710384 42.7333045,4.521664 42.8964127,4.355344 C43.2074955,4.039504 43.7573554,3.858624 44.4047439,3.858624 C45.1244382,3.858624 46.0459159,4.066944 46.3485911,5.059264 C46.3861452,5.183584 46.5016102,5.268704 46.6316484,5.268704 L47.1232153,5.268704 C47.2140178,5.268704 47.2992153,5.227264 47.3552662,5.156144 C47.4118777,5.086144 47.4320561,4.992624 47.4118777,4.905264 C47.0974318,3.576384 45.9965911,2.814784 44.3912917,2.814784 C42.5399287,2.814784 41.5713682,3.874304 41.5713682,4.927104 C41.6016357,6.483904 43.2147822,6.719104 44.4271643,6.895504 C46.1165401,7.136864 46.4747057,7.540624 46.4920815,8.085504 C46.5111389,8.350944 46.4270624,8.590624 46.2499414,8.777104 C45.9057885,9.133264 45.2875465,9.346624 44.5992408,9.346624 C43.849279,9.346624 42.5516994,9.163504 42.2854573,7.936544 C42.2563108,7.801024 42.1358013,7.703584 41.9967949,7.703584 L41.5175592,7.703584 C41.4312408,7.703584 41.3488459,7.742224 41.2922344,7.807744 C41.2361834,7.873824 41.212642,7.961184 41.2255338,8.046864 C41.4631898,9.514624 42.7293809,10.391024 44.611572,10.391024 C45.6238522,10.391024 46.4808713,10.083584 47.0262471,9.524144 C47.3905783,9.145024 47.5906803,8.605744 47.574986,8.043504 L47.574986,8.037344 C47.4897885,6.277264 45.6042344,5.996144 44.5880306,5.844384" id="Fill-16" fill="#F07814"></path>
            <path d="M50.2445809,0.667128 L49.7659057,0.667128 C49.6022369,0.667128 49.4699567,0.799288 49.4699567,0.962808 L49.4699567,1.775368 C49.4699567,1.938888 49.6022369,2.071608 49.7659057,2.071608 L50.2445809,2.071608 C50.4076892,2.071608 50.5399694,1.938888 50.5399694,1.775368 L50.5399694,0.962808 C50.5399694,0.799288 50.4076892,0.667128 50.2445809,0.667128" id="Fill-18" fill="#F07814"></path>
            <path d="M50.2304,2.98312 L49.7517248,2.98312 C49.5880561,2.98312 49.4557758,3.11528 49.4557758,3.27824 L49.4557758,9.93944 C49.4557758,10.10296 49.5880561,10.23512 49.7517248,10.23512 L50.2304,10.23512 C50.3940688,10.23512 50.526349,10.10296 50.526349,9.93944 L50.526349,3.27824 C50.526349,3.11528 50.3940688,2.98312 50.2304,2.98312" id="Fill-20" fill="#F07814"></path>
            <path d="M55.5647694,2.98312 L54.0603618,2.98312 L54.0603618,1.85528 C54.0603618,1.69176 53.9280815,1.5596 53.7649732,1.5596 L53.2862981,1.5596 C53.1231898,1.5596 52.990349,1.69176 52.990349,1.85528 L52.990349,2.98312 L52.3793936,2.98312 C52.2162854,2.98312 52.0840051,3.11528 52.0840051,3.27824 L52.0840051,3.75704 C52.0840051,3.92056 52.2162854,4.05216 52.3793936,4.05216 L52.990349,4.05216 L52.990349,7.63728 C52.990349,8.51704 53.2588331,9.22768 53.7683363,9.69248 C54.1685401,10.05816 54.6965401,10.24744 55.3091771,10.24744 C55.4011006,10.24744 55.4952662,10.24352 55.5911134,10.23456 C55.743572,10.22056 55.8607185,10.09288 55.8607185,9.94 L55.8607185,9.5004 C55.8607185,9.41976 55.8276484,9.34192 55.7699159,9.28704 C55.7116229,9.23104 55.6348331,9.2092 55.5529987,9.20416 C55.0799287,9.22208 54.7133554,9.11512 54.4695338,8.88048 C54.1982471,8.62008 54.0603618,8.20176 54.0603618,7.63728 L54.0603618,4.05216 L55.5647694,4.05216 C55.7278777,4.05216 55.8607185,3.92056 55.8607185,3.75704 L55.8607185,3.27824 C55.8607185,3.11528 55.7278777,2.98312 55.5647694,2.98312" id="Fill-22" fill="#F07814"></path>
            <path d="M115.641697,8.889384 L115.641697,5.125064 C115.641697,3.700984 114.548703,2.850904 112.717518,2.850904 C111.09148,2.850904 109.967659,3.615864 109.634155,4.950344 C109.612296,5.038264 109.631353,5.131784 109.687964,5.203464 C109.744576,5.275144 109.830334,5.317704 109.921136,5.317704 L110.413824,5.317704 C110.542181,5.317704 110.657085,5.233704 110.695761,5.110504 C111.007404,4.117064 111.966996,3.907624 112.717518,3.907624 C113.562767,3.907624 114.571124,4.118744 114.571124,5.125064 C114.571124,5.644184 113.894028,5.797624 112.380092,5.943224 C111.451327,6.027784 109.27655,6.224904 109.27655,8.229144 C109.27655,9.712584 110.68399,10.387944 111.992219,10.387944 C113.055506,10.387944 113.974181,10.096184 114.616525,9.572024 C114.650716,9.768584 114.706206,9.944984 114.781315,10.102904 C114.830079,10.205944 114.933773,10.271464 115.048117,10.271464 L115.539684,10.271464 C115.638334,10.271464 115.729697,10.222744 115.785187,10.141544 C115.840117,10.060344 115.850767,9.957304 115.814894,9.866024 C115.722971,9.635864 115.641697,9.180024 115.641697,8.889384 M111.992219,9.318344 C111.975964,9.318344 110.385238,9.305464 110.385238,8.216824 C110.385238,7.713944 110.548346,7.162344 112.483786,6.971944 C113.19227,6.912584 113.972499,6.847064 114.571124,6.570984 L114.571124,7.557144 C114.571124,8.774024 113.275786,9.318344 111.992219,9.318344" id="Fill-24" fill="#F07814"></path>
            <path d="M78.4468994,0.646912 L77.929549,0.646912 C77.811842,0.646912 77.7053452,0.715792 77.6577019,0.823312 L74.2391541,8.601712 L70.8206064,0.823312 C70.7729631,0.715792 70.6664662,0.646912 70.5487592,0.646912 L70.0448611,0.646912 C69.8811924,0.646912 69.7489121,0.779072 69.7489121,0.942032 L69.7489121,9.918832 C69.7489121,10.082352 69.8811924,10.214512 70.0448611,10.214512 L70.5235363,10.214512 C70.6866446,10.214512 70.8189248,10.082352 70.8189248,9.918832 L70.8189248,3.474352 L73.7094726,10.038112 C73.7565554,10.145632 73.8624917,10.214512 73.9801987,10.214512 L74.5110013,10.214512 C74.6281478,10.214512 74.7346446,10.145072 74.7817274,10.037552 L77.6588229,3.479392 L77.6588229,9.918832 C77.6588229,10.082352 77.7916637,10.214512 77.954772,10.214512 L78.4468994,10.214512 C78.6105682,10.214512 78.7428484,10.082352 78.7428484,9.918832 L78.7428484,0.942032 C78.7428484,0.779072 78.6105682,0.646912 78.4468994,0.646912" id="Fill-26" fill="#F07814"></path>
            <path d="M84.2208204,2.811424 C82.2231643,2.811424 80.5976866,4.522784 80.5976866,6.625584 C80.5976866,8.735104 82.2237248,10.387664 84.2987312,10.387664 C85.9752153,10.387664 87.1786293,9.524704 87.6870115,7.958384 C87.716158,7.868224 87.7010242,7.769664 87.6449732,7.693504 C87.5889223,7.616224 87.5003618,7.571424 87.4056357,7.571424 L86.9011771,7.571424 C86.7773045,7.571424 86.6663236,7.648704 86.6231643,7.765184 C86.2436994,8.795024 85.461228,9.317504 84.2987312,9.317504 C82.9075465,9.317504 81.8280051,8.295504 81.6850752,6.894944 L87.5485656,6.894944 C87.7099924,6.894944 87.8411516,6.765584 87.8439541,6.603184 C87.8590879,5.623184 87.4392662,4.603424 86.7212535,3.874304 C86.0458395,3.188864 85.1574318,2.811424 84.2208204,2.811424 L84.2208204,2.811424 Z M81.790451,5.824784 C82.1065783,4.687984 83.0824255,3.894464 84.2208204,3.894464 C85.3552917,3.894464 86.3345019,4.687984 86.661279,5.824784 L81.790451,5.824784 Z" id="Fill-28" fill="#F07814"></path>
            <path d="M95.9373758,0.017416 L95.4587006,0.017416 C95.2950318,0.017416 95.1627516,0.149576 95.1627516,0.312536 L95.1627516,3.950296 C94.5058344,3.231816 93.5894013,2.811256 92.6101911,2.811256 C90.612535,2.811256 88.9876178,4.522616 88.9876178,6.625416 C88.9876178,8.699656 90.612535,10.388056 92.6101911,10.388056 C93.5899618,10.388056 94.5063949,9.971976 95.1627516,9.264136 L95.1627516,9.936696 C95.1627516,10.099656 95.2950318,10.231816 95.4587006,10.231816 L95.9373758,10.231816 C96.1010446,10.231816 96.2333248,10.099656 96.2333248,9.936696 L96.2333248,0.312536 C96.2333248,0.149576 96.1010446,0.017416 95.9373758,0.017416 M92.6101911,9.317896 C91.2027516,9.317896 90.0581911,8.109976 90.0581911,6.625416 C90.0581911,5.118456 91.2027516,3.894296 92.6101911,3.894296 C94.0176306,3.894296 95.1627516,5.118456 95.1627516,6.625416 C95.1627516,8.109976 94.0176306,9.317896 92.6101911,9.317896" id="Fill-30" fill="#F07814"></path>
            <path d="M99.3814268,0.646912 L98.9027516,0.646912 C98.7390828,0.646912 98.606242,0.779072 98.606242,0.942592 L98.606242,1.755152 C98.606242,1.918672 98.7390828,2.051392 98.9027516,2.051392 L99.3814268,2.051392 C99.544535,2.051392 99.6768153,1.918672 99.6768153,1.755152 L99.6768153,0.942592 C99.6768153,0.779072 99.544535,0.646912 99.3814268,0.646912" id="Fill-32" fill="#F07814"></path>
            <path d="M99.3814268,2.962344 L98.9027516,2.962344 C98.7390828,2.962344 98.606242,3.095064 98.606242,3.258024 L98.606242,9.919224 C98.606242,10.082744 98.7390828,10.214344 98.9027516,10.214344 L99.3814268,10.214344 C99.544535,10.214344 99.6768153,10.082744 99.6768153,9.919224 L99.6768153,3.258024 C99.6768153,3.095064 99.544535,2.962344 99.3814268,2.962344" id="Fill-34" fill="#F07814"></path>
            <path d="M172.462232,5.84108 C170.827786,5.61204 170.536321,5.35948 170.528474,4.91372 C170.525671,4.70708 170.606385,4.51836 170.770614,4.3526 C171.081697,4.03564 171.631557,3.85532 172.278945,3.85532 C172.998639,3.85532 173.920117,4.06364 174.222792,5.05596 C174.260346,5.18028 174.375811,5.26596 174.50585,5.26596 L174.996856,5.26596 C175.088219,5.26596 175.173417,5.22396 175.229468,5.1534 C175.284958,5.08284 175.305697,4.98932 175.284958,4.90196 C174.971073,3.57308 173.869671,2.81204 172.265493,2.81204 C170.413569,2.81204 169.445009,3.87156 169.445009,4.9238 C169.476397,6.48116 171.088983,6.7158 172.301366,6.8922 C173.990741,7.13356 174.348346,7.53788 174.365722,8.08276 C174.385901,8.34764 174.300703,8.58732 174.124143,8.7738 C173.77999,9.13052 173.161748,9.34388 172.472882,9.34388 C171.72348,9.34388 170.42534,9.1602 170.159659,7.93324 C170.130512,7.79772 170.010003,7.70028 169.870996,7.70028 L169.391761,7.70028 C169.305442,7.70028 169.223047,7.73892 169.166436,7.80444 C169.110385,7.87052 169.086283,7.95788 169.099735,8.04356 C169.337391,9.51132 170.603582,10.38772 172.485773,10.38772 C173.498054,10.38772 174.355073,10.08028 174.900448,9.52084 C175.263659,9.14284 175.463761,8.603 175.448627,8.0402 L175.448627,8.03404 C175.36399,6.27396 173.477875,5.99284 172.462232,5.84108" id="Fill-36" fill="#F07814"></path>
            <path d="M119.145386,3.565016 L119.145386,0.295736 C119.145386,0.131656 119.013106,5.6e-05 118.849997,5.6e-05 L118.370201,5.6e-05 C118.207093,5.6e-05 118.074813,0.131656 118.074813,0.295736 L118.074813,9.919336 C118.074813,10.082856 118.207093,10.214456 118.370201,10.214456 L118.849997,10.214456 C119.013106,10.214456 119.145386,10.082856 119.145386,9.919336 L119.145386,5.896296 L119.145386,3.565016 Z" id="Fill-38" fill="#F07814"></path>
            <path d="M138.219694,2.811424 C136.222038,2.811424 134.596,4.522784 134.596,6.625584 C134.596,8.735104 136.222038,10.387664 138.297045,10.387664 C139.973529,10.387664 141.176943,9.524704 141.685885,7.958384 C141.715032,7.868224 141.699898,7.769664 141.643287,7.693504 C141.588357,7.616224 141.499796,7.571424 141.40451,7.571424 L140.900051,7.571424 C140.776178,7.571424 140.665197,7.648704 140.622038,7.765184 C140.242013,8.795024 139.460662,9.317504 138.297045,9.317504 C136.90642,9.317504 135.826879,8.295504 135.68451,6.894944 L141.547439,6.894944 C141.708866,6.894944 141.840025,6.765584 141.842268,6.603184 C141.857401,5.623184 141.43758,4.602304 140.719567,3.873744 C140.043592,3.188864 139.155745,2.811424 138.219694,2.811424 L138.219694,2.811424 Z M135.788764,5.824784 C136.106013,4.687984 137.081299,3.894464 138.219694,3.894464 C139.353045,3.894464 140.333376,4.687984 140.660153,5.824784 L135.788764,5.824784 Z" id="Fill-41" fill="#F07814"></path>
            <path d="M159.461045,2.811424 C157.463389,2.811424 155.83735,4.522784 155.83735,6.625584 C155.83735,8.735104 157.463389,10.387664 159.538395,10.387664 C161.214318,10.387664 162.418293,9.524704 162.926675,7.958384 C162.955822,7.868224 162.940688,7.769664 162.884637,7.693504 C162.829146,7.616224 162.740586,7.571424 162.64586,7.571424 L162.141401,7.571424 C162.017529,7.571424 161.905987,7.648704 161.862828,7.765184 C161.483363,8.795024 160.701452,9.317504 159.538395,9.317504 C158.14721,9.317504 157.067669,8.295504 156.925299,6.894944 L162.788229,6.894944 C162.949656,6.894944 163.081376,6.765584 163.083618,6.603184 C163.098752,5.623184 162.678369,4.602304 161.960357,3.873744 C161.284943,3.188864 160.397096,2.811424 159.461045,2.811424 L159.461045,2.811424 Z M157.030115,5.824784 C157.346803,4.687984 158.322089,3.894464 159.461045,3.894464 C160.593834,3.894464 161.574166,4.687984 161.901503,5.824784 L157.030115,5.824784 Z" id="Fill-43" fill="#F07814"></path>
            <path d="M146.751042,2.793896 C145.928214,2.793896 145.192825,3.067736 144.639042,3.565016 L144.639042,3.257576 C144.639042,3.094056 144.506762,2.961896 144.343093,2.961896 L143.864978,2.961896 C143.70131,2.961896 143.568469,3.094056 143.568469,3.257576 L143.568469,9.919336 C143.568469,10.082856 143.70131,10.214456 143.864978,10.214456 L144.343093,10.214456 C144.506762,10.214456 144.639042,10.082856 144.639042,9.919336 L144.639042,5.896296 C144.639042,4.730376 145.542023,3.851176 146.738711,3.851176 C148.000418,3.851176 148.69601,4.577496 148.69601,5.896296 L148.69601,9.919336 C148.69601,10.082856 148.82829,10.214456 148.991399,10.214456 L149.470074,10.214456 C149.633182,10.214456 149.765462,10.082856 149.765462,9.919336 L149.765462,5.896296 C149.765462,3.982776 148.610813,2.793896 146.751042,2.793896" id="Fill-45" fill="#F07814"></path>
            <path d="M154.687969,3.12312 L153.183562,3.12312 L153.183562,1.99584 C153.183562,1.83232 153.051282,1.70016 152.888173,1.70016 L152.409498,1.70016 C152.24639,1.70016 152.113549,1.83232 152.113549,1.99584 L152.113549,3.12312 L151.502033,3.12312 C151.338925,3.12312 151.206645,3.25528 151.206645,3.4188 L151.206645,3.8976 C151.206645,4.06112 151.338925,4.19272 151.502033,4.19272 L152.113549,4.19272 L152.113549,7.77784 C152.113549,8.6576 152.382033,9.36824 152.891536,9.83304 C153.29174,10.19872 153.81974,10.388 154.432377,10.388 C154.524301,10.388 154.618466,10.38408 154.714313,10.37512 C154.866772,10.36112 154.983358,10.23344 154.983358,10.08056 L154.983358,9.64096 C154.983358,9.55976 154.950848,9.48248 154.892555,9.4276 C154.835383,9.3716 154.762517,9.34976 154.676199,9.34472 C154.208734,9.36488 153.837116,9.25568 153.592734,9.0216 C153.321447,8.7612 153.183562,8.34232 153.183562,7.77784 L153.183562,4.19272 L154.687969,4.19272 C154.851078,4.19272 154.983358,4.06112 154.983358,3.8976 L154.983358,3.4188 C154.983358,3.25528 154.851078,3.12312 154.687969,3.12312" id="Fill-47" fill="#F07814"></path>
            <path d="M168.250731,2.82128 C167.312438,2.71656 166.468311,2.95008 165.80691,3.50896 L165.80691,3.25752 C165.80691,3.09456 165.674069,2.9624 165.510961,2.9624 L165.018833,2.9624 C164.855164,2.9624 164.722884,3.09456 164.722884,3.25752 L164.722884,9.91928 C164.722884,10.08224 164.855164,10.2144 165.018833,10.2144 L165.510961,10.2144 C165.674069,10.2144 165.80691,10.08224 165.80691,9.91928 L165.80691,5.89624 C165.80691,5.2724 166.040082,4.70736 166.454859,4.33664 C166.845534,3.95864 167.459852,3.78504 168.190757,3.84944 C168.273712,3.8584 168.355546,3.82928 168.416642,3.77328 C168.477738,3.71784 168.51305,3.63832 168.51305,3.556 L168.51305,3.11472 C168.51305,2.9652 168.400387,2.83864 168.250731,2.82128" id="Fill-49" fill="#F07814"></path>
            <path d="M133.049218,8.2796 C132.938237,8.16928 132.761116,8.17488 132.649575,8.28464 C131.986492,8.93368 131.117141,9.31784 130.190059,9.31784 C128.169422,9.31784 126.524887,7.56448 126.524887,5.40904 C126.524887,3.26144 128.169422,1.51368 130.190059,1.51368 C131.191689,1.51368 132.119893,1.93312 132.789702,2.64208 C132.900683,2.75968 133.083409,2.76976 133.197192,2.65608 L133.565447,2.28816 C133.670262,2.18344 133.67811,2.01096 133.576097,1.90176 C132.711791,0.98448 131.510059,0.44464 130.190059,0.44464 C127.578084,0.44464 125.342211,2.6712 125.342211,5.40904 C125.342211,8.15416 127.578084,10.388 130.190059,10.388 C131.404683,10.388 132.553727,9.88344 133.416352,9.03952 C133.526211,8.932 133.522288,8.75224 133.412989,8.6436 L133.049218,8.2796 Z" id="Fill-51" fill="#F07814"></path>
            <path d="M107.567949,8.448048 C107.454726,8.334928 107.264713,8.336608 107.162701,8.460368 C106.717656,9.005808 106.052331,9.318288 105.267618,9.318288 C103.860739,9.318288 102.716178,8.109808 102.716178,6.625248 C102.716178,5.118848 103.860739,3.894128 105.267618,3.894128 C106.032713,3.894128 106.692994,4.208848 107.145885,4.757088 C107.247898,4.880288 107.43735,4.881408 107.550573,4.768288 L107.925554,4.393648 C108.025885,4.292288 108.039898,4.127648 107.947414,4.019008 C107.297783,3.254048 106.349962,2.811648 105.267618,2.811648 C103.269962,2.811648 101.645045,4.522448 101.645045,6.625248 C101.645045,8.699488 103.269962,10.387888 105.267618,10.387888 C106.357809,10.387888 107.305631,9.946608 107.951898,9.183888 C108.044382,9.075808 108.03093,8.910608 107.930038,8.809808 L107.567949,8.448048 Z" id="Fill-53" fill="#F07814"></path>
            <path d="M57.6593376,13.639024 C59.0976051,13.783504 59.8985732,13.230784 60.4047134,11.882304 L63.079465,4.786544 L63.6136306,3.398864 C63.6483822,3.308144 63.6366115,3.205664 63.581121,3.125584 C63.5261911,3.045504 63.434828,2.997344 63.3372994,2.997344 L62.6826242,3.000144 C62.5649172,3.000144 62.4326369,3.086384 62.3838726,3.195024 L62.3793885,3.203424 L61.9012739,4.547984 L60.3055032,8.994944 L58.5634395,4.238864 L58.1912611,3.208464 L58.1828535,3.191664 C58.1324076,3.085264 58.0090955,2.996784 57.8930701,2.996784 L57.2350318,2.996784 C57.1380637,2.996784 57.0467006,3.045504 56.9912102,3.125584 C56.9357197,3.205664 56.923949,3.307584 56.9587006,3.398864 L57.5281783,4.877264 L57.5281783,4.877264 L59.6676433,10.438624 L59.2853758,11.457264 C58.9748535,12.303984 58.622293,12.620384 57.6806369,12.552624 L57.6391592,12.552624 C57.4754904,12.552624 57.3538599,12.672464 57.3538599,12.835424 L57.3538599,13.327104 C57.3538599,13.478864 57.5074395,13.619984 57.6559745,13.639024" id="Fill-55" fill="#F07814"></path>
        </g>
    </g>
</svg>