<svg xmlns="http://www.w3.org/2000/svg" width="707" height="141" viewBox="0 0 707 141"><g fill="none"><g fill="#183D76" transform="translate(140.02 8.23)"><path d="M0 1.42108547e-14 9.72 1.42108547e-14 9.72 25.05C13.18 22.53 19.63 18.13 27.2 18.13 42.53 18.13 43.37 28.22 43.37 37.76L43.37 70.47 33.84 70.47 33.84 39.16C33.84 30.84 32.53 26.63 24.31 26.63 18.8 26.63 12.07 30.65 9.73 31.96L9.73 70.47.01 70.47.01 1.42108547e-14 0 1.42108547e-14ZM53.5 45.8C53.5 25.14 63.78 18.13 77.33 18.13 90.98 18.13 96.87 27.29 96.87 43.83L96.87 47.29 63.31 47.29C63.5 61.22 70.97 63.46 80.88 63.46 84.53 63.46 90.88 62.15 94.06 61.4L95.65 69.16C92.85 70.09 86.4 71.59 78.64 71.59 63.32 71.59 53.5 65.61 53.5 45.8ZM86.68 40.47C86.77 31.4 83.41 25.23 76.21 25.23 69.2 25.23 64.25 30.46 63.5 40.47L86.68 40.47ZM102.73 56.55C102.73 43.93 114.13 41.22 123.01 41.13L134.23 40.94 134.23 35.24C134.23 28.14 130.49 26.64 122.27 26.64 117.41 26.64 111.8 28.23 108.81 28.98L106.85 21.6C110.12 20.2 116.66 18.24 124.42 18.24 137.04 18.24 143.77 22.17 143.77 32.63L143.77 59.36C143.77 62.54 146.01 63.19 148.44 63.38L147.97 70.95C147.32 71.04 146.66 71.04 145.91 71.04 141.14 71.04 135.81 69.36 134.97 64.87 132.17 66.83 126.93 71.23 118.15 71.23 108.44 71.22 102.73 66.17 102.73 56.55ZM134.23 58.98 134.23 47.2 123.29 47.67C116.28 47.86 112.26 51.03 112.26 55.71 112.26 61.51 115.63 63.47 120.49 63.47 125.92 63.46 132.27 59.82 134.23 58.98Z"/><polygon points="158.29 0 168.01 0 168.01 70.48 158.29 70.48"/><path d="M183.39 55.8 183.39 27.2 175.91 27.2 175.91 19.44 183.39 19.44 183.39 8.97 193.02 8.97 193.02 19.44 208.91 19.44 208.91 27.2 193.02 27.2 193.02 55.71C193.02 62.07 194.89 63.09 201.62 63.09 204.61 63.09 209.66 62.06 210.5 61.78L211.81 69.82C209.57 70.47 205.17 71.5 201.81 71.5 192.18 71.5 183.39 71.41 183.39 55.8ZM219.51 1.42108547e-14 229.23 1.42108547e-14 229.23 25.05C232.69 22.53 239.14 18.13 246.71 18.13 262.04 18.13 262.88 28.22 262.88 37.76L262.88 70.47 253.35 70.47 253.35 39.16C253.35 30.84 252.04 26.63 243.82 26.63 238.31 26.63 231.58 30.65 229.24 31.96L229.24 70.47 219.52 70.47 219.52 1.42108547e-14 219.51 1.42108547e-14Z"/></g><g fill="#F8AF00" transform="translate(431.1 8.93)"><path d="M35.99,58.57 L24.55,42.69 C22.97,42.99 20.7,43.08 18.83,43.08 L10.65,43.08 L10.65,69.71 L0,69.71 L0,0 L23.96,0 C37.96,0 47.82,6.61 47.82,21.1 C47.82,29.19 43.97,36.38 35.2,40.13 L45.06,53.34 C49.5,59.16 54.53,61.33 59.36,62.61 L56.99,70.79 C50.29,70.51 42.4,67.05 35.99,58.57 Z M19.43,34.91 C29.98,34.91 36.79,31.36 36.79,21.6 C36.79,12.04 31.96,8.49 21.8,8.49 L10.66,8.49 L10.66,34.91 L19.43,34.91 Z"/><polygon points="67.89 3.63 77.89 3.63 77.89 69.71 67.89 69.71"/></g><circle cx="5.38" cy="5.38" r="5.38" fill="#F8AF00"/><circle cx="30.44" cy="5.38" r="5.38" fill="#F8AF00"/><circle cx="55.49" cy="5.38" r="5.38" fill="#F8AF00"/><circle cx="80.55" cy="5.38" r="5.38" fill="#F8AF00"/><circle cx="105.61" cy="5.38" r="5.38" fill="#F8AF00"/><circle cx="5.38" cy="31.37" r="5.38" fill="#F8AF00"/><circle cx="30.44" cy="31.37" r="5.38" fill="#F8AF00"/><circle cx="55.49" cy="31.37" r="5.38" fill="#F8AF00"/><circle cx="80.55" cy="31.37" r="5.38" fill="#F8AF00"/><circle cx="105.61" cy="31.37" r="5.38" fill="#F8AF00"/><circle cx="5.38" cy="57.36" r="5.38" fill="#F8AF00"/><circle cx="30.44" cy="57.36" r="5.38" fill="#F8AF00"/><circle cx="80.55" cy="57.36" r="5.38" fill="#F8AF00"/><circle cx="105.61" cy="57.36" r="5.38" fill="#F8AF00"/><circle cx="5.38" cy="83.35" r="5.38" fill="#F8AF00"/><circle cx="30.44" cy="83.35" r="5.38" fill="#F8AF00"/><circle cx="80.55" cy="83.35" r="5.38" fill="#F8AF00"/><circle cx="105.61" cy="83.35" r="5.38" fill="#F8AF00"/><circle cx="5.38" cy="109.34" r="5.38" fill="#F8AF00"/><circle cx="30.44" cy="109.34" r="5.38" fill="#F8AF00"/><circle cx="55.49" cy="109.34" r="5.38" fill="#F8AF00"/><circle cx="80.55" cy="109.34" r="5.38" fill="#F8AF00"/><circle cx="105.61" cy="109.34" r="5.38" fill="#F8AF00"/><circle cx="5.38" cy="135.33" r="5.38" fill="#F8AF00"/><circle cx="30.44" cy="135.33" r="5.38" fill="#F8AF00"/><circle cx="55.49" cy="135.33" r="5.38" fill="#F8AF00"/><circle cx="80.55" cy="135.33" r="5.38" fill="#F8AF00"/><circle cx="105.61" cy="135.33" r="5.38" fill="#F8AF00"/><g fill="#183D76" transform="translate(140.58 100.84)"><path d="M12.45 21.28C11.9 21.86 11.37 22.36 10.85 22.78 10.33 23.2 9.81 23.54 9.28 23.81 8.75 24.08 8.2 24.28 7.63 24.4 7.06 24.53 6.45 24.59 5.8 24.59 4.87 24.59 4.05 24.44 3.33 24.13 2.61 23.82 2 23.39 1.51 22.82 1.02 22.26.64 21.57.39 20.76.14 19.95 0 19.04 0 18.04 0 17.2.08 16.36.25 15.51.42 14.66.67 13.85 1 13.06 1.33 12.28 1.74 11.55 2.22 10.87 2.71 10.19 3.26 9.6 3.89 9.09 4.51 8.59 5.21 8.19 5.97 7.9 6.73 7.61 7.55 7.46 8.43 7.46 9.24 7.46 9.93 7.57 10.5 7.8 11.06 8.03 11.52 8.31 11.87 8.65 12.22 8.99 12.48 9.36 12.63 9.76 12.78 10.16 12.86 10.53 12.86 10.87 12.86 11.33 12.8 11.76 12.68 12.18 12.56 12.59 12.34 12.98 12.03 13.35 11.72 13.72 11.29 14.06 10.76 14.39 10.22 14.71 9.54 15.01 8.71 15.29 7.88 15.56 6.88 15.81 5.72 16.04 4.56 16.26 3.2 16.46 1.63 16.63 1.61 16.85 1.59 17.08 1.57 17.32 1.55 17.56 1.54 17.78 1.54 18.01 1.54 19.67 1.92 20.97 2.67 21.91 3.42 22.85 4.56 23.32 6.08 23.32 6.67 23.32 7.2 23.26 7.68 23.13 8.15 23 8.58 22.84 8.95 22.64 9.32 22.44 9.65 22.23 9.94 22 10.23 21.78 10.48 21.56 10.7 21.36 10.92 21.16 11.12 20.99 11.28 20.87 11.44 20.74 11.59 20.68 11.72 20.68 11.85 20.68 11.97 20.74 12.07 20.85L12.45 21.28ZM8.35 8.65C7.46 8.65 6.65 8.84 5.93 9.21 5.21 9.58 4.57 10.09 4.02 10.73 3.47 11.37 3 12.1 2.63 12.93 2.25 13.76 1.98 14.63 1.8 15.53 3.22 15.37 4.44 15.19 5.47 14.99 6.5 14.78 7.37 14.57 8.08 14.34 8.79 14.11 9.37 13.86 9.82 13.59 10.27 13.32 10.61 13.05 10.85 12.76 11.09 12.48 11.25 12.18 11.34 11.88 11.42 11.58 11.46 11.27 11.46 10.94 11.46 10.71 11.41 10.45 11.3 10.18 11.19 9.91 11.02 9.66 10.77 9.43 10.52 9.21 10.2 9.02 9.81 8.87 9.42 8.73 8.93 8.65 8.35 8.65ZM18.65 13.07C19.1 12.19 19.6 11.4 20.15 10.7 20.7 10 21.29 9.41 21.9 8.93 22.51 8.45 23.15 8.08 23.79 7.83 24.44 7.58 25.09 7.45 25.75 7.45 26.46 7.45 27.08 7.59 27.58 7.87 28.09 8.15 28.5 8.56 28.8 9.09 29.11 9.63 29.31 10.28 29.4 11.06 29.49 11.84 29.48 12.72 29.36 13.71L28.1 24.36 26.53 24.36 27.79 13.71C27.98 12.13 27.87 10.91 27.47 10.06 27.07 9.21 26.31 8.79 25.21 8.79 24.58 8.79 23.96 8.95 23.33 9.27 22.7 9.59 22.08 10.04 21.49 10.63 20.89 11.22 20.33 11.92 19.81 12.76 19.28 13.59 18.82 14.53 18.42 15.57L17.4 24.38 15.82 24.38 17.81 7.66 18.53 7.66C18.92 7.66 19.12 7.86 19.12 8.26L18.65 13.07ZM43.91 18.59C43.49 19.48 43.02 20.3 42.51 21.04 42 21.78 41.46 22.42 40.88 22.94 40.3 23.47 39.69 23.87 39.05 24.16 38.41 24.45 37.76 24.6 37.07 24.6 36.38 24.6 35.77 24.46 35.24 24.19 34.71 23.92 34.27 23.53 33.92 23.03 33.57 22.53 33.3 21.92 33.13 21.2 32.95 20.49 32.86 19.68 32.86 18.79 32.86 17.82 32.99 16.87 33.24 15.93 33.49 14.99 33.84 14.11 34.29 13.27 34.74 12.43 35.27 11.66 35.9 10.96 36.52 10.26 37.22 9.65 37.98 9.13 38.74 8.62 39.55 8.21 40.41 7.92 41.27 7.63 42.16 7.48 43.07 7.48 43.73 7.48 44.35 7.54 44.94 7.66 45.53 7.78 46.1 7.98 46.66 8.27L44.7 24.37 43.93 24.37C43.71 24.37 43.55 24.31 43.48 24.19 43.4 24.07 43.36 23.93 43.36 23.77L43.91 18.59ZM45 9.02C44.67 8.9 44.32 8.81 43.96 8.76 43.6 8.71 43.24 8.68 42.87 8.68 41.75 8.68 40.69 8.95 39.67 9.5 38.65 10.05 37.76 10.78 36.99 11.69 36.22 12.6 35.61 13.66 35.15 14.84 34.69 16.02 34.46 17.25 34.46 18.52 34.46 20.02 34.71 21.18 35.22 22.01 35.73 22.84 36.52 23.26 37.59 23.26 38.23 23.26 38.85 23.08 39.47 22.72 40.09 22.36 40.67 21.86 41.24 21.21 41.8 20.56 42.33 19.78 42.82 18.87 43.31 17.96 43.75 16.95 44.14 15.85L45 9.02ZM52.67 13.34C53.11 12.46 53.59 11.66 54.12 10.94 54.65 10.22 55.21 9.6 55.81 9.09 56.41 8.58 57.03 8.18 57.69 7.89 58.34 7.6 59.01 7.46 59.68 7.46 60.41 7.46 61.04 7.6 61.59 7.88 62.14 8.16 62.59 8.55 62.96 9.06 63.33 9.57 63.61 10.19 63.8 10.91 63.99 11.64 64.09 12.45 64.09 13.34 64.09 14.2 64 15.07 63.82 15.96 63.64 16.85 63.39 17.71 63.06 18.54 62.73 19.37 62.33 20.16 61.85 20.89 61.38 21.63 60.84 22.27 60.23 22.82 59.62 23.37 58.97 23.8 58.24 24.12 57.52 24.44 56.76 24.6 55.95 24.6 55.01 24.6 54.15 24.39 53.36 23.96 52.57 23.53 51.94 22.89 51.48 22.04L51.16 23.85C51.1 24.03 51.04 24.16 50.98 24.25 50.91 24.34 50.78 24.38 50.58 24.38L49.79 24.38 52.74.01 54.3.01 52.67 13.34ZM51.73 20.93C51.98 21.38 52.25 21.75 52.56 22.06 52.87 22.37 53.19 22.62 53.54 22.81 53.89 23 54.25 23.14 54.62 23.22 54.99 23.3 55.38 23.35 55.77 23.35 56.47 23.35 57.13 23.21 57.74 22.92 58.35 22.64 58.9 22.25 59.4 21.76 59.9 21.27 60.34 20.7 60.72 20.04 61.1 19.39 61.43 18.7 61.69 17.97 61.95 17.24 62.15 16.5 62.29 15.73 62.43 14.96 62.5 14.22 62.5 13.49 62.5 11.99 62.21 10.83 61.65 10 61.09 9.17 60.25 8.75 59.15 8.75 58.51 8.75 57.87 8.93 57.23 9.29 56.59 9.65 55.97 10.15 55.38 10.8 54.79 11.45 54.23 12.23 53.71 13.14 53.18 14.06 52.72 15.07 52.32 16.19L51.73 20.93Z"/><polygon points="67.21 24.38 70.16 .01 71.72 .01 68.76 24.38"/><path d="M77.83 7.72 75.8 24.39 74.24 24.39 76.27 7.72 77.83 7.72 77.83 7.72ZM79.05 1.97C79.05 2.17 79.01 2.36 78.92 2.53 78.84 2.7 78.73 2.86 78.59 2.99 78.46 3.12 78.3 3.23 78.13 3.31 77.96 3.39 77.78 3.43 77.6 3.43 77.41 3.43 77.23 3.39 77.06 3.31 76.89 3.23 76.75 3.13 76.62 2.99 76.5 2.86 76.4 2.7 76.32 2.53 76.24 2.36 76.2 2.17 76.2 1.97 76.2 1.77 76.24 1.58 76.32 1.4 76.4 1.22 76.5 1.06 76.63.92 76.76.78 76.91.67 77.07.59 77.24.51 77.42.47 77.61.47 77.79.47 77.96.51 78.14.59 78.32.67 78.47.77 78.6.91 78.73 1.04 78.84 1.2 78.92 1.39 79.01 1.58 79.05 1.77 79.05 1.97ZM83.99 13.07C84.44 12.19 84.94 11.4 85.49 10.7 86.04 10 86.63 9.41 87.24 8.93 87.85 8.45 88.49 8.08 89.13 7.83 89.78 7.58 90.43 7.45 91.09 7.45 91.8 7.45 92.42 7.59 92.92 7.87 93.43 8.15 93.84 8.56 94.14 9.09 94.45 9.63 94.65 10.28 94.74 11.06 94.83 11.84 94.82 12.72 94.7 13.71L93.44 24.36 91.87 24.36 93.13 13.71C93.32 12.13 93.21 10.91 92.81 10.06 92.41 9.21 91.65 8.79 90.55 8.79 89.92 8.79 89.3 8.95 88.67 9.27 88.04 9.59 87.42 10.04 86.83 10.63 86.23 11.22 85.67 11.92 85.15 12.76 84.62 13.59 84.16 14.53 83.76 15.57L82.74 24.38 81.16 24.38 83.15 7.66 83.87 7.66C84.26 7.66 84.46 7.86 84.46 8.26L83.99 13.07ZM112.65 8.3 112.6 8.84C112.58 8.95 112.53 9.05 112.47 9.13 112.4 9.21 112.29 9.27 112.14 9.29L109.43 9.51C109.63 9.86 109.79 10.24 109.9 10.66 110.01 11.08 110.07 11.54 110.07 12.06 110.06 12.67 109.98 13.23 109.83 13.73 109.68 14.23 109.49 14.69 109.27 15.11 109.05 15.53 108.8 15.92 108.54 16.28 108.28 16.64 108.04 17 107.81 17.34 107.59 17.69 107.4 18.04 107.26 18.4 107.12 18.76 107.04 19.14 107.04 19.54 107.03 19.85 107.09 20.14 107.22 20.41 107.35 20.68 107.52 20.95 107.72 21.21 107.92 21.48 108.14 21.75 108.36 22.01 108.59 22.28 108.8 22.57 109 22.88 109.2 23.19 109.37 23.53 109.49 23.9 109.62 24.27 109.68 24.68 109.68 25.14 109.67 25.84 109.49 26.52 109.14 27.18 108.79 27.84 108.29 28.41 107.64 28.91 106.99 29.41 106.21 29.81 105.3 30.12 104.39 30.43 103.38 30.57 102.26 30.57 101.38 30.57 100.57 30.48 99.84 30.3 99.11 30.12 98.48 29.86 97.95 29.52 97.42 29.18 97.01 28.76 96.72 28.27 96.43 27.78 96.28 27.22 96.28 26.6 96.29 25.66 96.58 24.85 97.14 24.15 97.7 23.45 98.46 22.9 99.4 22.48 100.34 22.06 101.43 21.79 102.66 21.67 103.89 21.55 105.17 21.58 106.51 21.75 106.32 21.49 106.16 21.22 106.02 20.93 105.89 20.64 105.82 20.32 105.82 19.96 105.82 19.57 105.89 19.17 106.02 18.77 106.15 18.37 106.41 17.88 106.79 17.31 106.34 17.62 105.86 17.86 105.35 18.03 104.84 18.2 104.28 18.28 103.68 18.28 103.04 18.28 102.45 18.18 101.9 17.98 101.35 17.78 100.88 17.48 100.49 17.08 100.1 16.68 99.79 16.2 99.57 15.62 99.35 15.04 99.24 14.38 99.24 13.62 99.24 12.85 99.38 12.09 99.65 11.35 99.92 10.61 100.32 9.95 100.84 9.37 101.36 8.79 102 8.32 102.76 7.97 103.52 7.62 104.38 7.44 105.36 7.44 106.51 7.44 107.49 7.72 108.31 8.28L112.65 8.28 112.65 8.3ZM107.34 22.82C105.73 22.59 104.33 22.52 103.14 22.64 101.94 22.75 100.95 22.99 100.17 23.34 99.38 23.7 98.79 24.15 98.4 24.7 98.01 25.25 97.81 25.83 97.8 26.44 97.8 26.92 97.91 27.35 98.13 27.72 98.35 28.09 98.66 28.41 99.06 28.66 99.46 28.91 99.95 29.1 100.52 29.24 101.09 29.38 101.72 29.44 102.41 29.44 103.29 29.44 104.09 29.32 104.81 29.09 105.53 28.86 106.14 28.54 106.64 28.15 107.14 27.76 107.54 27.31 107.82 26.81 108.1 26.31 108.24 25.79 108.24 25.25 108.25 24.7 108.17 24.23 107.99 23.84 107.81 23.45 107.59 23.09 107.34 22.77L107.34 22.82ZM104.07 17.26C104.78 17.26 105.42 17.11 105.99 16.81 106.55 16.51 107.03 16.11 107.41 15.63 107.8 15.14 108.09 14.59 108.3 13.97 108.51 13.35 108.61 12.73 108.61 12.1 108.61 10.94 108.3 10.06 107.68 9.48 107.06 8.89 106.24 8.6 105.21 8.6 104.48 8.6 103.84 8.74 103.28 9.03 102.72 9.32 102.25 9.69 101.87 10.16 101.49 10.63 101.2 11.17 101 11.78 100.8 12.39 100.7 13.01 100.7 13.65 100.7 14.83 101 15.73 101.6 16.35 102.21 16.96 103.03 17.26 104.07 17.26ZM137.46.01 134.48 24.38 133.71 24.38C133.49 24.38 133.34 24.32 133.26 24.2 133.18 24.08 133.14 23.94 133.14 23.78L133.69 18.54C133.25 19.44 132.77 20.27 132.22 21.01 131.68 21.75 131.11 22.39 130.5 22.93 129.9 23.47 129.27 23.88 128.61 24.17 127.95 24.46 127.28 24.61 126.6 24.61 125.87 24.61 125.24 24.47 124.69 24.19 124.14 23.91 123.68 23.51 123.32 23 122.95 22.49 122.67 21.87 122.48 21.14 122.29 20.41 122.19 19.6 122.19 18.69 122.19 17.84 122.28 16.97 122.46 16.09 122.64 15.21 122.89 14.34 123.22 13.51 123.55 12.68 123.95 11.9 124.43 11.16 124.9 10.43 125.44 9.79 126.05 9.24 126.65 8.69 127.31 8.26 128.03 7.94 128.74 7.62 129.51 7.46 130.32 7.46 131.22 7.46 132.06 7.66 132.82 8.05 133.58 8.45 134.21 9.04 134.69 9.82L135.91-2.84217094e-14 137.46-2.84217094e-14 137.46.01ZM134.54 11.1C134.29 10.67 134.02 10.29 133.71 9.99 133.4 9.68 133.08 9.44 132.73 9.25 132.38 9.07 132.02 8.93 131.64 8.85 131.26 8.77 130.88 8.72 130.5 8.72 129.8 8.72 129.14 8.86 128.53 9.15 127.92 9.44 127.37 9.82 126.87 10.31 126.37 10.8 125.93 11.37 125.55 12.02 125.16 12.67 124.84 13.35 124.58 14.08 124.32 14.81 124.12 15.55 123.98 16.32 123.84 17.09 123.77 17.83 123.77 18.55 123.77 20.05 124.06 21.21 124.62 22.05 125.19 22.89 126.02 23.31 127.12 23.31 127.76 23.31 128.39 23.13 129.03 22.77 129.67 22.41 130.28 21.91 130.88 21.26 131.48 20.61 132.04 19.83 132.55 18.92 133.07 18.01 133.53 17 133.93 15.9L134.54 11.1ZM150.45 18.59C150.03 19.48 149.56 20.3 149.05 21.04 148.54 21.78 148 22.42 147.42 22.94 146.84 23.47 146.23 23.87 145.59 24.16 144.95 24.45 144.3 24.6 143.61 24.6 142.92 24.6 142.31 24.46 141.78 24.19 141.25 23.92 140.81 23.53 140.46 23.03 140.11 22.53 139.84 21.92 139.67 21.2 139.49 20.49 139.4 19.68 139.4 18.79 139.4 17.82 139.53 16.87 139.78 15.93 140.03 14.99 140.38 14.11 140.83 13.27 141.28 12.43 141.81 11.66 142.44 10.96 143.06 10.26 143.76 9.65 144.52 9.13 145.28 8.62 146.09 8.21 146.95 7.92 147.81 7.63 148.7 7.48 149.61 7.48 150.27 7.48 150.89 7.54 151.48 7.66 152.07 7.78 152.64 7.98 153.2 8.27L151.24 24.37 150.47 24.37C150.25 24.37 150.09 24.31 150.02 24.19 149.94 24.07 149.9 23.93 149.9 23.77L150.45 18.59ZM151.54 9.02C151.21 8.9 150.86 8.81 150.5 8.76 150.14 8.71 149.78 8.68 149.41 8.68 148.29 8.68 147.23 8.95 146.21 9.5 145.19 10.05 144.3 10.78 143.53 11.69 142.76 12.6 142.15 13.66 141.69 14.84 141.23 16.02 141 17.25 141 18.52 141 20.02 141.25 21.18 141.76 22.01 142.27 22.84 143.06 23.26 144.13 23.26 144.77 23.26 145.39 23.08 146.01 22.72 146.63 22.36 147.21 21.86 147.78 21.21 148.34 20.56 148.87 19.78 149.36 18.87 149.85 17.96 150.29 16.95 150.68 15.85L151.54 9.02ZM157.54 21.58C157.54 21.51 157.54 21.43 157.55 21.33 157.55 21.23 157.57 21.08 157.58 20.88 157.59 20.68 157.62 20.42 157.66 20.1 157.69 19.78 157.74 19.38 157.81 18.89L158.95 9.43 156.76 9.43C156.65 9.43 156.56 9.4 156.49 9.33 156.42 9.26 156.4 9.17 156.42 9.05L156.5 8.43 159.13 8.23 160.24 2.27C160.26 2.17 160.31 2.08 160.39 2 160.47 1.92 160.56 1.88 160.68 1.88L161.45 1.88 160.66 8.24 165.48 8.24 165.35 9.43 160.53 9.43 159.37 18.84C159.31 19.3 159.27 19.67 159.23 19.96 159.19 20.25 159.16 20.49 159.15 20.67 159.14 20.85 159.12 20.99 159.12 21.08 159.11 21.17 159.11 21.24 159.11 21.28 159.11 22.01 159.28 22.53 159.62 22.85 159.96 23.17 160.4 23.34 160.93 23.34 161.3 23.34 161.63 23.28 161.91 23.16 162.2 23.04 162.44 22.91 162.66 22.78 162.87 22.64 163.04 22.51 163.18 22.39 163.31 22.27 163.41 22.21 163.48 22.21 163.59 22.21 163.68 22.27 163.73 22.38L164.03 23.08C163.58 23.55 163.04 23.93 162.41 24.21 161.77 24.5 161.14 24.64 160.5 24.64 159.58 24.64 158.87 24.39 158.35 23.89 157.81 23.39 157.55 22.62 157.54 21.58ZM178.27 18.59C177.85 19.48 177.38 20.3 176.87 21.04 176.36 21.78 175.82 22.42 175.24 22.94 174.66 23.47 174.05 23.87 173.41 24.16 172.77 24.45 172.12 24.6 171.43 24.6 170.74 24.6 170.13 24.46 169.6 24.19 169.07 23.92 168.63 23.53 168.28 23.03 167.93 22.53 167.66 21.92 167.49 21.2 167.31 20.49 167.22 19.68 167.22 18.79 167.22 17.82 167.35 16.87 167.6 15.93 167.85 14.99 168.2 14.11 168.65 13.27 169.1 12.43 169.63 11.66 170.26 10.96 170.88 10.26 171.58 9.65 172.34 9.13 173.1 8.62 173.91 8.21 174.77 7.92 175.63 7.63 176.52 7.48 177.43 7.48 178.09 7.48 178.71 7.54 179.3 7.66 179.89 7.78 180.46 7.98 181.02 8.27L179.06 24.37 178.29 24.37C178.07 24.37 177.91 24.31 177.84 24.19 177.76 24.07 177.72 23.93 177.72 23.77L178.27 18.59ZM179.36 9.02C179.03 8.9 178.68 8.81 178.32 8.76 177.96 8.71 177.6 8.68 177.23 8.68 176.11 8.68 175.05 8.95 174.03 9.5 173.01 10.05 172.12 10.78 171.35 11.69 170.58 12.6 169.97 13.66 169.51 14.84 169.05 16.02 168.82 17.25 168.82 18.52 168.82 20.02 169.07 21.18 169.58 22.01 170.09 22.84 170.88 23.26 171.95 23.26 172.59 23.26 173.21 23.08 173.83 22.72 174.45 22.36 175.03 21.86 175.6 21.21 176.16 20.56 176.69 19.78 177.18 18.87 177.67 17.96 178.11 16.95 178.5 15.85L179.36 9.02ZM207.7.01 204.72 24.38 203.95 24.38C203.73 24.38 203.58 24.32 203.5 24.2 203.42 24.08 203.38 23.94 203.38 23.78L203.93 18.54C203.49 19.44 203.01 20.27 202.46 21.01 201.92 21.75 201.35 22.39 200.74 22.93 200.14 23.47 199.51 23.88 198.85 24.17 198.19 24.46 197.52 24.61 196.84 24.61 196.11 24.61 195.48 24.47 194.93 24.19 194.38 23.91 193.92 23.51 193.56 23 193.19 22.49 192.91 21.87 192.72 21.14 192.53 20.41 192.43 19.6 192.43 18.69 192.43 17.84 192.52 16.97 192.7 16.09 192.88 15.21 193.13 14.34 193.46 13.51 193.79 12.68 194.19 11.9 194.67 11.16 195.14 10.43 195.68 9.79 196.29 9.24 196.89 8.69 197.55 8.26 198.27 7.94 198.98 7.62 199.75 7.46 200.56 7.46 201.46 7.46 202.3 7.66 203.06 8.05 203.82 8.45 204.45 9.04 204.93 9.82L206.15-2.84217094e-14 207.7-2.84217094e-14 207.7.01ZM204.79 11.1C204.54 10.67 204.27 10.29 203.96 9.99 203.65 9.68 203.33 9.44 202.98 9.25 202.63 9.07 202.27 8.93 201.89 8.85 201.51 8.77 201.13 8.72 200.75 8.72 200.05 8.72 199.39 8.86 198.78 9.15 198.17 9.44 197.62 9.82 197.12 10.31 196.62 10.8 196.18 11.37 195.8 12.02 195.41 12.67 195.09 13.35 194.83 14.08 194.57 14.81 194.37 15.55 194.23 16.32 194.09 17.09 194.02 17.83 194.02 18.55 194.02 20.05 194.31 21.21 194.87 22.05 195.44 22.89 196.27 23.31 197.37 23.31 198.01 23.31 198.64 23.13 199.28 22.77 199.92 22.41 200.53 21.91 201.13 21.26 201.73 20.61 202.29 19.83 202.8 18.92 203.32 18.01 203.78 17 204.18 15.9L204.79 11.1ZM212.71 13.21C213.17 12.12 213.67 11.17 214.21 10.36 214.75 9.56 215.33 8.92 215.94 8.45 216.55 7.98 217.18 7.69 217.84 7.58 218.5 7.47 219.17 7.55 219.85 7.81L219.56 9.3C218.8 9.01 218.08 8.94 217.4 9.09 216.72 9.24 216.08 9.6 215.48 10.16 214.88 10.72 214.33 11.49 213.82 12.45 213.31 13.41 212.86 14.55 212.45 15.87L211.43 24.38 209.87 24.38 211.88 7.66 212.6 7.66C212.99 7.66 213.19 7.86 213.19 8.26L212.71 13.21ZM224.65 7.72 222.62 24.39 221.06 24.39 223.09 7.72 224.65 7.72 224.65 7.72ZM225.88 1.97C225.88 2.17 225.84 2.36 225.75 2.53 225.67 2.7 225.56 2.86 225.42 2.99 225.29 3.12 225.13 3.23 224.96 3.31 224.79 3.39 224.61 3.43 224.43 3.43 224.24 3.43 224.06 3.39 223.89 3.31 223.72 3.23 223.58 3.13 223.45 2.99 223.33 2.86 223.23 2.7 223.15 2.53 223.07 2.36 223.03 2.17 223.03 1.97 223.03 1.77 223.07 1.58 223.15 1.4 223.23 1.22 223.33 1.06 223.46.92 223.59.78 223.74.67 223.9.59 224.07.51 224.25.47 224.44.47 224.62.47 224.79.51 224.97.59 225.15.67 225.3.77 225.43.91 225.56 1.04 225.67 1.2 225.75 1.39 225.84 1.58 225.88 1.77 225.88 1.97ZM242.36 7.72 233.82 24.39 232.51 24.39 228.04 7.72 229.26 7.72C229.42 7.72 229.54 7.76 229.62 7.84 229.7 7.92 229.76 8.02 229.78 8.12L233.18 21.27C233.22 21.53 233.26 21.78 233.29 22.03 233.32 22.28 233.34 22.54 233.37 22.79 233.45 22.53 233.53 22.28 233.62 22.04 233.71 21.79 233.81 21.54 233.94 21.27L240.59 8.12C240.65 8 240.72 7.9 240.82 7.83 240.92 7.76 241.04 7.72 241.17 7.72L242.36 7.72 242.36 7.72ZM255.52 21.28C254.97 21.86 254.44 22.36 253.92 22.78 253.4 23.2 252.88 23.54 252.35 23.81 251.82 24.08 251.27 24.28 250.7 24.4 250.13 24.53 249.52 24.59 248.87 24.59 247.94 24.59 247.12 24.44 246.4 24.13 245.68 23.82 245.07 23.39 244.58 22.82 244.09 22.26 243.71 21.57 243.46 20.76 243.21 19.95 243.07 19.04 243.07 18.04 243.07 17.2 243.15 16.36 243.32 15.51 243.49 14.66 243.74 13.85 244.07 13.06 244.4 12.28 244.81 11.55 245.29 10.87 245.78 10.19 246.33 9.6 246.96 9.09 247.58 8.59 248.28 8.19 249.04 7.9 249.8 7.61 250.62 7.46 251.5 7.46 252.31 7.46 253 7.57 253.57 7.8 254.13 8.03 254.59 8.31 254.94 8.65 255.29 8.99 255.55 9.36 255.7 9.76 255.85 10.16 255.93 10.53 255.93 10.87 255.93 11.33 255.87 11.76 255.75 12.18 255.63 12.59 255.41 12.98 255.1 13.35 254.79 13.72 254.36 14.06 253.83 14.39 253.29 14.71 252.61 15.01 251.78 15.29 250.95 15.56 249.95 15.81 248.79 16.04 247.63 16.26 246.27 16.46 244.7 16.63 244.68 16.85 244.66 17.08 244.64 17.32 244.62 17.56 244.61 17.78 244.61 18.01 244.61 19.67 244.99 20.97 245.74 21.91 246.49 22.85 247.63 23.32 249.15 23.32 249.74 23.32 250.27 23.26 250.75 23.13 251.22 23 251.65 22.84 252.02 22.64 252.39 22.44 252.72 22.23 253.01 22 253.3 21.78 253.55 21.56 253.77 21.36 253.99 21.16 254.19 20.99 254.35 20.87 254.51 20.74 254.66 20.68 254.79 20.68 254.92 20.68 255.04 20.74 255.14 20.85L255.52 21.28ZM251.42 8.65C250.53 8.65 249.72 8.84 249 9.21 248.28 9.58 247.64 10.09 247.09 10.73 246.54 11.37 246.07 12.1 245.7 12.93 245.32 13.76 245.05 14.63 244.87 15.53 246.29 15.37 247.51 15.19 248.54 14.99 249.57 14.78 250.44 14.57 251.15 14.34 251.86 14.11 252.44 13.86 252.89 13.59 253.34 13.32 253.68 13.05 253.92 12.76 254.16 12.48 254.32 12.18 254.41 11.88 254.49 11.58 254.53 11.27 254.53 10.94 254.53 10.71 254.48 10.45 254.37 10.18 254.26 9.91 254.09 9.66 253.84 9.43 253.59 9.21 253.27 9.02 252.88 8.87 252.49 8.73 252 8.65 251.42 8.65ZM261.72 13.07C262.17 12.19 262.67 11.4 263.22 10.7 263.77 10 264.36 9.41 264.97 8.93 265.58 8.45 266.22 8.08 266.86 7.83 267.51 7.58 268.16 7.45 268.82 7.45 269.53 7.45 270.15 7.59 270.65 7.87 271.16 8.15 271.57 8.56 271.87 9.09 272.18 9.63 272.38 10.28 272.47 11.06 272.56 11.84 272.55 12.72 272.43 13.71L271.17 24.36 269.6 24.36 270.86 13.71C271.05 12.13 270.94 10.91 270.54 10.06 270.14 9.21 269.38 8.79 268.28 8.79 267.65 8.79 267.03 8.95 266.4 9.27 265.77 9.59 265.15 10.04 264.56 10.63 263.96 11.22 263.4 11.92 262.88 12.76 262.35 13.59 261.89 14.53 261.49 15.57L260.47 24.38 258.89 24.38 260.88 7.66 261.6 7.66C261.99 7.66 262.19 7.86 262.19 8.26L261.72 13.07ZM287.58 12.72C288.03 11.89 288.52 11.15 289.06 10.5 289.6 9.85 290.17 9.29 290.77 8.84 291.37 8.39 291.98 8.04 292.61 7.81 293.24 7.58 293.87 7.46 294.49 7.46 295.22 7.46 295.84 7.6 296.35 7.88 296.86 8.16 297.27 8.57 297.57 9.1 297.87 9.64 298.07 10.29 298.16 11.07 298.25 11.85 298.24 12.73 298.12 13.72L296.86 24.37 295.28 24.37 296.54 13.72C296.73 12.14 296.62 10.91 296.22 10.06 295.82 9.21 295.06 8.78 293.96 8.78 293.36 8.78 292.74 8.93 292.12 9.24 291.49 9.55 290.89 9.99 290.3 10.56 289.71 11.13 289.16 11.82 288.63 12.63 288.1 13.44 287.64 14.35 287.24 15.35L286.15 24.38 284.57 24.38 287.52.01 289.09.01 287.58 12.72ZM314.21 21.28C313.66 21.86 313.13 22.36 312.61 22.78 312.09 23.2 311.57 23.54 311.04 23.81 310.51 24.08 309.96 24.28 309.39 24.4 308.82 24.53 308.21 24.59 307.56 24.59 306.63 24.59 305.81 24.44 305.09 24.13 304.37 23.82 303.76 23.39 303.27 22.82 302.78 22.26 302.4 21.57 302.15 20.76 301.9 19.95 301.76 19.04 301.76 18.04 301.76 17.2 301.84 16.36 302.01 15.51 302.18 14.66 302.43 13.85 302.76 13.06 303.09 12.28 303.5 11.55 303.98 10.87 304.47 10.19 305.02 9.6 305.65 9.09 306.27 8.59 306.97 8.19 307.73 7.9 308.49 7.61 309.31 7.46 310.19 7.46 311 7.46 311.69 7.57 312.26 7.8 312.82 8.03 313.28 8.31 313.63 8.65 313.98 8.99 314.24 9.36 314.39 9.76 314.54 10.16 314.62 10.53 314.62 10.87 314.62 11.33 314.56 11.76 314.44 12.18 314.32 12.59 314.1 12.98 313.79 13.35 313.48 13.72 313.05 14.06 312.52 14.39 311.98 14.71 311.3 15.01 310.47 15.29 309.64 15.56 308.64 15.81 307.48 16.04 306.32 16.26 304.96 16.46 303.39 16.63 303.37 16.85 303.35 17.08 303.33 17.32 303.31 17.56 303.3 17.78 303.3 18.01 303.3 19.67 303.68 20.97 304.43 21.91 305.18 22.85 306.32 23.32 307.84 23.32 308.43 23.32 308.96 23.26 309.44 23.13 309.91 23 310.34 22.84 310.71 22.64 311.08 22.44 311.41 22.23 311.7 22 311.99 21.78 312.24 21.56 312.46 21.36 312.68 21.16 312.88 20.99 313.04 20.87 313.2 20.74 313.35 20.68 313.48 20.68 313.61 20.68 313.73 20.74 313.83 20.85L314.21 21.28ZM310.11 8.65C309.22 8.65 308.41 8.84 307.69 9.21 306.97 9.58 306.33 10.09 305.78 10.73 305.23 11.37 304.76 12.1 304.39 12.93 304.01 13.76 303.74 14.63 303.56 15.53 304.98 15.37 306.2 15.19 307.23 14.99 308.26 14.78 309.13 14.57 309.84 14.34 310.55 14.11 311.13 13.86 311.58 13.59 312.03 13.32 312.37 13.05 312.61 12.76 312.85 12.48 313.01 12.18 313.1 11.88 313.18 11.58 313.22 11.27 313.22 10.94 313.22 10.71 313.17 10.45 313.06 10.18 312.95 9.91 312.78 9.66 312.53 9.43 312.28 9.21 311.96 9.02 311.57 8.87 311.18 8.73 310.69 8.65 310.11 8.65ZM328.39 18.59C327.97 19.48 327.5 20.3 326.99 21.04 326.48 21.78 325.94 22.42 325.36 22.94 324.78 23.47 324.17 23.87 323.53 24.16 322.89 24.45 322.24 24.6 321.55 24.6 320.86 24.6 320.25 24.46 319.72 24.19 319.19 23.92 318.75 23.53 318.4 23.03 318.05 22.53 317.78 21.92 317.61 21.2 317.43 20.49 317.34 19.68 317.34 18.79 317.34 17.82 317.47 16.87 317.72 15.93 317.97 14.99 318.32 14.11 318.77 13.27 319.22 12.43 319.75 11.66 320.38 10.96 321 10.26 321.7 9.65 322.46 9.13 323.22 8.62 324.03 8.21 324.89 7.92 325.75 7.63 326.64 7.48 327.55 7.48 328.21 7.48 328.83 7.54 329.42 7.66 330.01 7.78 330.58 7.98 331.14 8.27L329.18 24.37 328.41 24.37C328.19 24.37 328.03 24.31 327.96 24.19 327.88 24.07 327.84 23.93 327.84 23.77L328.39 18.59ZM329.47 9.02C329.14 8.9 328.79 8.81 328.43 8.76 328.07 8.71 327.71 8.68 327.34 8.68 326.22 8.68 325.16 8.95 324.14 9.5 323.12 10.05 322.23 10.78 321.46 11.69 320.69 12.6 320.08 13.66 319.62 14.84 319.16 16.02 318.93 17.25 318.93 18.52 318.93 20.02 319.18 21.18 319.69 22.01 320.2 22.84 320.99 23.26 322.06 23.26 322.7 23.26 323.32 23.08 323.94 22.72 324.56 22.36 325.14 21.86 325.71 21.21 326.27 20.56 326.8 19.78 327.29 18.87 327.78 17.96 328.22 16.95 328.61 15.85L329.47 9.02Z"/><polygon points="334.42 24.38 337.37 .01 338.93 .01 335.97 24.38"/><path d="M342.47 21.58C342.47 21.51 342.47 21.43 342.48 21.33 342.48 21.23 342.5 21.08 342.51 20.88 342.52 20.68 342.55 20.42 342.59 20.1 342.62 19.78 342.67 19.38 342.74 18.89L343.88 9.43 341.69 9.43C341.58 9.43 341.49 9.4 341.42 9.33 341.35 9.26 341.33 9.17 341.35 9.05L341.43 8.43 344.06 8.23 345.17 2.27C345.19 2.17 345.24 2.08 345.32 2 345.4 1.92 345.49 1.88 345.61 1.88L346.38 1.88 345.59 8.24 350.41 8.24 350.28 9.43 345.46 9.43 344.3 18.84C344.24 19.3 344.2 19.67 344.16 19.96 344.12 20.25 344.09 20.49 344.08 20.67 344.07 20.85 344.05 20.99 344.05 21.08 344.04 21.17 344.04 21.24 344.04 21.28 344.04 22.01 344.21 22.53 344.55 22.85 344.89 23.17 345.33 23.34 345.86 23.34 346.23 23.34 346.56 23.28 346.84 23.16 347.13 23.04 347.37 22.91 347.59 22.78 347.8 22.64 347.97 22.51 348.11 22.39 348.24 22.27 348.34 22.21 348.41 22.21 348.52 22.21 348.61 22.27 348.66 22.38L348.96 23.08C348.51 23.55 347.97 23.93 347.34 24.21 346.7 24.5 346.07 24.64 345.43 24.64 344.51 24.64 343.8 24.39 343.28 23.89 342.75 23.39 342.48 22.62 342.47 21.58ZM355.67 12.72C356.12 11.89 356.61 11.15 357.15 10.5 357.69 9.85 358.26 9.29 358.86 8.84 359.46 8.39 360.07 8.04 360.7 7.81 361.33 7.58 361.96 7.46 362.58 7.46 363.31 7.46 363.93 7.6 364.44 7.88 364.95 8.16 365.36 8.57 365.66 9.1 365.96 9.64 366.16 10.29 366.25 11.07 366.34 11.85 366.33 12.73 366.21 13.72L364.95 24.37 363.37 24.37 364.63 13.72C364.82 12.14 364.71 10.91 364.31 10.06 363.91 9.21 363.15 8.78 362.05 8.78 361.45 8.78 360.83 8.93 360.21 9.24 359.58 9.55 358.98 9.99 358.39 10.56 357.8 11.13 357.25 11.82 356.72 12.63 356.19 13.44 355.73 14.35 355.33 15.35L354.24 24.38 352.66 24.38 355.61.01 357.18.01 355.67 12.72ZM396.99 24.38 395.7 24.38C395.42 24.38 395.21 24.35 395.06 24.28 394.91 24.21 394.76 24.08 394.61 23.9L392.03 20.72C391.5 21.29 390.94 21.82 390.34 22.3 389.74 22.79 389.09 23.2 388.41 23.55 387.73 23.9 387.01 24.17 386.27 24.36 385.53 24.55 384.75 24.65 383.94 24.65 383.16 24.65 382.42 24.53 381.73 24.27 381.04 24.02 380.43 23.66 379.91 23.18 379.39 22.71 378.98 22.12 378.68 21.43 378.38 20.74 378.23 19.96 378.23 19.09 378.23 18.17 378.39 17.31 378.72 16.5 379.05 15.69 379.48 14.95 380.04 14.27 380.6 13.59 381.25 13 382 12.49 382.75 11.98 383.55 11.55 384.4 11.22 383.86 10.44 383.46 9.68 383.19 8.93 382.92 8.19 382.79 7.43 382.79 6.64 382.79 5.75 382.94 4.92 383.24 4.16 383.54 3.4 383.97 2.74 384.51 2.18 385.06 1.62 385.71 1.19 386.47.87 387.23.56 388.07.4 388.98.4 389.68.4 390.32.52 390.9.75 391.48.98 391.97 1.31 392.38 1.73 392.79 2.15 393.11 2.65 393.34 3.23 393.56 3.81 393.67 4.45 393.67 5.14L392.82 5.29C392.53 5.35 392.36 5.22 392.3 4.9 392.28 4.58 392.2 4.22 392.07 3.84 391.94 3.46 391.73 3.1 391.46 2.77 391.19 2.44 390.84 2.17 390.41 1.95 389.99 1.73 389.47 1.62 388.87 1.62 388.18 1.62 387.55 1.74 386.99 1.99 386.43 2.24 385.94 2.57 385.53 3 385.12 3.43 384.81 3.94 384.58 4.52 384.36 5.11 384.25 5.75 384.25 6.44 384.25 7.21 384.42 7.99 384.77 8.79 385.12 9.59 385.62 10.39 386.29 11.2L392.2 18.47C392.75 17.66 393.2 16.82 393.56 15.97 393.92 15.12 394.18 14.29 394.34 13.5 394.4 13.22 394.55 13.08 394.79 13.08L395.81 13.08C395.65 14.13 395.34 15.21 394.86 16.32 394.39 17.43 393.77 18.5 393.03 19.51L396.99 24.38ZM385.02 12.04C384.23 12.37 383.51 12.78 382.88 13.26 382.24 13.74 381.7 14.27 381.25 14.86 380.8 15.45 380.45 16.08 380.2 16.76 379.95 17.44 379.83 18.15 379.83 18.89 379.83 19.63 379.96 20.28 380.22 20.84 380.48 21.4 380.81 21.88 381.22 22.26 381.63 22.64 382.1 22.92 382.64 23.11 383.17 23.3 383.72 23.4 384.27 23.4 384.96 23.4 385.63 23.31 386.28 23.12 386.93 22.94 387.54 22.68 388.13 22.35 388.72 22.02 389.27 21.63 389.8 21.19 390.32 20.74 390.81 20.26 391.26 19.73L385.15 12.19 385.02 12.04Z"/><polygon points="408.55 24.38 411.5 .01 413.06 .01 410.1 24.38"/><path d="M419.17 7.72 417.14 24.39 415.58 24.39 417.61 7.72 419.17 7.72 419.17 7.72ZM420.39 1.97C420.39 2.17 420.35 2.36 420.26 2.53 420.18 2.7 420.07 2.86 419.93 2.99 419.8 3.12 419.64 3.23 419.47 3.31 419.3 3.39 419.12 3.43 418.94 3.43 418.75 3.43 418.57 3.39 418.4 3.31 418.23 3.23 418.09 3.13 417.96 2.99 417.84 2.86 417.74 2.7 417.66 2.53 417.58 2.36 417.54 2.17 417.54 1.97 417.54 1.77 417.58 1.58 417.66 1.4 417.74 1.22 417.84 1.06 417.97.92 418.1.78 418.25.67 418.41.59 418.58.51 418.76.47 418.95.47 419.13.47 419.3.51 419.48.59 419.66.67 419.81.77 419.94.91 420.07 1.04 420.18 1.2 420.26 1.39 420.35 1.58 420.39 1.77 420.39 1.97ZM426.67 9.41 424.89 24.03 424.19 27.88C424.06 28.34 423.78 28.57 423.37 28.57L422.8 28.57 425.13 9.42 423.04 9.29C422.91 9.27 422.81 9.22 422.74 9.16 422.67 9.09 422.64 8.99 422.66 8.86L422.73 8.24 425.28 8.24 425.55 6.13C425.67 5.18 425.9 4.35 426.22 3.63 426.54 2.91 426.95 2.31 427.43 1.83 427.92 1.35 428.47.99 429.08.75 429.69.51 430.35.39 431.06.39 431.37.39 431.68.42 431.99.48 432.3.54 432.58.63 432.84.74L432.67 1.54C432.65 1.63 432.6 1.68 432.52 1.7 432.44 1.72 432.34 1.72 432.21 1.7 432.08 1.68 431.93 1.66 431.75 1.63 431.57 1.6 431.37 1.59 431.13 1.59 430.62 1.59 430.14 1.67 429.69 1.84 429.24 2.01 428.84 2.27 428.48 2.64 428.12 3 427.82 3.47 427.57 4.06 427.32 4.64 427.15 5.35 427.05 6.19L426.78 8.25 431.49 8.25 431.32 9.42 426.67 9.42 426.67 9.41ZM444.51 21.28C443.96 21.86 443.43 22.36 442.91 22.78 442.39 23.2 441.87 23.54 441.34 23.81 440.81 24.08 440.26 24.28 439.69 24.4 439.12 24.53 438.51 24.59 437.86 24.59 436.93 24.59 436.11 24.44 435.39 24.13 434.67 23.82 434.06 23.39 433.57 22.82 433.08 22.26 432.7 21.57 432.45 20.76 432.2 19.95 432.06 19.04 432.06 18.04 432.06 17.2 432.14 16.36 432.31 15.51 432.48 14.66 432.73 13.85 433.06 13.06 433.39 12.28 433.8 11.55 434.28 10.87 434.77 10.19 435.32 9.6 435.95 9.09 436.57 8.59 437.27 8.19 438.03 7.9 438.79 7.61 439.61 7.46 440.49 7.46 441.3 7.46 441.99 7.57 442.56 7.8 443.12 8.03 443.58 8.31 443.93 8.65 444.28 8.99 444.54 9.36 444.69 9.76 444.84 10.16 444.92 10.53 444.92 10.87 444.92 11.33 444.86 11.76 444.74 12.18 444.62 12.59 444.4 12.98 444.09 13.35 443.78 13.72 443.35 14.06 442.82 14.39 442.28 14.71 441.6 15.01 440.77 15.29 439.94 15.56 438.94 15.81 437.78 16.04 436.62 16.26 435.26 16.46 433.69 16.63 433.67 16.85 433.65 17.08 433.63 17.32 433.61 17.56 433.6 17.78 433.6 18.01 433.6 19.67 433.98 20.97 434.73 21.91 435.48 22.85 436.62 23.32 438.14 23.32 438.73 23.32 439.26 23.26 439.74 23.13 440.21 23 440.64 22.84 441.01 22.64 441.38 22.44 441.71 22.23 442 22 442.29 21.78 442.54 21.56 442.76 21.36 442.98 21.16 443.18 20.99 443.34 20.87 443.5 20.74 443.65 20.68 443.78 20.68 443.91 20.68 444.03 20.74 444.13 20.85L444.51 21.28ZM440.41 8.65C439.52 8.65 438.71 8.84 437.99 9.21 437.27 9.58 436.63 10.09 436.08 10.73 435.53 11.37 435.06 12.1 434.69 12.93 434.31 13.76 434.04 14.63 433.86 15.53 435.28 15.37 436.5 15.19 437.53 14.99 438.56 14.78 439.43 14.57 440.14 14.34 440.85 14.11 441.43 13.86 441.88 13.59 442.33 13.32 442.67 13.05 442.91 12.76 443.15 12.48 443.31 12.18 443.4 11.88 443.48 11.58 443.52 11.27 443.52 10.94 443.52 10.71 443.47 10.45 443.36 10.18 443.25 9.91 443.08 9.66 442.83 9.43 442.58 9.21 442.26 9.02 441.87 8.87 441.48 8.73 440.99 8.65 440.41 8.65ZM466.62 9.76C466.53 9.92 466.41 9.99 466.25 9.99 466.14 9.99 466 9.92 465.84 9.78 465.68 9.64 465.46 9.48 465.19 9.31 464.92 9.14 464.57 8.98 464.16 8.84 463.75 8.7 463.23 8.63 462.62 8.63 462.05 8.63 461.51 8.72 461 8.92 460.49 9.11 460.05 9.36 459.68 9.68 459.31 10 459.01 10.37 458.79 10.79 458.57 11.21 458.46 11.65 458.46 12.12 458.46 12.58 458.57 12.96 458.78 13.28 458.99 13.59 459.27 13.86 459.63 14.09 459.98 14.32 460.38 14.52 460.82 14.68 461.26 14.85 461.72 15.01 462.19 15.18 462.66 15.35 463.11 15.53 463.56 15.74 464 15.95 464.4 16.2 464.75 16.49 465.1 16.78 465.38 17.14 465.6 17.55 465.81 17.97 465.92 18.47 465.92 19.07 465.92 19.78 465.78 20.48 465.49 21.15 465.2 21.82 464.8 22.41 464.27 22.93 463.74 23.45 463.1 23.87 462.36 24.18 461.62 24.49 460.79 24.65 459.87 24.65 458.8 24.65 457.9 24.46 457.16 24.09 456.42 23.72 455.8 23.23 455.28 22.62L455.68 22.05C455.8 21.87 455.95 21.78 456.13 21.78 456.24 21.78 456.38 21.87 456.55 22.05 456.72 22.23 456.95 22.43 457.24 22.64 457.53 22.86 457.9 23.06 458.36 23.23 458.82 23.4 459.39 23.5 460.09 23.5 460.76 23.5 461.37 23.39 461.91 23.17 462.45 22.95 462.91 22.65 463.3 22.27 463.69 21.89 463.98 21.45 464.2 20.96 464.41 20.46 464.52 19.94 464.52 19.38 464.52 18.89 464.41 18.47 464.2 18.14 463.99 17.81 463.71 17.52 463.35 17.28 463 17.04 462.6 16.84 462.16 16.67 461.72 16.5 461.26 16.34 460.79 16.18 460.32 16.02 459.87 15.84 459.42 15.64 458.97 15.44 458.58 15.21 458.23 14.93 457.88 14.65 457.6 14.31 457.38 13.91 457.16 13.51 457.06 13.02 457.06 12.44 457.06 11.79 457.2 11.17 457.48 10.57 457.76 9.97 458.15 9.44 458.65 8.98 459.15 8.52 459.75 8.15 460.45 7.87 461.15 7.6 461.91 7.46 462.74 7.46 463.68 7.46 464.49 7.61 465.18 7.9 465.87 8.19 466.48 8.63 467.01 9.21L466.62 9.76ZM479.84 22.96C479.31 23.38 478.79 23.72 478.28 23.96 477.77 24.21 477.26 24.37 476.73 24.46 476.21 24.55 475.65 24.59 475.06 24.59 474.1 24.59 473.27 24.42 472.56 24.1 471.85 23.78 471.26 23.31 470.79 22.72 470.32 22.13 469.97 21.43 469.74 20.61 469.51 19.79 469.39 18.91 469.39 17.95 469.39 17.07 469.48 16.19 469.67 15.33 469.85 14.46 470.12 13.64 470.46 12.86 470.81 12.08 471.22 11.36 471.72 10.7 472.21 10.04 472.76 9.47 473.38 8.99 473.99 8.51 474.66 8.13 475.38 7.86 476.1 7.59 476.87 7.45 477.68 7.45 478.23 7.45 478.72 7.5 479.16 7.61 479.6 7.72 480.01 7.87 480.37 8.06 480.74 8.26 481.07 8.49 481.37 8.77 481.67 9.05 481.95 9.36 482.21 9.71L481.74 10.26C481.64 10.38 481.52 10.44 481.39 10.44 481.28 10.44 481.14 10.35 480.98 10.17 480.82 9.99 480.6 9.8 480.33 9.59 480.06 9.38 479.7 9.19 479.27 9.01 478.84 8.83 478.29 8.74 477.63 8.74 476.69 8.74 475.82 8.99 475.01 9.49 474.2 9.99 473.5 10.67 472.9 11.52 472.3 12.37 471.83 13.35 471.49 14.46 471.15 15.57 470.98 16.73 470.98 17.94 470.98 18.71 471.07 19.43 471.24 20.08 471.41 20.74 471.68 21.31 472.04 21.79 472.4 22.27 472.86 22.64 473.41 22.91 473.96 23.18 474.6 23.31 475.35 23.31 475.94 23.31 476.47 23.25 476.94 23.12 477.41 22.99 477.82 22.83 478.19 22.64 478.55 22.45 478.87 22.24 479.15 22.01 479.42 21.78 479.67 21.57 479.88 21.38 480.09 21.19 480.27 21.03 480.42 20.9 480.57 20.77 480.71 20.71 480.83 20.71 480.95 20.71 481.07 20.77 481.18 20.88L481.53 21.32C480.94 21.99 480.37 22.53 479.84 22.96ZM488.5 7.72 486.47 24.39 484.91 24.39 486.94 7.72 488.5 7.72 488.5 7.72ZM489.72 1.97C489.72 2.17 489.68 2.36 489.59 2.53 489.51 2.7 489.4 2.86 489.26 2.99 489.13 3.12 488.97 3.23 488.8 3.31 488.63 3.39 488.45 3.43 488.27 3.43 488.08 3.43 487.9 3.39 487.73 3.31 487.56 3.23 487.42 3.13 487.29 2.99 487.17 2.86 487.07 2.7 486.99 2.53 486.91 2.36 486.87 2.17 486.87 1.97 486.87 1.77 486.91 1.58 486.99 1.4 487.07 1.22 487.17 1.06 487.3.92 487.43.78 487.58.67 487.74.59 487.91.51 488.09.47 488.28.47 488.46.47 488.63.51 488.81.59 488.99.67 489.14.77 489.27.91 489.4 1.04 489.51 1.2 489.59 1.39 489.68 1.58 489.72 1.77 489.72 1.97ZM504.16 21.28C503.61 21.86 503.08 22.36 502.56 22.78 502.04 23.2 501.52 23.54 500.99 23.81 500.46 24.08 499.91 24.28 499.34 24.4 498.77 24.53 498.16 24.59 497.51 24.59 496.58 24.59 495.76 24.44 495.04 24.13 494.32 23.82 493.71 23.39 493.22 22.82 492.73 22.26 492.35 21.57 492.1 20.76 491.85 19.95 491.71 19.04 491.71 18.04 491.71 17.2 491.79 16.36 491.96 15.51 492.13 14.66 492.38 13.85 492.71 13.06 493.04 12.28 493.45 11.55 493.93 10.87 494.42 10.19 494.97 9.6 495.6 9.09 496.22 8.59 496.92 8.19 497.68 7.9 498.44 7.61 499.26 7.46 500.14 7.46 500.95 7.46 501.64 7.57 502.21 7.8 502.77 8.03 503.23 8.31 503.58 8.65 503.93 8.99 504.19 9.36 504.34 9.76 504.49 10.16 504.57 10.53 504.57 10.87 504.57 11.33 504.51 11.76 504.39 12.18 504.27 12.59 504.05 12.98 503.74 13.35 503.43 13.72 503 14.06 502.47 14.39 501.93 14.71 501.25 15.01 500.42 15.29 499.59 15.56 498.59 15.81 497.43 16.04 496.27 16.26 494.91 16.46 493.34 16.63 493.32 16.85 493.3 17.08 493.28 17.32 493.26 17.56 493.25 17.78 493.25 18.01 493.25 19.67 493.63 20.97 494.38 21.91 495.13 22.85 496.27 23.32 497.79 23.32 498.38 23.32 498.91 23.26 499.39 23.13 499.86 23 500.29 22.84 500.66 22.64 501.03 22.44 501.36 22.23 501.65 22 501.94 21.78 502.19 21.56 502.41 21.36 502.63 21.16 502.83 20.99 502.99 20.87 503.15 20.74 503.3 20.68 503.43 20.68 503.56 20.68 503.68 20.74 503.78 20.85L504.16 21.28ZM500.05 8.65C499.16 8.65 498.35 8.84 497.63 9.21 496.91 9.58 496.27 10.09 495.72 10.73 495.17 11.37 494.7 12.1 494.33 12.93 493.95 13.76 493.68 14.63 493.5 15.53 494.92 15.37 496.14 15.19 497.17 14.99 498.2 14.78 499.07 14.57 499.78 14.34 500.49 14.11 501.07 13.86 501.52 13.59 501.97 13.32 502.31 13.05 502.55 12.76 502.79 12.48 502.95 12.18 503.04 11.88 503.12 11.58 503.16 11.27 503.16 10.94 503.16 10.71 503.11 10.45 503 10.18 502.89 9.91 502.72 9.66 502.47 9.43 502.22 9.21 501.9 9.02 501.51 8.87 501.12 8.73 500.63 8.65 500.05 8.65ZM510.35 13.07C510.8 12.19 511.3 11.4 511.85 10.7 512.4 10 512.99 9.41 513.6 8.93 514.21 8.45 514.85 8.08 515.49 7.83 516.14 7.58 516.79 7.45 517.45 7.45 518.16 7.45 518.78 7.59 519.28 7.87 519.79 8.15 520.2 8.56 520.5 9.09 520.81 9.63 521.01 10.28 521.1 11.06 521.19 11.84 521.18 12.72 521.06 13.71L519.8 24.36 518.23 24.36 519.49 13.71C519.68 12.13 519.57 10.91 519.17 10.06 518.77 9.21 518.01 8.79 516.91 8.79 516.28 8.79 515.66 8.95 515.03 9.27 514.4 9.59 513.78 10.04 513.19 10.63 512.59 11.22 512.03 11.92 511.51 12.76 510.98 13.59 510.52 14.53 510.12 15.57L509.1 24.38 507.52 24.38 509.51 7.66 510.23 7.66C510.62 7.66 510.82 7.86 510.82 8.26L510.35 13.07ZM535.17 22.96C534.64 23.38 534.12 23.72 533.61 23.96 533.1 24.21 532.59 24.37 532.06 24.46 531.54 24.55 530.98 24.59 530.39 24.59 529.43 24.59 528.6 24.42 527.89 24.1 527.18 23.78 526.59 23.31 526.12 22.72 525.65 22.13 525.3 21.43 525.07 20.61 524.84 19.79 524.72 18.91 524.72 17.95 524.72 17.07 524.81 16.19 525 15.33 525.18 14.46 525.45 13.64 525.79 12.86 526.14 12.08 526.55 11.36 527.05 10.7 527.54 10.04 528.09 9.47 528.71 8.99 529.32 8.51 529.99 8.13 530.71 7.86 531.43 7.59 532.2 7.45 533.01 7.45 533.56 7.45 534.05 7.5 534.49 7.61 534.93 7.72 535.34 7.87 535.7 8.06 536.07 8.26 536.4 8.49 536.7 8.77 537 9.05 537.28 9.36 537.54 9.71L537.07 10.26C536.97 10.38 536.85 10.44 536.72 10.44 536.61 10.44 536.47 10.35 536.31 10.17 536.15 9.99 535.93 9.8 535.66 9.59 535.39 9.38 535.03 9.19 534.6 9.01 534.17 8.83 533.62 8.74 532.96 8.74 532.02 8.74 531.15 8.99 530.34 9.49 529.53 9.99 528.83 10.67 528.23 11.52 527.63 12.37 527.16 13.35 526.82 14.46 526.48 15.57 526.31 16.73 526.31 17.94 526.31 18.71 526.4 19.43 526.57 20.08 526.74 20.74 527.01 21.31 527.37 21.79 527.73 22.27 528.19 22.64 528.74 22.91 529.29 23.18 529.93 23.31 530.68 23.31 531.27 23.31 531.8 23.25 532.27 23.12 532.74 22.99 533.15 22.83 533.52 22.64 533.88 22.45 534.2 22.24 534.48 22.01 534.75 21.78 535 21.57 535.21 21.38 535.42 21.19 535.6 21.03 535.75 20.9 535.9 20.77 536.04 20.71 536.16 20.71 536.28 20.71 536.4 20.77 536.51 20.88L536.86 21.32C536.26 21.99 535.7 22.53 535.17 22.96ZM552.11 21.28C551.56 21.86 551.03 22.36 550.51 22.78 549.99 23.2 549.47 23.54 548.94 23.81 548.41 24.08 547.86 24.28 547.29 24.4 546.72 24.53 546.11 24.59 545.46 24.59 544.53 24.59 543.71 24.44 542.99 24.13 542.27 23.82 541.66 23.39 541.17 22.82 540.68 22.26 540.3 21.57 540.05 20.76 539.8 19.95 539.66 19.04 539.66 18.04 539.66 17.2 539.74 16.36 539.91 15.51 540.08 14.66 540.33 13.85 540.66 13.06 540.99 12.28 541.4 11.55 541.88 10.87 542.37 10.19 542.92 9.6 543.55 9.09 544.17 8.59 544.87 8.19 545.63 7.9 546.39 7.61 547.21 7.46 548.09 7.46 548.9 7.46 549.59 7.57 550.16 7.8 550.72 8.03 551.18 8.31 551.53 8.65 551.88 8.99 552.14 9.36 552.29 9.76 552.44 10.16 552.52 10.53 552.52 10.87 552.52 11.33 552.46 11.76 552.34 12.18 552.22 12.59 552 12.98 551.69 13.35 551.38 13.72 550.95 14.06 550.42 14.39 549.88 14.71 549.2 15.01 548.37 15.29 547.54 15.56 546.54 15.81 545.38 16.04 544.22 16.26 542.86 16.46 541.29 16.63 541.27 16.85 541.25 17.08 541.23 17.32 541.21 17.56 541.2 17.78 541.2 18.01 541.2 19.67 541.58 20.97 542.33 21.91 543.08 22.85 544.22 23.32 545.74 23.32 546.33 23.32 546.86 23.26 547.34 23.13 547.81 23 548.24 22.84 548.61 22.64 548.98 22.44 549.31 22.23 549.6 22 549.89 21.78 550.14 21.56 550.36 21.36 550.58 21.16 550.78 20.99 550.94 20.87 551.1 20.74 551.25 20.68 551.38 20.68 551.51 20.68 551.63 20.74 551.73 20.85L552.11 21.28ZM548.01 8.65C547.12 8.65 546.31 8.84 545.59 9.21 544.87 9.58 544.23 10.09 543.68 10.73 543.13 11.37 542.66 12.1 542.29 12.93 541.91 13.76 541.64 14.63 541.46 15.53 542.88 15.37 544.1 15.19 545.13 14.99 546.16 14.78 547.03 14.57 547.74 14.34 548.45 14.11 549.03 13.86 549.48 13.59 549.93 13.32 550.27 13.05 550.51 12.76 550.75 12.48 550.91 12.18 551 11.88 551.08 11.58 551.12 11.27 551.12 10.94 551.12 10.71 551.07 10.45 550.96 10.18 550.85 9.91 550.68 9.66 550.43 9.43 550.18 9.21 549.86 9.02 549.47 8.87 549.08 8.73 548.59 8.65 548.01 8.65ZM565.78 9.76C565.69 9.92 565.57 9.99 565.41 9.99 565.3 9.99 565.16 9.92 565 9.78 564.84 9.64 564.62 9.48 564.35 9.31 564.08 9.14 563.73 8.98 563.32 8.84 562.91 8.7 562.39 8.63 561.78 8.63 561.21 8.63 560.67 8.72 560.16 8.92 559.65 9.11 559.21 9.36 558.84 9.68 558.47 10 558.17 10.37 557.95 10.79 557.73 11.21 557.62 11.65 557.62 12.12 557.62 12.58 557.73 12.96 557.94 13.28 558.15 13.59 558.43 13.86 558.79 14.09 559.14 14.32 559.54 14.52 559.98 14.68 560.42 14.85 560.88 15.01 561.35 15.18 561.82 15.35 562.27 15.53 562.72 15.74 563.16 15.95 563.56 16.2 563.91 16.49 564.26 16.78 564.54 17.14 564.76 17.55 564.97 17.97 565.08 18.47 565.08 19.07 565.08 19.78 564.94 20.48 564.65 21.15 564.36 21.82 563.96 22.41 563.43 22.93 562.9 23.45 562.26 23.87 561.52 24.18 560.78 24.49 559.95 24.65 559.03 24.65 557.96 24.65 557.06 24.46 556.32 24.09 555.58 23.72 554.96 23.23 554.44 22.62L554.84 22.05C554.96 21.87 555.11 21.78 555.29 21.78 555.4 21.78 555.54 21.87 555.71 22.05 555.88 22.23 556.11 22.43 556.4 22.64 556.69 22.86 557.06 23.06 557.52 23.23 557.98 23.4 558.55 23.5 559.25 23.5 559.92 23.5 560.53 23.39 561.07 23.17 561.61 22.95 562.07 22.65 562.46 22.27 562.85 21.89 563.14 21.45 563.36 20.96 563.57 20.46 563.68 19.94 563.68 19.38 563.68 18.89 563.57 18.47 563.36 18.14 563.15 17.81 562.87 17.52 562.51 17.28 562.16 17.04 561.76 16.84 561.32 16.67 560.88 16.5 560.42 16.34 559.95 16.18 559.48 16.02 559.03 15.84 558.58 15.64 558.13 15.44 557.74 15.21 557.39 14.93 557.04 14.65 556.76 14.31 556.54 13.91 556.32 13.51 556.22 13.02 556.22 12.44 556.22 11.79 556.36 11.17 556.64 10.57 556.92 9.97 557.31 9.44 557.81 8.98 558.31 8.52 558.91 8.15 559.61 7.87 560.31 7.6 561.07 7.46 561.9 7.46 562.84 7.46 563.65 7.61 564.34 7.9 565.03 8.19 565.64 8.63 566.17 9.21L565.78 9.76Z"/></g></g></svg>