<?xml version="1.0" encoding="UTF-8" standalone="no"?>
<!-- Created with Inkscape (http://www.inkscape.org/) -->

<svg
   width="165.43939mm"
   height="41.784542mm"
   viewBox="0 0 165.43939 41.784542"
   version="1.1"
   id="svg1"
   inkscape:version="1.4.2 (ebf0e940d0, 2025-05-08)"
   sodipodi:docname="Logo of Leiden University Medical Center (2026).svg"
   xmlns:inkscape="http://www.inkscape.org/namespaces/inkscape"
   xmlns:sodipodi="http://sodipodi.sourceforge.net/DTD/sodipodi-0.dtd"
   xmlns="http://www.w3.org/2000/svg"
   xmlns:svg="http://www.w3.org/2000/svg">
  <sodipodi:namedview
     id="namedview1"
     pagecolor="#ffffff"
     bordercolor="#000000"
     borderopacity="0.25"
     inkscape:showpageshadow="2"
     inkscape:pageopacity="0.0"
     inkscape:pagecheckerboard="0"
     inkscape:deskcolor="#d1d1d1"
     inkscape:document-units="mm"
     inkscape:zoom="0.64378938"
     inkscape:cx="460.55435"
     inkscape:cy="128.92415"
     inkscape:window-width="1920"
     inkscape:window-height="1011"
     inkscape:window-x="0"
     inkscape:window-y="0"
     inkscape:window-maximized="1"
     inkscape:current-layer="layer1" />
  <defs
     id="defs1">
    <clipPath
       id="clip-38">
      <path
         clip-rule="nonzero"
         d="M 52,27.433594 H 76 V 51 H 52 Z m 0,0"
         id="path321" />
    </clipPath>
    <clipPath
       id="clip-39">
      <path
         clip-rule="nonzero"
         d="M 29.765625,50 H 53 V 72.785156 H 29.765625 Z m 0,0"
         id="path322" />
    </clipPath>
    <clipPath
       id="clip-40">
      <path
         clip-rule="nonzero"
         d="m 201,38 h 8.32812 V 50 H 201 Z m 0,0"
         id="path323" />
    </clipPath>
  </defs>
  <g
     inkscape:label="Layer 1"
     inkscape:groupmode="layer"
     id="layer1"
     transform="translate(-12.969171,-100.45291)">
    <path
       fill-rule="nonzero"
       fill="#1b458f"
       fill-opacity="1"
       d="m 45.101172,138.74642 c -4.635546,0 -6.989283,-2.29618 -6.989283,-6.82013 0,-4.30443 2.713654,-7.08646 6.913701,-7.08646 2.07661,0 2.875605,0.3455 3.516227,0.62263 l 0.252029,0.10446 0.02089,2.91162 -0.914145,0.0394 c -0.449864,-1.20926 -1.09409,-2.30696 -2.951187,-2.30696 -3.156336,0 -4.894653,1.96146 -4.894653,5.52449 0,3.52704 1.914659,5.4669 5.391319,5.4669 1.612355,0 2.522896,-0.58303 3.02677,-0.69461 l 0.457072,1.13369 c 0,0 -1.515174,1.1049 -3.829343,1.1049"
       id="path553"
       style="stroke-width:0.921348" />
    <path
       fill-rule="nonzero"
       fill="#1b458f"
       fill-opacity="1"
       d="m 28.491716,117.56263 h -10.1744 c -0.05772,-0.28433 -0.09716,-0.66582 -0.07548,-0.91417 l 1.216449,-0.3419 c 0.457072,-0.11517 0.705418,-0.59024 0.705418,-1.1049 l 0.05772,-2.81802 v -5.92397 c 0,-0.45707 -0.172632,-1.04731 -0.572248,-1.18048 l -1.19848,-0.39949 c 0,-0.17263 0.01828,-0.57225 0.07548,-0.781 h 4.991834 c 0.05746,0.28434 0.0935,0.59024 0.07548,0.83498 l -0.914145,0.23036 c -0.51466,0.11517 -0.727017,0.17263 -0.727017,0.7414 v 6.46024 l 0.09716,3.88332 3.66021,-0.0755 c 1.202058,-0.0397 1.943466,-0.87456 2.303357,-1.88588 l 0.860161,0.13319 z m 0,0"
       id="path554"
       style="stroke-width:0.921348" />
    <g
       clip-path="url(#clip-38)"
       id="g555"
       transform="matrix(0.92134738,0,0,0.92134738,-14.45531,75.177042)">
      <path
         fill-rule="nonzero"
         fill="#1b458f"
         fill-opacity="1"
         d="M 70.152344,32.679688 C 69.886719,32.78125 69.597656,32.882812 69.597656,33.5 v 6.976562 c 0,4.277344 -3.148437,5.730469 -5.707031,5.730469 -2.804687,0 -5.730469,-1 -5.730469,-5.175781 v -7.226562 c 0,-0.449219 -0.226562,-0.941407 -0.59375,-1.0625 L 56.277344,32.3125 c 0,-0.1875 0.01953,-0.617188 0.08203,-0.839844 h 5.503906 c 0.0625,0.304688 0.0625,0.675782 0.04297,0.941406 l -1.167969,0.246094 c -0.410156,0.08203 -0.53125,0.265625 -0.53125,0.65625 v 7.570313 c 0,2.945312 1.984375,3.910156 3.785157,3.910156 2.230468,0 3.765624,-1.125 3.765624,-4.402344 V 33.96875 c 0,-0.652344 -0.203124,-1.125 -1.144531,-1.390625 L 65.730469,32.3125 c 0,-0.1875 -0.03906,-0.617188 0.01953,-0.839844 h 5.363281 c 0.0625,0.304688 0.0625,0.613282 0.0625,0.878906 z M 52.441406,50.109375 H 75.117188 V 27.433594 H 52.441406 Z m 0,0"
         id="path555" />
    </g>
    <g
       clip-path="url(#clip-39)"
       id="g556"
       transform="matrix(0.92134738,0,0,0.92134738,-14.45531,75.177042)">
      <path
         fill-rule="nonzero"
         fill="#1b458f"
         fill-opacity="1"
         d="m 49.230469,68.554688 h -4.832031 c -0.03906,-0.300782 -0.07422,-0.617188 -0.07422,-0.878907 l 0.828125,-0.257812 c 0.5625,-0.179688 0.734375,-0.738281 0.734375,-1.4375 0,-0.238281 -0.01953,-0.5 -0.05859,-0.757813 L 45.589844,58.554688 45.53125,57.5 H 45.4375 l -4.035156,8.527344 h -1.285156 l -3.519532,-8.667969 h -0.113281 l -0.01953,1.019531 -0.671875,8 c -0.05469,0.359375 0,0.578125 0.207031,0.640625 l 1.769531,0.597657 c 0,0.179687 0,0.71875 -0.07813,0.9375 h -4.871094 c -0.05469,-0.300782 -0.09375,-0.617188 -0.07422,-0.878907 l 0.675781,-0.359375 c 0.527344,-0.277344 0.90625,-0.9375 0.996094,-1.554687 L 35.3164,56.800781 c 0.07422,-0.460937 -0.1875,-0.976562 -0.542968,-1.117187 l -1.1875,-0.417969 c 0,-0.179687 0.01953,-0.601563 0.07422,-0.820313 h 3.707032 l 3.527343,8.984376 h 0.171875 l 4.054688,-8.984376 h 3.535156 c 0.05469,0.300782 0.09375,0.519532 0.07422,0.777344 L 47.808594,55.5625 c -0.449219,0.160156 -0.789063,0.699219 -0.675782,1.578125 l 0.652344,9.058594 c 0.05469,0.4375 0.355469,0.859375 0.675782,1 l 0.847656,0.4375 c 0,0.179687 -0.01953,0.699219 -0.07813,0.917969 M 29.765625,72.789062 H 52.441406 V 50.109375 H 29.765625 Z m 0,0"
         id="path556" />
    </g>
    <path
       fill-rule="nonzero"
       fill="#1b458f"
       fill-opacity="1"
       d="m 124.83009,134.08209 c -3.09515,0 -4.66791,-1.53317 -4.66791,-4.55276 0,-2.8756 1.8139,-4.7327 4.61753,-4.7327 1.38563,0 1.91829,0.23035 2.35016,0.4139 l 0.16558,0.0684 0.0157,1.94707 -0.60824,0.0261 c -0.3023,-0.80618 -0.73059,-1.54038 -1.97225,-1.54038 -2.10902,0 -3.27151,1.31005 -3.27151,3.68899 0,2.35376 1.28125,3.653 3.60262,3.653 1.0761,0 1.68794,-0.39227 2.02263,-0.46428 l 0.30593,0.7558 c 0,0 -1.01493,0.7378 -2.55891,0.7378"
       id="path557"
       style="stroke-width:0.921348" />
    <path
       fill-rule="nonzero"
       fill="#1b458f"
       fill-opacity="1"
       d="M 97.787125,133.97412 H 94.1593 c -0.02612,-0.19065 -0.0504,-0.39588 -0.0397,-0.56143 l 0.806204,-0.28073 c 0.205018,-0.0755 0.395881,-0.46068 0.406667,-0.69101 l 0.0397,-1.93988 v -2.66686 h -1.302844 v -0.63704 c 0.460677,-0.10447 1.342437,-0.28431 1.903899,-0.28431 0.356287,0 0.511056,0.11518 0.511056,0.46068 v 3.12753 l 0.03604,2.33937 c 0,0.21599 0.07913,0.25203 0.219644,0.2807 l 1.108507,0.20163 c 0,0.11517 -0.01045,0.51108 -0.06111,0.65143"
       id="path558"
       style="stroke-width:0.921348" />
    <path
       fill-rule="nonzero"
       fill="#1b458f"
       fill-opacity="1"
       d="m 96.667832,124.78945 c 0,0.42108 -0.341923,0.76298 -0.763007,0.76298 -0.421083,0 -0.759375,-0.3419 -0.759375,-0.76298 0,-0.42108 0.338292,-0.76301 0.759375,-0.76301 0.421084,0 0.763007,0.34193 0.763007,0.76301"
       id="path559"
       style="stroke-width:0.921348" />
    <path
       fill-rule="nonzero"
       fill="#1b458f"
       fill-opacity="1"
       d="m 77.697431,133.10675 c -0.215987,-0.0898 -0.421083,-0.35628 -0.457073,-0.63702 l -0.791787,-5.79801 c -0.07913,-0.56143 0.151217,-0.90696 0.457073,-1.00772 l 0.626232,-0.21599 c 0.01567,-0.16923 -0.01045,-0.30593 -0.05041,-0.50027 h -2.400538 l -2.468912,6.2191 H 72.49684 l -2.310565,-6.2191 h -2.515714 c -0.0397,0.14025 -0.0504,0.4103 -0.0504,0.52187 l 0.802573,0.26992 c 0.244716,0.0901 0.421083,0.42108 0.374308,0.71621 l -0.960947,5.73321 c -0.06477,0.39591 -0.320298,0.81699 -0.676611,0.99333 l -0.460677,0.23035 c -0.01045,0.16559 0.01567,0.37068 0.05406,0.56144 h 3.303897 c 0.05406,-0.14025 0.05406,-0.48588 0.05406,-0.60103 l -1.202058,-0.38149 c -0.140509,-0.0397 -0.176289,-0.17629 -0.140509,-0.40669 l 0.806204,-5.1214 0.01045,-0.65144 h 0.07548 l 2.350159,6.43864 0.870947,-0.28071 2.414955,-6.06795 h 0.06477 l 0.0397,0.67663 0.511056,4.26482 c 0.02612,0.16558 0.03604,0.33111 0.03604,0.48588 0,0.44626 -0.115176,0.80257 -0.496666,0.91775 l -0.561435,0.16558 c 0,0.16558 0.02612,0.37068 0.0504,0.56144 h 3.282298 c 0.03604,-0.14025 0.05041,-0.47147 0.05041,-0.58664 z m 0,0"
       id="path560"
       style="stroke-width:0.921348" />
    <path
       fill-rule="nonzero"
       fill="#1b458f"
       fill-opacity="1"
       d="m 81.469186,116.97957 0.798996,-0.27712 c 0.205279,-0.0791 0.39588,-0.46066 0.406693,-0.6874 l 0.0397,-1.93268 v -2.64168 h -1.295661 v -0.6478 c 0.457073,-0.10081 1.335228,-0.28073 1.893086,-0.28073 0.356314,0 0.507452,0.11517 0.507452,0.45707 v 3.11314 l 0.0397,2.32498 c 0,0.21599 0.07548,0.25542 0.215987,0.2807 l 1.104877,0.20502 c 0,0.11152 -0.01567,0.50745 -0.06477,0.64423 h -3.6062 c -0.02873,-0.19065 -0.0397,-0.3923 -0.0397,-0.55786"
       id="path561"
       style="stroke-width:0.921348" />
    <path
       fill-rule="nonzero"
       fill="#1b458f"
       fill-opacity="1"
       d="m 131.95254,116.97957 0.799,-0.27712 c 0.20162,-0.0791 0.39227,-0.46066 0.40666,-0.6874 l 0.0397,-1.93268 v -2.64168 h -1.29563 v -0.6478 c 0.45707,-0.10081 1.33162,-0.28073 1.88948,-0.28073 0.35631,0 0.51105,0.11517 0.51105,0.45707 v 3.11314 l 0.0361,2.32498 c 0,0.21599 0.0791,0.25542 0.21598,0.2807 l 1.10491,0.20502 c 0,0.11152 -0.0104,0.50745 -0.0611,0.64423 h -3.6098 c -0.0261,-0.19065 -0.036,-0.3923 -0.036,-0.55786"
       id="path562"
       style="stroke-width:0.921348" />
    <path
       fill-rule="nonzero"
       fill="#1b458f"
       fill-opacity="1"
       d="m 162.01512,116.97957 0.79897,-0.27712 c 0.20528,-0.0791 0.39588,-0.46066 0.40669,-0.6874 l 0.0397,-1.93268 v -2.64168 h -1.29566 v -0.6478 c 0.45707,-0.10081 1.33165,-0.28073 1.89308,-0.28073 0.35271,0 0.50748,0.11517 0.50748,0.45707 v 3.11314 l 0.036,2.32498 c 0,0.21599 0.0791,0.25542 0.21599,0.2807 l 1.10488,0.20502 c 0,0.11152 -0.0104,0.50745 -0.0611,0.64423 h -3.6098 c -0.0261,-0.19065 -0.036,-0.3923 -0.036,-0.55786"
       id="path563"
       style="stroke-width:0.921348" />
    <path
       fill-rule="nonzero"
       fill="#1b458f"
       fill-opacity="1"
       d="m 84.154059,108.45352 c 0,0.49306 -0.399484,0.88896 -0.892572,0.88896 -0.493062,0 -0.892546,-0.3959 -0.892546,-0.88896 0,-0.49307 0.399484,-0.89255 0.892546,-0.89255 0.493088,0 0.892572,0.39948 0.892572,0.89255"
       id="path564"
       style="stroke-width:0.921348" />
    <path
       fill-rule="nonzero"
       fill="#1b458f"
       fill-opacity="1"
       d="m 134.63021,108.45352 c 0,0.49306 -0.39949,0.88896 -0.88895,0.88896 -0.49306,0 -0.89254,-0.3959 -0.89254,-0.88896 0,-0.49307 0.39948,-0.89255 0.89254,-0.89255 0.48946,0 0.88895,0.39948 0.88895,0.89255"
       id="path565"
       style="stroke-width:0.921348" />
    <path
       fill-rule="nonzero"
       fill="#1b458f"
       fill-opacity="1"
       d="m 164.69996,108.45352 c 0,0.49306 -0.39948,0.88896 -0.89254,0.88896 -0.49306,0 -0.89255,-0.3959 -0.89255,-0.88896 0,-0.49307 0.39949,-0.89255 0.89255,-0.89255 0.49306,0 0.89254,0.39948 0.89254,0.89255"
       id="path566"
       style="stroke-width:0.921348" />
    <path
       fill-rule="nonzero"
       fill="#1b458f"
       fill-opacity="1"
       d="m 73.62695,117.53743 h -6.435056 c -0.01567,-0.0755 -0.02873,-0.15827 -0.03604,-0.25203 -0.01045,-0.0935 -0.01567,-0.1836 -0.01567,-0.26634 v -0.0901 l 0.813385,-0.23035 c 0.154874,-0.0431 0.269919,-0.1332 0.352683,-0.27353 0.07913,-0.13685 0.118832,-0.29151 0.118832,-0.46425 l 0.0397,-1.8787 v -3.9553 c 0,-0.15488 -0.03239,-0.31312 -0.08984,-0.47867 -0.06111,-0.16558 -0.158269,-0.26634 -0.291517,-0.30951 l -0.8026,-0.26635 c 0,-0.0611 0.0026,-0.1439 0.01567,-0.25542 0.0078,-0.11152 0.01828,-0.19797 0.03604,-0.26631 h 3.332677 c 0.01828,0.0755 0.02873,0.15461 0.03604,0.234 0.01045,0.0791 0.01567,0.15827 0.01567,0.23401 v 0.0901 l -0.611816,0.15461 c -0.169237,0.0397 -0.291517,0.0864 -0.367099,0.13319 -0.07548,0.0468 -0.115176,0.16559 -0.115176,0.3599 v 4.31161 l 0.06477,2.5949 2.083844,-0.0504 c 0.442682,-0.0684 0.784579,-0.2267 1.029321,-0.47146 0.248372,-0.24838 0.417479,-0.51106 0.511056,-0.78819 l 0.572248,0.0898 z m 0,0"
       id="path567"
       style="stroke-width:0.921348" />
    <path
       fill-rule="nonzero"
       fill="#1b458f"
       fill-opacity="1"
       d="m 78.730356,111.76102 c -0.205279,-0.3851 -0.575853,-0.57946 -1.112112,-0.57946 -0.237403,0 -0.460676,0.0504 -0.673007,0.14756 -0.212331,0.0972 -0.403089,0.24106 -0.572248,0.4319 -0.169238,0.19065 -0.309512,0.42468 -0.417479,0.69821 -0.11152,0.27712 -0.179946,0.59382 -0.205018,0.96092 h 3.293084 c 0,-0.71979 -0.104468,-1.27404 -0.31309,-1.65913 m -2.994385,2.38254 c 0.02873,0.56864 0.107863,1.02211 0.24106,1.36043 0.136852,0.33829 0.316694,0.59382 0.543441,0.76298 0.223038,0.16924 0.482275,0.28073 0.780974,0.33111 0.298726,0.0504 0.61905,0.0755 0.964551,0.0755 0.248372,0 0.532655,-0.0183 0.860161,-0.0577 0.323903,-0.036 0.611842,-0.0898 0.856557,-0.15827 l 0.20528,0.6874 c -0.11152,0.0755 -0.248373,0.14756 -0.421084,0.20867 -0.169238,0.0648 -0.352709,0.11518 -0.554253,0.15827 -0.19431,0.0431 -0.406693,0.0755 -0.626232,0.10447 -0.219644,0.0261 -0.43187,0.036 -0.637018,0.036 -0.539864,0 -1.022113,-0.0468 -1.436014,-0.14025 -0.417479,-0.0935 -0.766584,-0.26631 -1.047315,-0.51826 -0.284309,-0.25542 -0.500244,-0.60821 -0.651409,-1.0581 -0.14756,-0.44987 -0.223038,-1.02932 -0.223038,-1.74192 0,-0.52545 0.07548,-1.01493 0.223038,-1.47201 0.151217,-0.46067 0.359892,-0.85655 0.637019,-1.19487 0.273522,-0.3419 0.604633,-0.60821 0.989727,-0.80257 0.388698,-0.19431 0.813386,-0.29152 1.281271,-0.29152 0.471462,0 0.874551,0.0755 1.205662,0.23401 0.331084,0.15487 0.601029,0.38151 0.806177,0.67303 0.208675,0.29152 0.359892,0.64423 0.460677,1.0545 0.09716,0.4139 0.143904,0.87815 0.143904,1.39281 v 0.35632 z m 0,0"
       id="path568"
       style="stroke-width:0.921348" />
    <path
       fill-rule="nonzero"
       fill="#1b458f"
       fill-opacity="1"
       d="m 90.790634,111.52348 c -0.169238,-0.0324 -0.363496,-0.0721 -0.583035,-0.11152 -0.223039,-0.0431 -0.511056,-0.0648 -0.867369,-0.0648 -0.413875,0 -0.755798,0.0791 -1.022113,0.23401 -0.26634,0.15827 -0.471463,0.37068 -0.615445,0.64423 -0.143905,0.26992 -0.244716,0.59382 -0.2987,0.96452 -0.05772,0.37431 -0.08279,0.7738 -0.08279,1.19488 0,0.41748 0.04309,0.76298 0.133196,1.04371 0.0901,0.28073 0.212331,0.50027 0.374282,0.66222 0.161925,0.15827 0.359917,0.27352 0.597451,0.3419 0.237403,0.0684 0.500244,0.10081 0.788183,0.10081 0.179945,0 0.341897,-0.0183 0.496639,-0.0577 0.151217,-0.036 0.291544,-0.0828 0.413902,-0.13685 0.122488,-0.0575 0.234007,-0.11152 0.338318,-0.17264 0.100812,-0.0574 0.19431,-0.11151 0.277101,-0.15121 l 0.05041,-1.94707 z m 2.195389,5.71522 c -0.140248,0.0648 -0.298699,0.12249 -0.471463,0.17995 -0.172633,0.0541 -0.352709,0.10081 -0.536259,0.14051 -0.179946,0.036 -0.359891,0.0575 -0.539837,0.0575 -0.151217,0 -0.273523,-0.0361 -0.359917,-0.10447 -0.0901,-0.0684 -0.154613,-0.15122 -0.197967,-0.25203 -0.04309,-0.10447 -0.06843,-0.21599 -0.08279,-0.33832 -0.01306,-0.12249 -0.01828,-0.23766 -0.01828,-0.34908 -0.0935,0.0935 -0.201623,0.19797 -0.323902,0.3167 -0.125884,0.11883 -0.262737,0.234 -0.421084,0.3455 -0.158268,0.10786 -0.327506,0.20162 -0.51466,0.27352 -0.187259,0.0721 -0.388698,0.10786 -0.611842,0.10786 -0.320298,0 -0.647804,-0.0431 -0.986123,-0.12954 -0.334688,-0.0828 -0.633414,-0.24471 -0.899754,-0.48227 -0.269919,-0.23767 -0.485854,-0.56865 -0.655013,-0.98973 -0.169238,-0.42469 -0.255424,-0.97894 -0.255424,-1.66634 0,-0.58664 0.08645,-1.11211 0.25908,-1.58357 0.17629,-0.47147 0.410297,-0.87095 0.708997,-1.19488 0.295121,-0.3275 0.644226,-0.57943 1.043711,-0.7558 0.395906,-0.17994 0.81699,-0.26631 1.256068,-0.26631 0.320298,0 0.586638,0.0105 0.795365,0.036 0.205018,0.0261 0.413901,0.0577 0.615445,0.10081 v -1.96864 h -1.295661 v -0.59745 c 0.118832,-0.0261 0.255424,-0.0575 0.413901,-0.0898 0.154874,-0.0361 0.320299,-0.0648 0.493062,-0.0935 0.176289,-0.0324 0.349105,-0.0575 0.521869,-0.0791 0.172633,-0.0209 0.327506,-0.0324 0.464254,-0.0324 0.179946,0 0.309512,0.036 0.388699,0.10447 0.07913,0.0648 0.118832,0.1836 0.118832,0.35631 v 5.78362 l 0.05406,2.5049 h 1.281244 l 0.0901,0.49667 c -0.08279,0.0504 -0.197967,0.10786 -0.334715,0.16924"
       id="path569"
       style="stroke-width:0.921348" />
    <path
       fill-rule="nonzero"
       fill="#1b458f"
       fill-opacity="1"
       d="m 98.222599,111.76102 c -0.205279,-0.3851 -0.575852,-0.57946 -1.112111,-0.57946 -0.237403,0 -0.460677,0.0504 -0.673008,0.14756 -0.21233,0.0972 -0.403088,0.24106 -0.572248,0.4319 -0.169238,0.19065 -0.309512,0.42468 -0.421083,0.69821 -0.107863,0.27712 -0.176289,0.59382 -0.201623,0.96092 h 3.293111 c 0,-0.71979 -0.104468,-1.27404 -0.313116,-1.65913 m -2.994385,2.38254 c 0.02612,0.56864 0.107863,1.02211 0.241059,1.36043 0.136853,0.33829 0.31672,0.59382 0.543441,0.76298 0.223039,0.16924 0.482276,0.28073 0.781001,0.33111 0.295121,0.0504 0.619024,0.0755 0.964524,0.0755 0.248373,0 0.532655,-0.0183 0.860162,-0.0577 0.323928,-0.036 0.611841,-0.0898 0.856583,-0.15827 l 0.205279,0.6874 c -0.111519,0.0755 -0.248372,0.14756 -0.421083,0.20867 -0.169238,0.0648 -0.352709,0.11518 -0.554254,0.15827 -0.197966,0.0431 -0.406693,0.0755 -0.626232,0.10447 -0.219643,0.0261 -0.431895,0.036 -0.637044,0.036 -0.543441,0 -1.022112,-0.0468 -1.435987,-0.14025 -0.413902,-0.0935 -0.766611,-0.26631 -1.05092,-0.51826 -0.280731,-0.25542 -0.50027,-0.60821 -0.647804,-1.0581 -0.147561,-0.44987 -0.223039,-1.02932 -0.223039,-1.74192 0,-0.52545 0.07548,-1.01493 0.223039,-1.47201 0.147561,-0.46067 0.359891,-0.85655 0.637018,-1.19487 0.273523,-0.3419 0.604633,-0.60821 0.993331,-0.80257 0.385095,-0.19431 0.809756,-0.29152 1.274037,-0.29152 0.475067,0 0.878156,0.0755 1.209266,0.23401 0.331111,0.15487 0.601029,0.38151 0.806178,0.67303 0.208674,0.29152 0.359891,0.64423 0.460676,1.0545 0.09716,0.4139 0.143905,0.87815 0.143905,1.39281 v 0.35632 z m 0,0"
       id="path570"
       style="stroke-width:0.921348" />
    <path
       fill-rule="nonzero"
       fill="#1b458f"
       fill-opacity="1"
       d="m 109.04843,117.01917 c 0,0.0755 0,0.16923 -0.008,0.27712 -0.003,0.11152 -0.0183,0.19066 -0.0431,0.24106 h -3.05198 c -0.0183,-0.0648 -0.0261,-0.1439 -0.0287,-0.23401 -0.008,-0.0901 -0.008,-0.16558 -0.008,-0.234 v -0.14025 l 0.35631,-0.24106 c 0.1332,-0.0935 0.23035,-0.20528 0.29152,-0.33111 0.0577,-0.12589 0.0901,-0.25203 0.0901,-0.37071 l 0.036,-1.91826 v -1.06891 c 0,-0.29512 -0.0131,-0.54344 -0.0431,-0.74138 -0.0287,-0.20163 -0.0935,-0.3635 -0.19065,-0.48588 -0.0972,-0.12249 -0.24106,-0.20868 -0.43187,-0.26632 -0.19066,-0.0541 -0.44629,-0.0828 -0.77019,-0.0828 -0.20528,0 -0.4103,0.0209 -0.62263,0.0648 -0.21233,0.0431 -0.4139,0.0935 -0.60466,0.15122 -0.19065,0.0611 -0.35989,0.12223 -0.50745,0.1836 -0.15122,0.0648 -0.26271,0.12223 -0.33829,0.17263 v 2.07304 l 0.0397,2.31416 c 0,0.10082 0.003,0.17264 0.0183,0.21599 0.0104,0.0431 0.0611,0.0721 0.14756,0.0901 l 1.11929,0.20162 v 0.12954 c 0,0.0755 -0.003,0.16924 -0.008,0.27712 -0.008,0.11152 -0.0209,0.19066 -0.0468,0.24106 h -3.39387 c -0.0261,-0.14024 -0.0397,-0.28791 -0.0397,-0.43187 v -0.12588 l 0.58664,-0.28073 c 0.1439,-0.0648 0.25203,-0.17629 0.32393,-0.33111 0.0718,-0.15122 0.10786,-0.28791 0.10786,-0.40669 l 0.0397,-1.89309 v -2.63086 h -1.28485 v -0.63705 c 0.10786,-0.0261 0.24472,-0.0541 0.40667,-0.0828 0.16192,-0.0287 0.32753,-0.0575 0.50387,-0.0898 0.17263,-0.0287 0.3455,-0.0504 0.51826,-0.0684 0.17629,-0.0183 0.33112,-0.0261 0.46426,-0.0261 0.17995,0 0.30233,0.0324 0.3707,0.10081 0.0684,0.0684 0.10081,0.18726 0.10081,0.35631 v 0.38149 c 0.12589,-0.0935 0.27353,-0.19065 0.43908,-0.2987 0.16558,-0.10447 0.35271,-0.20528 0.55783,-0.29872 0.20868,-0.0935 0.43908,-0.16924 0.69464,-0.23035 0.25542,-0.0577 0.53983,-0.0864 0.85295,-0.0864 0.48227,0 0.86016,0.0541 1.13729,0.16924 0.27352,0.11517 0.48588,0.27712 0.62983,0.48585 0.14391,0.20502 0.23401,0.45349 0.27353,0.7378 0.036,0.28073 0.0541,0.59745 0.0541,0.94656 v 1.27043 l 0.0541,2.44013 c 0,0.0755 0.008,0.12589 0.0261,0.14051 0.0157,0.0183 0.0611,0.036 0.14051,0.0504 l 1.0401,0.19065 z m 0,0"
       id="path571"
       style="stroke-width:0.921348" />
    <path
       fill-rule="nonzero"
       fill="#1b458f"
       fill-opacity="1"
       d="m 121.47223,109.29929 c -0.0864,0.036 -0.16558,0.0791 -0.2374,0.13319 -0.0721,0.0575 -0.10812,0.17995 -0.10812,0.37428 v 4.33683 c 0,0.66222 -0.10787,1.22005 -0.32751,1.67354 -0.22304,0.45347 -0.50385,0.81697 -0.84577,1.0977 -0.3455,0.28073 -0.72699,0.48227 -1.14447,0.60463 -0.42108,0.12249 -0.83138,0.1836 -1.22729,0.1836 -0.43187,0 -0.86374,-0.0467 -1.29203,-0.14024 -0.42826,-0.0901 -0.80978,-0.25569 -1.1445,-0.49309 -0.33468,-0.23767 -0.60463,-0.56504 -0.81335,-0.98613 -0.20868,-0.42108 -0.31312,-0.95013 -0.31312,-1.59796 v -4.48796 c 0,-0.14025 -0.0287,-0.27713 -0.0935,-0.40669 -0.0648,-0.12589 -0.15487,-0.21233 -0.27352,-0.25203 l -0.799,-0.26992 c 0,-0.0575 0.003,-0.1439 0.0105,-0.25203 0.008,-0.11152 0.0209,-0.19796 0.0397,-0.26631 h 3.41907 c 0.0261,0.11152 0.036,0.2374 0.036,0.38149 0,0.0431 0,0.0791 -0.003,0.10786 -0.003,0.0287 -0.008,0.0611 -0.008,0.0935 l -0.72341,0.15487 c -0.12954,0.0261 -0.21599,0.0684 -0.26271,0.1332 -0.0468,0.0611 -0.0684,0.15487 -0.0684,0.27352 v 4.70392 c 0,0.45707 0.0684,0.84217 0.20868,1.15168 0.14025,0.30951 0.3239,0.55786 0.54704,0.74859 0.22304,0.19065 0.47507,0.32753 0.75578,0.40669 0.28073,0.0791 0.56146,0.11884 0.83858,0.11884 0.34911,0 0.66583,-0.0431 0.95374,-0.13686 0.28792,-0.0935 0.53626,-0.24837 0.73781,-0.46425 0.20501,-0.21599 0.36349,-0.49667 0.47867,-0.84577 0.11152,-0.34911 0.16924,-0.7774 0.16924,-1.28485 v -3.99132 c 0,-0.15488 -0.0431,-0.31312 -0.1332,-0.48586 -0.0864,-0.16923 -0.28073,-0.29512 -0.57585,-0.37791 l -0.54705,-0.16924 c 0,-0.0324 -0.003,-0.0755 -0.008,-0.12588 -0.003,-0.0504 -0.008,-0.10447 -0.008,-0.16558 0,-0.0648 0.008,-0.1439 0.0261,-0.2267 h 3.3327 c 0.0131,0.0935 0.0261,0.18361 0.0324,0.27713 0.003,0.0935 0.003,0.1836 0.003,0.26992 z m 0,0"
       id="path572"
       style="stroke-width:0.921348" />
    <path
       fill-rule="nonzero"
       fill="#1b458f"
       fill-opacity="1"
       d="m 131.08517,117.01917 c 0,0.0755 -0.003,0.16923 -0.008,0.27712 -0.003,0.11152 -0.0183,0.19066 -0.0431,0.24106 h -3.05197 c -0.0183,-0.0648 -0.0287,-0.1439 -0.0324,-0.23401 -0.003,-0.0901 -0.008,-0.16558 -0.008,-0.234 v -0.14025 l 0.35631,-0.24106 c 0.13686,-0.0935 0.23401,-0.20528 0.29152,-0.33111 0.0611,-0.12589 0.0901,-0.25203 0.0901,-0.37071 l 0.0397,-1.91826 v -1.06891 c 0,-0.29512 -0.0183,-0.54344 -0.0468,-0.74138 -0.0287,-0.20163 -0.0935,-0.3635 -0.19065,-0.48588 -0.0972,-0.12249 -0.24106,-0.20868 -0.43187,-0.26632 -0.19065,-0.0541 -0.44629,-0.0828 -0.77019,-0.0828 -0.20162,0 -0.4103,0.0209 -0.62263,0.0648 -0.21233,0.0431 -0.4139,0.0935 -0.60463,0.15122 -0.19065,0.0611 -0.35992,0.12223 -0.50748,0.1836 -0.14756,0.0648 -0.25908,0.12223 -0.33471,0.17263 v 2.07304 l 0.036,2.31416 c 0,0.10082 0.008,0.17264 0.0209,0.21599 0.0104,0.0431 0.0611,0.0721 0.14391,0.0901 l 1.11932,0.20162 v 0.12954 c 0,0.0755 0,0.16924 -0.008,0.27712 -0.003,0.11152 -0.0183,0.19066 -0.0431,0.24106 h -3.39387 c -0.0261,-0.14024 -0.0397,-0.28791 -0.0397,-0.43187 v -0.12588 l 0.58304,-0.28073 c 0.14756,-0.0648 0.25542,-0.17629 0.3275,-0.33111 0.0721,-0.15122 0.10787,-0.28791 0.10787,-0.40669 l 0.036,-1.89309 v -2.63086 h -1.28485 v -0.63705 c 0.11152,-0.0261 0.24837,-0.0541 0.40669,-0.0828 0.16193,-0.0287 0.33111,-0.0575 0.50385,-0.0898 0.17263,-0.0287 0.3491,-0.0504 0.52187,-0.0684 0.17263,-0.0183 0.3275,-0.0261 0.46428,-0.0261 0.17629,0 0.2987,0.0324 0.3671,0.10081 0.0684,0.0684 0.10081,0.18726 0.10081,0.35631 v 0.38149 c 0.12954,-0.0935 0.27713,-0.19065 0.43908,-0.2987 0.16558,-0.10447 0.35271,-0.20528 0.56146,-0.29872 0.20867,-0.0935 0.43908,-0.16924 0.6946,-0.23035 0.25203,-0.0577 0.53626,-0.0864 0.84935,-0.0864 0.48228,0 0.86377,0.0541 1.13729,0.16924 0.27713,0.11517 0.48588,0.27712 0.62984,0.48585 0.1439,0.20502 0.23401,0.45349 0.27352,0.7378 0.0397,0.28073 0.0575,0.59745 0.0575,0.94656 v 1.27043 l 0.0504,2.44013 c 0,0.0755 0.008,0.12589 0.0261,0.14051 0.0183,0.0183 0.0648,0.036 0.14025,0.0504 l 1.04371,0.19065 z m 0,0"
       id="path573"
       style="stroke-width:0.921348" />
    <path
       fill-rule="nonzero"
       fill="#1b458f"
       fill-opacity="1"
       d="m 142.79277,110.87565 c -0.003,0.0935 -0.0131,0.17264 -0.0287,0.24106 -0.0541,0.0431 -0.10787,0.0864 -0.16924,0.13685 -0.0575,0.0468 -0.11883,0.10447 -0.1836,0.18361 -0.0611,0.0755 -0.12954,0.16923 -0.20162,0.28433 -0.0718,0.11518 -0.14391,0.25543 -0.20868,0.42829 l -2.14861,5.38772 -0.87816,0.28073 -2.14861,-5.84842 c -0.0504,-0.1439 -0.14391,-0.28791 -0.27353,-0.43187 -0.13319,-0.1439 -0.2843,-0.26273 -0.45346,-0.35631 0,-0.0575 0,-0.11518 -0.003,-0.16558 -0.008,-0.0504 -0.008,-0.10081 -0.008,-0.15122 0,-0.10447 0.0157,-0.19065 0.0504,-0.26994 h 2.76045 c 0,0.10446 -0.008,0.22669 -0.0209,0.3707 -0.0104,0.1439 -0.0261,0.24106 -0.0431,0.29152 h -0.90335 l 1.64113,4.95945 1.52599,-4.0165 c 0.0157,-0.0431 0.0287,-0.0864 0.036,-0.1332 0.0104,-0.0467 0.0157,-0.0935 0.0157,-0.13685 0,-0.1439 -0.0287,-0.27713 -0.0901,-0.39951 -0.0577,-0.12223 -0.12249,-0.19431 -0.19066,-0.22304 l -0.35608,-0.14025 c 0,-0.0397 0,-0.0864 -0.003,-0.13685 -0.008,-0.0541 -0.008,-0.10786 -0.008,-0.16558 0,-0.10447 0.0104,-0.19066 0.036,-0.26995 h 2.26376 c 0,0.0935 0,0.18726 -0.008,0.28073"
       id="path574"
       style="stroke-width:0.921348" />
    <path
       fill-rule="nonzero"
       fill="#1b458f"
       fill-opacity="1"
       d="m 147.49669,111.76102 c -0.20502,-0.3851 -0.57585,-0.57946 -1.11211,-0.57946 -0.23741,0 -0.46065,0.0504 -0.67301,0.14756 -0.21233,0.0972 -0.40309,0.24106 -0.57225,0.4319 -0.16924,0.19065 -0.30951,0.42468 -0.42108,0.69821 -0.10787,0.27712 -0.17629,0.59382 -0.20163,0.96092 h 3.29312 c 0,-0.71979 -0.10447,-1.27404 -0.31312,-1.65913 m -2.99078,2.38254 c 0.0209,0.56864 0.10447,1.02211 0.24106,1.36043 0.13319,0.33829 0.31311,0.59382 0.53986,0.76298 0.22304,0.16924 0.48585,0.28073 0.78098,0.33111 0.29512,0.0504 0.61902,0.0755 0.96812,0.0755 0.24472,0 0.52906,-0.0183 0.85656,-0.0577 0.32393,-0.036 0.61184,-0.0898 0.85658,-0.15827 l 0.20502,0.6874 c -0.11152,0.0755 -0.24837,0.14756 -0.42108,0.20867 -0.16924,0.0648 -0.35268,0.11518 -0.55423,0.15827 -0.19796,0.0431 -0.40669,0.0755 -0.62623,0.10447 -0.21964,0.0261 -0.4319,0.036 -0.63702,0.036 -0.54347,0 -1.02214,-0.0468 -1.43601,-0.14025 -0.4139,-0.0935 -0.76661,-0.26631 -1.05092,-0.51826 -0.28073,-0.25542 -0.50027,-0.60821 -0.64783,-1.0581 -0.14756,-0.44987 -0.21965,-1.02932 -0.21965,-1.74192 0,-0.52545 0.0721,-1.01493 0.21965,-1.47201 0.14756,-0.46067 0.35992,-0.85655 0.63704,-1.19487 0.27353,-0.3419 0.60464,-0.60821 0.99331,-0.80257 0.38509,-0.19431 0.80978,-0.29152 1.27406,-0.29152 0.47867,0 0.87816,0.0755 1.20927,0.23401 0.33111,0.15487 0.60103,0.38151 0.80978,0.67303 0.20528,0.29152 0.35629,0.64423 0.45707,1.0545 0.0972,0.4139 0.14391,0.87815 0.14391,1.39281 v 0.35632 z m 0,0"
       id="path575"
       style="stroke-width:0.921348" />
    <path
       fill-rule="nonzero"
       fill="#1b458f"
       fill-opacity="1"
       d="m 155.0834,111.73942 c -0.0862,-0.0324 -0.19066,-0.0648 -0.3203,-0.0935 -0.12589,-0.0287 -0.29152,-0.0431 -0.49667,-0.0431 -0.43189,0 -0.80257,0.0468 -1.11569,0.1439 -0.31311,0.0972 -0.54346,0.23035 -0.68742,0.40309 v 1.90748 l 0.0504,2.29975 c 0,0.10081 0.0104,0.17629 0.0324,0.22669 0.0209,0.0541 0.0718,0.0864 0.15827,0.10447 l 1.32084,0.20162 v 0.12954 c 0,0.0755 0,0.16924 -0.003,0.27713 -0.003,0.11152 -0.0209,0.19065 -0.0468,0.24106 h -3.635 c -0.0183,-0.0755 -0.0287,-0.15461 -0.036,-0.23401 -0.0104,-0.0791 -0.0157,-0.15827 -0.0157,-0.23401 v -0.0901 l 0.59745,-0.30591 c 0.10786,-0.0577 0.20867,-0.17289 0.29872,-0.33471 0.0901,-0.16558 0.13686,-0.37428 0.14756,-0.61902 l 0.0261,-1.66274 v -2.63449 h -1.28485 v -0.64781 c 0.11883,-0.0261 0.25543,-0.0541 0.41388,-0.0828 0.15487,-0.0287 0.32032,-0.0611 0.49666,-0.0901 0.17264,-0.0287 0.3455,-0.0504 0.51827,-0.0684 0.17629,-0.0183 0.33111,-0.0261 0.46428,-0.0261 0.17994,0 0.3023,0.0324 0.37428,0.10081 0.0721,0.0684 0.11152,0.18726 0.11152,0.35628 v 0.56147 c 0.0755,-0.14756 0.17994,-0.28073 0.31672,-0.4103 0.13685,-0.12588 0.29152,-0.23767 0.47146,-0.33472 0.17629,-0.0971 0.3671,-0.17263 0.57585,-0.23035 0.20868,-0.0541 0.41748,-0.0828 0.62981,-0.0828 0.20163,0 0.38152,0.0157 0.52908,0.0397 0.14756,0.0261 0.25203,0.0468 0.30951,0.0611 z m 0,0"
       id="path576"
       style="stroke-width:0.921348" />
    <path
       fill-rule="nonzero"
       fill="#1b458f"
       fill-opacity="1"
       d="m 160.81664,115.63356 c 0,0.39588 -0.0755,0.72699 -0.23035,0.98972 -0.15122,0.26272 -0.35269,0.47147 -0.60103,0.62263 -0.25203,0.15461 -0.53266,0.26271 -0.84577,0.3239 -0.31312,0.0648 -0.63342,0.0972 -0.95374,0.0972 -0.48586,0 -0.91054,-0.0431 -1.27043,-0.1332 -0.36713,-0.0898 -0.68382,-0.19796 -0.95377,-0.3239 l 0.10081,-1.98666 0.59745,0.0157 c 0,0.21964 0.0361,0.43189 0.11152,0.63704 0.0791,0.20163 0.18726,0.38149 0.32754,0.53984 0.13685,0.15487 0.30951,0.28073 0.50745,0.37431 0.19796,0.0935 0.42469,0.14025 0.68021,0.14025 0.19431,0 0.38149,-0.0183 0.55783,-0.0575 0.17995,-0.0397 0.33832,-0.10081 0.47149,-0.19066 0.13686,-0.0901 0.24472,-0.20527 0.32391,-0.3491 0.0828,-0.1439 0.12248,-0.32393 0.12248,-0.53626 0,-0.20162 -0.0901,-0.3707 -0.26991,-0.50745 -0.17629,-0.13685 -0.39588,-0.25908 -0.65862,-0.37431 -0.26274,-0.11518 -0.55065,-0.23401 -0.86737,-0.36349 -0.31312,-0.12589 -0.60103,-0.28074 -0.86377,-0.46429 -0.26271,-0.17994 -0.48224,-0.40669 -0.65861,-0.68021 -0.17995,-0.26992 -0.26632,-0.60824 -0.26632,-1.01491 0,-0.33831 0.0611,-0.63344 0.19066,-0.87815 0.12588,-0.24472 0.29872,-0.44629 0.51826,-0.60466 0.22304,-0.15487 0.47867,-0.27352 0.7774,-0.34908 0.29512,-0.0755 0.61181,-0.11517 0.95374,-0.11517 0.33111,0 0.67661,0.036 1.0365,0.10786 0.35992,0.0721 0.69103,0.1836 0.99693,0.33829 l -0.21598,1.69154 -0.47149,-0.0504 c -0.0577,-0.37431 -0.23767,-0.68743 -0.53266,-0.93575 -0.29509,-0.25203 -0.6478,-0.3743 -1.05449,-0.3743 -0.38152,0 -0.68382,0.0864 -0.90336,0.25908 -0.21965,0.17263 -0.33111,0.42829 -0.33111,0.75579 0,0.21233 0.0901,0.39231 0.27352,0.53626 0.1836,0.14391 0.4103,0.27713 0.68022,0.40669 0.26994,0.12589 0.56504,0.25203 0.88536,0.38149 0.31672,0.12589 0.61184,0.28071 0.88176,0.46426 0.26992,0.17995 0.49667,0.39951 0.68021,0.65504 0.17995,0.25203 0.27353,0.57225 0.27353,0.95374"
       id="path577"
       style="stroke-width:0.921348" />
    <path
       fill-rule="nonzero"
       fill="#1b458f"
       fill-opacity="1"
       d="m 170.91188,117.52664 c -0.0864,0.0261 -0.19066,0.0504 -0.30594,0.0684 -0.11152,0.0209 -0.23035,0.0397 -0.35271,0.0575 -0.12588,0.0183 -0.24106,0.0261 -0.35268,0.0261 -0.43908,0 -0.82059,-0.0183 -1.1445,-0.0541 -0.32029,-0.0397 -0.58663,-0.12588 -0.79178,-0.26271 -0.20868,-0.13685 -0.35989,-0.33832 -0.45707,-0.61184 -0.10082,-0.26992 -0.14757,-0.64062 -0.14757,-1.1049 l 0.0397,-4.20723 h -1.01851 v -0.4571 l 1.98304,-1.80669 h 0.17994 v 1.4252 h 2.32496 v 0.83859 h -2.32496 v 2.64167 l 0.036,1.55477 c 0.0105,0.26271 0.0324,0.46786 0.0684,0.61542 0.0397,0.14756 0.10447,0.25908 0.19797,0.33832 0.0935,0.0755 0.22669,0.12249 0.39588,0.1439 0.16923,0.0209 0.38509,0.0324 0.64783,0.0324 0.26992,0 0.48946,-0.0157 0.65501,-0.0397 0.16558,-0.0261 0.30593,-0.0504 0.42469,-0.0755 l 0.15487,0.81336 c -0.0504,0.0183 -0.12249,0.0397 -0.21233,0.0648"
       id="path578"
       style="stroke-width:0.921348" />
    <g
       clip-path="url(#clip-40)"
       id="g579"
       transform="matrix(0.92134738,0,0,0.92134738,-14.45531,75.177042)">
      <path
         fill-rule="nonzero"
         fill="#1b458f"
         fill-opacity="1"
         d="m 209.32031,38.796875 c -0.004,0.113281 -0.0195,0.210937 -0.0469,0.296875 -0.0742,0.02734 -0.14844,0.05469 -0.22266,0.08203 -0.0742,0.02734 -0.14844,0.07422 -0.21875,0.136719 -0.0742,0.06641 -0.14844,0.15625 -0.22266,0.277344 -0.0742,0.121094 -0.15234,0.285156 -0.23437,0.496094 l -2.76172,6.996093 c -0.18359,0.46875 -0.40625,0.882813 -0.66797,1.242188 -0.26172,0.359375 -0.58594,0.660156 -0.97265,0.910156 l -0.75782,-0.980469 c 0.10938,-0.0625 0.23438,-0.152344 0.3711,-0.269531 0.13672,-0.113281 0.27734,-0.238281 0.41406,-0.378906 0.13672,-0.136719 0.26562,-0.28125 0.37891,-0.433594 0.11718,-0.152344 0.20703,-0.296875 0.26953,-0.433594 l 0.35937,-0.800781 -2.35937,-6.074219 c -0.0547,-0.128906 -0.16016,-0.273437 -0.3086,-0.433593 -0.15234,-0.160157 -0.35156,-0.28125 -0.58984,-0.363282 v -0.320312 c 0,-0.117188 0.0195,-0.21875 0.0547,-0.304688 h 3.05078 c 0,0.140625 -0.004,0.273438 -0.0117,0.402344 -0.0117,0.128906 -0.0234,0.234375 -0.043,0.316406 h -1.0625 l 2.01563,5.34375 1.65625,-4.335937 c 0.0469,-0.117188 0.0664,-0.234375 0.0664,-0.34375 0,-0.148438 -0.0352,-0.28125 -0.10937,-0.402344 -0.0742,-0.117187 -0.1875,-0.207031 -0.34375,-0.261719 l -0.28907,-0.109375 v -0.441406 c 0,-0.08203 0.004,-0.136719 0.0117,-0.167969 h 2.58203 c 0,0.121094 -0.004,0.238282 -0.008,0.355469"
         id="path579" />
    </g>
    <path
       fill-rule="nonzero"
       fill="#1b458f"
       fill-opacity="1"
       d="m 83.373059,128.20489 c -0.208675,-0.38509 -0.579431,-0.57582 -1.112086,-0.57582 -0.237403,0 -0.46428,0.0467 -0.673007,0.1439 -0.215987,0.0971 -0.406693,0.24106 -0.575852,0.43187 -0.169238,0.19065 -0.309512,0.42469 -0.417479,0.70181 -0.11152,0.27353 -0.179946,0.59385 -0.205279,0.95735 h 3.29311 c 0,-0.71981 -0.100811,-1.27407 -0.309538,-1.65916 m -2.994359,2.38615 c 0.02612,0.56864 0.104468,1.01853 0.24106,1.36043 0.136852,0.33832 0.316693,0.59384 0.539837,0.763 0.223038,0.16924 0.485879,0.27713 0.780974,0.32751 0.298726,0.0541 0.61905,0.0791 0.968155,0.0791 0.244716,0 0.532655,-0.0209 0.856557,-0.0574 0.327506,-0.0397 0.611842,-0.0935 0.860161,-0.15827 l 0.201623,0.68382 c -0.107863,0.0791 -0.248372,0.14756 -0.417479,0.21233 -0.169238,0.0611 -0.356313,0.11518 -0.554254,0.15827 -0.197966,0.0431 -0.410297,0.0755 -0.629836,0.10081 -0.219643,0.0261 -0.431869,0.0397 -0.637018,0.0397 -0.539837,0 -1.018508,-0.0468 -1.436013,-0.14025 -0.413875,-0.0935 -0.76298,-0.26634 -1.047316,-0.52187 -0.284308,-0.25542 -0.500243,-0.60463 -0.647804,-1.0545 -0.151217,-0.44989 -0.223039,-1.02932 -0.223039,-1.74192 0,-0.52547 0.07208,-1.01853 0.223039,-1.4756 0.147561,-0.45708 0.359891,-0.85656 0.633414,-1.19488 0.277127,-0.33829 0.608237,-0.60463 0.993332,-0.80257 0.385094,-0.19431 0.809781,-0.29152 1.27764,-0.29152 0.475093,0 0.878182,0.0791 1.209292,0.23401 0.327507,0.15827 0.597425,0.38149 0.806178,0.67661 0.208674,0.29152 0.359891,0.64422 0.457072,1.05452 0.09716,0.41027 0.147561,0.87455 0.147561,1.39282 v 0.35628 z m 0,0"
       id="path580"
       style="stroke-width:0.921348" />
    <path
       fill-rule="nonzero"
       fill="#1b458f"
       fill-opacity="1"
       d="m 90.779847,127.97096 c -0.172633,-0.036 -0.367099,-0.0721 -0.586638,-0.11517 -0.219644,-0.0431 -0.507478,-0.0611 -0.863766,-0.0611 -0.413901,0 -0.755798,0.0755 -1.022112,0.23401 -0.269945,0.15487 -0.475093,0.3707 -0.61905,0.64062 -0.143904,0.27353 -0.244715,0.59385 -0.298725,0.96813 -0.05406,0.37071 -0.08279,0.77019 -0.08279,1.19488 0,0.4139 0.04675,0.76298 0.133196,1.0401 0.0901,0.28074 0.215987,0.50027 0.374308,0.66223 0.161925,0.16192 0.363496,0.27712 0.601029,0.3455 0.234008,0.0648 0.50027,0.10081 0.788183,0.10081 0.17629,0 0.341897,-0.0209 0.493062,-0.0577 0.154873,-0.0397 0.291517,-0.0864 0.413901,-0.14025 0.122227,-0.0541 0.237403,-0.11152 0.338293,-0.17263 0.100811,-0.0577 0.19431,-0.10786 0.280731,-0.15122 l 0.0504,-1.94704 z m 2.191786,5.71525 c -0.140248,0.0648 -0.295122,0.12249 -0.471463,0.17629 -0.172633,0.0577 -0.349105,0.10447 -0.532655,0.14025 -0.183602,0.0397 -0.363496,0.0577 -0.539863,0.0577 -0.154613,0 -0.273523,-0.0324 -0.363496,-0.10081 -0.0901,-0.0684 -0.154873,-0.15487 -0.197966,-0.25542 -0.0397,-0.10081 -0.06843,-0.21233 -0.08279,-0.33471 -0.01045,-0.12223 -0.01828,-0.24106 -0.01828,-0.34911 -0.0935,0.0898 -0.201622,0.19797 -0.323928,0.31672 -0.122488,0.11883 -0.26271,0.23401 -0.421083,0.3419 -0.154613,0.11152 -0.327507,0.20162 -0.514635,0.27352 -0.183602,0.0721 -0.388698,0.10786 -0.608237,0.10786 -0.323928,0 -0.651435,-0.0431 -0.986149,-0.12588 -0.334689,-0.0864 -0.637018,-0.24837 -0.903333,-0.48585 -0.26634,-0.23401 -0.485879,-0.56507 -0.655039,-0.98973 -0.169237,-0.42469 -0.252028,-0.97894 -0.252028,-1.66637 0,-0.58303 0.08645,-1.11208 0.25908,-1.58354 0.172633,-0.46789 0.410297,-0.86737 0.705418,-1.19488 0.295096,-0.32393 0.644201,-0.57946 1.043711,-0.7558 0.395881,-0.17629 0.816964,-0.26631 1.256042,-0.26631 0.323929,0 0.590243,0.0104 0.795391,0.0394 0.208675,0.0209 0.413876,0.0577 0.619024,0.10082 v -1.97228 h -1.299239 v -0.59742 c 0.118832,-0.0261 0.25908,-0.0541 0.413875,-0.0898 0.158269,-0.0324 0.323928,-0.0648 0.496666,-0.0935 0.172633,-0.0287 0.345527,-0.0541 0.521868,-0.0755 0.172633,-0.0209 0.327507,-0.0324 0.464281,-0.0324 0.176289,0 0.305908,0.0324 0.385094,0.10082 0.08279,0.0684 0.122227,0.18725 0.122227,0.35631 v 5.78359 l 0.05041,2.50854 h 1.284823 l 0.0901,0.49306 c -0.08645,0.0504 -0.197966,0.10786 -0.338293,0.17263"
       id="path581"
       style="stroke-width:0.921348" />
    <path
       fill-rule="nonzero"
       fill="#1b458f"
       fill-opacity="1"
       d="m 104.0782,127.69023 c 0,0.24837 -0.0541,0.4535 -0.15827,0.62266 -0.10786,0.16923 -0.25203,0.31669 -0.43908,0.43547 -0.0755,-0.0972 -0.17263,-0.19797 -0.28791,-0.31312 -0.11152,-0.11517 -0.24106,-0.22304 -0.38149,-0.3239 -0.13685,-0.10081 -0.28794,-0.18726 -0.44989,-0.25542 -0.16193,-0.0684 -0.32751,-0.10081 -0.49667,-0.10081 -0.33829,0 -0.63341,0.0504 -0.88176,0.15121 -0.25203,0.10447 -0.45704,0.26271 -0.61902,0.47867 -0.15827,0.21599 -0.28071,0.49667 -0.35989,0.83857 -0.08279,0.34189 -0.122491,0.7594 -0.122491,1.25246 0,0.38867 0.03238,0.74859 0.09715,1.0797 0.06112,0.33111 0.179951,0.61542 0.356321,0.85295 0.17263,0.23741 0.41027,0.42109 0.7162,0.55426 0.30591,0.12954 0.69821,0.19431 1.18407,0.19431 0.13319,0 0.28073,-0.008 0.43907,-0.0261 0.15488,-0.0157 0.30952,-0.036 0.45708,-0.0541 0.14756,-0.0261 0.28433,-0.0504 0.40669,-0.0791 0.12249,-0.0287 0.22304,-0.0577 0.29872,-0.0828 l 0.21599,0.66222 c -0.0611,0.0324 -0.15122,0.0791 -0.27352,0.14025 -0.12249,0.0575 -0.27352,0.11518 -0.44989,0.17263 -0.17995,0.0541 -0.38507,0.10082 -0.61902,0.14391 -0.23401,0.0431 -0.48946,0.0648 -0.77019,0.0648 -0.61903,0 -1.13369,-0.0684 -1.55117,-0.20502 -0.413902,-0.13685 -0.745013,-0.3491 -0.989729,-0.64062 -0.248372,-0.29152 -0.421083,-0.67301 -0.521868,-1.13729 -0.100812,-0.46786 -0.151217,-1.02572 -0.151217,-1.68073 0,-0.45707 0.07548,-0.89975 0.226695,-1.32804 0.154873,-0.42827 0.370703,-0.80976 0.655012,-1.14447 0.284335,-0.33472 0.629837,-0.60103 1.036537,-0.80258 0.40669,-0.19796 0.86376,-0.29512 1.37482,-0.29512 0.1439,0 0.33111,0.003 0.56504,0.0183 0.23401,0.0157 0.46068,0.0468 0.68021,0.10081 0.21965,0.0541 0.4103,0.13686 0.57225,0.24838 0.15827,0.11152 0.24106,0.26271 0.24106,0.45707"
       id="path582"
       style="stroke-width:0.921348" />
    <path
       fill-rule="nonzero"
       fill="#1b458f"
       fill-opacity="1"
       d="m 109.06282,130.76741 c -0.0935,0.008 -0.18725,0.0183 -0.27352,0.0261 -0.0901,0.0104 -0.17994,0.0209 -0.27352,0.0397 -0.16193,0.0261 -0.33111,0.0504 -0.51106,0.0828 -0.17629,0.0287 -0.3491,0.0648 -0.51826,0.10787 -0.87458,0.20162 -1.31005,0.61902 -1.31005,1.24525 0,0.19431 0.0684,0.3707 0.20162,0.52905 0.13685,0.15487 0.38509,0.23401 0.75219,0.23401 0.19431,0 0.40309,-0.0324 0.62984,-0.10081 0.22304,-0.0684 0.4319,-0.14391 0.62984,-0.23035 0.11517,-0.0431 0.23035,-0.0899 0.34189,-0.14756 0.10787,-0.0541 0.21965,-0.11152 0.33111,-0.16924 z m 2.36455,2.93679 c -0.1439,0.0611 -0.3023,0.11884 -0.47146,0.17264 -0.16924,0.0541 -0.34192,0.10081 -0.51466,0.13319 -0.17263,0.036 -0.32032,0.0504 -0.43908,0.0504 -0.21233,0 -0.38149,-0.0324 -0.50748,-0.10081 -0.12954,-0.0684 -0.21964,-0.15488 -0.2807,-0.25543 -0.0577,-0.10081 -0.0972,-0.21598 -0.11518,-0.34192 -0.0157,-0.12954 -0.0261,-0.25542 -0.0261,-0.38149 -0.0577,0.0575 -0.15827,0.15122 -0.29873,0.27352 -0.14025,0.12249 -0.31311,0.24472 -0.52187,0.3671 -0.20502,0.12249 -0.44268,0.23401 -0.70899,0.32393 -0.26632,0.0935 -0.55786,0.14025 -0.87095,0.14025 -0.23035,0 -0.44629,-0.0324 -0.65144,-0.10081 -0.20162,-0.0684 -0.38149,-0.16924 -0.53265,-0.30591 -0.15122,-0.13685 -0.27352,-0.30591 -0.3635,-0.50745 -0.0864,-0.20528 -0.13319,-0.43548 -0.13319,-0.69821 0,-0.34192 0.0721,-0.63344 0.21598,-0.88537 0.14391,-0.24837 0.33109,-0.46067 0.56144,-0.63701 0.22669,-0.17264 0.48585,-0.31312 0.77379,-0.41748 0.28792,-0.10787 0.57943,-0.18726 0.86374,-0.23741 0.20528,-0.0324 0.40669,-0.0611 0.59745,-0.0864 0.19797,-0.0261 0.37431,-0.0468 0.53626,-0.0648 0.0935,-0.0183 0.17995,-0.0287 0.26632,-0.0397 l 0.25542,-0.0261 v -1.00414 c 0,-0.25543 -0.036,-0.46428 -0.10447,-0.62984 -0.0648,-0.16558 -0.16924,-0.2987 -0.30951,-0.39948 -0.14025,-0.10081 -0.32032,-0.17264 -0.53986,-0.20868 -0.22304,-0.0397 -0.48586,-0.0575 -0.80258,-0.0575 -0.24471,0 -0.52544,0.0287 -0.84577,0.0828 -0.31672,0.0541 -0.59021,0.11517 -0.82057,0.1836 l -0.20162,-0.7378 c 0.35629,-0.14391 0.71621,-0.24838 1.08691,-0.31672 0.3671,-0.0684 0.74499,-0.10082 1.12648,-0.10082 0.24471,0 0.51466,0.008 0.80617,0.0287 0.29155,0.0209 0.56147,0.0935 0.81339,0.21233 0.24837,0.11884 0.46068,0.30231 0.62984,0.55065 0.16923,0.25203 0.25542,0.60103 0.25542,1.0509 v 1.78151 l 0.0864,2.51571 h 1.38563 l 0.0901,0.50748 c -0.0504,0.0504 -0.14756,0.10787 -0.29151,0.16558"
       id="path583"
       style="stroke-width:0.921348" />
    <path
       fill-rule="nonzero"
       fill="#1b458f"
       fill-opacity="1"
       d="m 116.04132,133.47746 c 0,0.0755 -0.008,0.16923 -0.0183,0.28073 -0.0157,0.10786 -0.0287,0.1836 -0.0467,0.22669 h -3.55945 c -0.0261,-0.1439 -0.036,-0.28791 -0.036,-0.43187 v -0.12954 l 0.67301,-0.23766 c 0.15121,-0.0611 0.26273,-0.15827 0.33111,-0.29512 0.0684,-0.13686 0.10446,-0.27353 0.11517,-0.42109 l 0.0611,-1.95785 V 125.16 h -1.28485 v -0.60821 c 0.11883,-0.0261 0.25908,-0.0575 0.42108,-0.0901 0.16192,-0.0324 0.32751,-0.0648 0.49667,-0.0898 0.16923,-0.0261 0.34189,-0.0468 0.51466,-0.0684 0.17263,-0.0209 0.3275,-0.0324 0.46425,-0.0324 0.33111,0 0.49667,0.16558 0.49667,0.49666 v 5.74403 l 0.0611,2.37897 c 0,0.10447 0.0104,0.16192 0.0261,0.1836 0.0183,0.0209 0.0611,0.0397 0.12954,0.0575 l 1.15528,0.21598 z m 0,0"
       id="path584"
       style="stroke-width:0.921348" />
    <path
       fill-rule="nonzero"
       fill="#1b458f"
       fill-opacity="1"
       d="m 132.70474,128.20489 c -0.20868,-0.38509 -0.57944,-0.57582 -1.11209,-0.57582 -0.23766,0 -0.46428,0.0467 -0.67301,0.1439 -0.21233,0.0971 -0.40309,0.24106 -0.57225,0.43187 -0.16923,0.19065 -0.30953,0.42469 -0.42108,0.70181 -0.11152,0.27353 -0.17629,0.59385 -0.20162,0.95735 h 3.29308 c 0,-0.71981 -0.10447,-1.27407 -0.31311,-1.65916 m -2.99436,2.38615 c 0.0261,0.56864 0.10447,1.01853 0.24106,1.36043 0.13685,0.33832 0.31672,0.59384 0.54346,0.763 0.22304,0.16924 0.48228,0.27713 0.78098,0.32751 0.29512,0.0541 0.61542,0.0791 0.96455,0.0791 0.24472,0 0.53263,-0.0209 0.86016,-0.0574 0.3239,-0.0397 0.61182,-0.0935 0.85656,-0.15827 l 0.20528,0.68382 c -0.11152,0.0791 -0.25203,0.14756 -0.42109,0.21233 -0.16923,0.0611 -0.35271,0.11518 -0.55425,0.15827 -0.19797,0.0431 -0.40669,0.0755 -0.62984,0.10081 -0.21964,0.0261 -0.43187,0.0397 -0.63341,0.0397 -0.54344,0 -1.02214,-0.0468 -1.43601,-0.14025 -0.41748,-0.0935 -0.76659,-0.26634 -1.05092,-0.52187 -0.28431,-0.25542 -0.50025,-0.60463 -0.64781,-1.0545 -0.14756,-0.44989 -0.22304,-1.02932 -0.22304,-1.74192 0,-0.52547 0.0755,-1.01853 0.22304,-1.4756 0.14756,-0.45708 0.35989,-0.85656 0.63702,-1.19488 0.27352,-0.33829 0.60463,-0.60463 0.98973,-0.80257 0.38509,-0.19431 0.81338,-0.29152 1.27764,-0.29152 0.47507,0 0.87815,0.0791 1.20927,0.23401 0.33111,0.15827 0.59745,0.38149 0.8062,0.67661 0.20867,0.29152 0.35989,0.64422 0.45705,1.05452 0.0971,0.41027 0.14756,0.87455 0.14756,1.39282 v 0.35628 z m 0,0"
       id="path585"
       style="stroke-width:0.921348" />
    <path
       fill-rule="nonzero"
       fill="#1b458f"
       fill-opacity="1"
       d="m 143.53057,133.46307 c 0,0.0755 -0.003,0.16923 -0.008,0.2807 -0.003,0.10786 -0.0183,0.19065 -0.0431,0.24106 h -3.05197 c -0.0183,-0.0684 -0.0261,-0.14756 -0.0324,-0.23401 -0.003,-0.0898 -0.008,-0.16924 -0.008,-0.2374 v -0.14025 l 0.35989,-0.24106 c 0.1332,-0.0935 0.23035,-0.20162 0.29152,-0.33111 0.0574,-0.12588 0.0901,-0.24837 0.0901,-0.3671 l 0.036,-1.92186 v -1.06531 c 0,-0.29873 -0.0157,-0.54705 -0.0468,-0.74502 -0.0287,-0.19796 -0.0901,-0.35989 -0.18726,-0.48225 -0.10081,-0.12248 -0.24471,-0.21233 -0.43547,-0.26634 -0.19065,-0.0577 -0.44629,-0.0828 -0.76658,-0.0828 -0.20502,0 -0.41388,0.0209 -0.62263,0.0611 -0.21233,0.0431 -0.41388,0.0935 -0.60463,0.15487 -0.19066,0.0575 -0.35992,0.11883 -0.51106,0.1836 -0.14756,0.0648 -0.25908,0.12223 -0.33471,0.17264 v 2.06942 l 0.036,2.31778 c 0,0.10081 0.008,0.17263 0.0209,0.21233 0.0104,0.0431 0.0611,0.0721 0.1439,0.0898 l 1.1193,0.20528 v 0.12588 c 0,0.0755 0,0.16924 -0.008,0.28073 -0.003,0.10787 -0.0183,0.19066 -0.0431,0.24106 h -3.39387 c -0.0261,-0.1439 -0.0397,-0.28794 -0.0397,-0.43189 v -0.12954 l 0.58664,-0.27713 c 0.14391,-0.0684 0.25203,-0.17995 0.32393,-0.33111 0.0718,-0.15461 0.10786,-0.28791 0.10786,-0.40669 l 0.036,-1.89667 v -2.63089 h -1.28124 v -0.63701 c 0.10786,-0.0209 0.24471,-0.0504 0.40669,-0.0791 0.15827,-0.0324 0.32751,-0.0611 0.50027,-0.0898 0.17263,-0.0287 0.34911,-0.0541 0.52184,-0.0721 0.17264,-0.0157 0.32751,-0.0261 0.46429,-0.0261 0.17628,0 0.3023,0.036 0.36709,0.10447 0.0718,0.0684 0.10447,0.1836 0.10447,0.35271 v 0.38509 c 0.12589,-0.0935 0.27353,-0.19431 0.43908,-0.3023 0.16558,-0.10447 0.34911,-0.20528 0.55786,-0.29512 0.20867,-0.0935 0.43908,-0.1729 0.6946,-0.23036 0.25203,-0.0611 0.53626,-0.0901 0.84938,-0.0901 0.48585,0 0.86374,0.0577 1.13729,0.17289 0.27712,0.11518 0.48585,0.27353 0.62981,0.48225 0.14756,0.20868 0.23766,0.4535 0.27355,0.73781 0.0397,0.28433 0.0574,0.60103 0.0574,0.94655 v 1.27044 l 0.0504,2.44373 c 0,0.0755 0.0104,0.12249 0.0261,0.14025 0.0183,0.0157 0.0648,0.0324 0.14024,0.0504 l 1.04374,0.19066 z m 0,0"
       id="path586"
       style="stroke-width:0.921348" />
    <path
       fill-rule="nonzero"
       fill="#1b458f"
       fill-opacity="1"
       d="m 148.82473,133.97052 c -0.0864,0.0261 -0.18725,0.0504 -0.30233,0.0721 -0.11517,0.0209 -0.234,0.0397 -0.35628,0.0575 -0.12249,0.0157 -0.24106,0.0261 -0.34913,0.0261 -0.44266,0 -0.82418,-0.0183 -1.14447,-0.0575 -0.32391,-0.0397 -0.58664,-0.12589 -0.7954,-0.26274 -0.20867,-0.13319 -0.35989,-0.33829 -0.45707,-0.60824 -0.0971,-0.27352 -0.14756,-0.64062 -0.14756,-1.10487 l 0.0397,-4.21086 h -1.01851 v -0.45707 l 1.98303,-1.8067 h 0.17995 v 1.42521 h 2.32495 v 0.83856 h -2.32495 v 2.64528 l 0.036,1.55116 c 0.0104,0.26274 0.0324,0.46789 0.0718,0.61545 0.036,0.15121 0.10081,0.26273 0.19431,0.33829 0.0935,0.0755 0.2267,0.12588 0.39588,0.14756 0.16924,0.0183 0.3851,0.0287 0.64783,0.0287 0.27353,0 0.48946,-0.0105 0.65502,-0.036 0.16558,-0.0261 0.30951,-0.0504 0.42468,-0.0755 l 0.15488,0.81338 c -0.0504,0.0157 -0.12223,0.0397 -0.21233,0.0611"
       id="path587"
       style="stroke-width:0.921348" />
    <path
       fill-rule="nonzero"
       fill="#1b458f"
       fill-opacity="1"
       d="m 153.89933,128.20489 c -0.20867,-0.38509 -0.57943,-0.57582 -1.11208,-0.57582 -0.23741,0 -0.46428,0.0467 -0.67304,0.1439 -0.21233,0.0971 -0.40308,0.24106 -0.57224,0.43187 -0.16924,0.19065 -0.30952,0.42469 -0.42109,0.70181 -0.11152,0.27353 -0.17629,0.59385 -0.20162,0.95735 h 3.29311 c 0,-0.71981 -0.10447,-1.27407 -0.31312,-1.65916 m -2.99438,2.38615 c 0.0261,0.56864 0.10447,1.01853 0.24106,1.36043 0.13685,0.33832 0.31672,0.59384 0.54344,0.763 0.22304,0.16924 0.48227,0.27713 0.781,0.32751 0.29512,0.0541 0.61542,0.0791 0.96452,0.0791 0.24472,0 0.53266,-0.0209 0.86017,-0.0574 0.32392,-0.0397 0.61184,-0.0935 0.85658,-0.15827 l 0.20502,0.68382 c -0.11152,0.0791 -0.25203,0.14756 -0.42109,0.21233 -0.16923,0.0611 -0.35268,0.11518 -0.55422,0.15827 -0.19797,0.0431 -0.4067,0.0755 -0.62984,0.10081 -0.21964,0.0261 -0.43187,0.0397 -0.63341,0.0397 -0.54347,0 -1.02214,-0.0468 -1.43602,-0.14025 -0.41748,-0.0935 -0.76658,-0.26634 -1.05092,-0.52187 -0.28433,-0.25542 -0.50027,-0.60463 -0.64783,-1.0545 -0.14756,-0.44989 -0.22304,-1.02932 -0.22304,-1.74192 0,-0.52547 0.0755,-1.01853 0.22304,-1.4756 0.14756,-0.45708 0.35992,-0.85656 0.63705,-1.19488 0.27352,-0.33829 0.60463,-0.60463 0.98972,-0.80257 0.3851,-0.19431 0.81336,-0.29152 1.27765,-0.29152 0.47506,0 0.87815,0.0791 1.20926,0.23401 0.33111,0.15827 0.59743,0.38149 0.80618,0.67661 0.20867,0.29152 0.35992,0.64422 0.45707,1.05452 0.0972,0.41027 0.14756,0.87455 0.14756,1.39282 v 0.35628 z m 0,0"
       id="path588"
       style="stroke-width:0.921348" />
    <path
       fill-rule="nonzero"
       fill="#1b458f"
       fill-opacity="1"
       d="m 161.48246,128.1869 c -0.0828,-0.036 -0.19065,-0.0648 -0.31672,-0.0972 -0.12588,-0.0287 -0.29151,-0.0431 -0.49666,-0.0431 -0.4319,0 -0.80618,0.0504 -1.1193,0.14756 -0.31311,0.0971 -0.53986,0.23035 -0.68382,0.39948 v 1.90748 l 0.0504,2.29978 c 0,0.10447 0.0104,0.17995 0.0324,0.23035 0.0209,0.0504 0.0721,0.0865 0.15827,0.10081 l 1.32079,0.20528 v 0.12589 c 0,0.0755 0,0.16923 -0.008,0.2807 -0.003,0.10786 -0.0183,0.19065 -0.0431,0.24106 h -3.63498 c -0.0183,-0.0755 -0.0324,-0.15487 -0.0397,-0.23401 -0.008,-0.0828 -0.0157,-0.16192 -0.0157,-0.2374 v -0.0865 l 0.60103,-0.30593 c 0.10812,-0.0611 0.20867,-0.17264 0.29873,-0.33829 0.0864,-0.16559 0.13685,-0.37071 0.1439,-0.61545 l 0.0261,-1.66634 v -2.63086 h -1.28125 v -0.65144 c 0.11518,-0.0261 0.25543,-0.0504 0.4103,-0.0791 0.15827,-0.0324 0.3239,-0.0611 0.49667,-0.0901 0.17263,-0.0287 0.3491,-0.0541 0.52184,-0.0721 0.17263,-0.0157 0.32753,-0.0261 0.46428,-0.0261 0.17629,0 0.30233,0.036 0.37431,0.10446 0.0718,0.0684 0.10786,0.18726 0.10786,0.35271 v 0.56144 c 0.0791,-0.14391 0.1836,-0.28073 0.31669,-0.40669 0.13686,-0.12589 0.29512,-0.24106 0.47149,-0.3383 0.17995,-0.0971 0.37068,-0.17263 0.57943,-0.22669 0.20868,-0.0575 0.41748,-0.0828 0.62984,-0.0828 0.20162,0 0.37788,0.0104 0.52545,0.036 0.14756,0.0261 0.25202,0.0467 0.31311,0.0648 z m 0,0"
       id="path589"
       style="stroke-width:0.921348" />
  </g>
</svg>
