<?xml version="1.0" encoding="UTF-8"?>
<svg xmlns="http://www.w3.org/2000/svg" height="137px" width="660px" version="1.1">
 <path d="m23.001 23.102v54.124l55.58-25.275-55.58-28.849zm66.889 36.983v53.905l-55.566-25.339 55.566-28.566zm81.05 28.689l-5.73-36.854h-8.24l-6.34 19.055c-0.92 2.73-1.53 4.805-2.07 7.644h-0.11c-0.49-2.621-1.15-5.132-2.02-7.753l-6.17-18.946h-8.3l-5.68 36.854h7.21l2.07-16.98c0.44-3.221 0.82-6.115 1.04-9.391h0.11c0.44 2.948 1.37 6.279 2.35 9.282l5.62 17.089h7.05l5.84-18.509c0.93-2.894 1.53-5.514 2.02-7.862h0.11c0.27 2.566 0.6 5.296 1.14 8.79l2.62 17.581h7.48zm26.56 0c-0.11-2.238-0.16-4.804-0.16-6.988v-11.302c0-5.897-2.46-9.446-11.19-9.446-3.5 0-6.99 0.71-9.72 1.693l0.6 5.842c2.29-1.311 5.57-2.13 8.02-2.13 3.93 0 5.3 1.474 5.3 4.314v1.474c-9.23 0-15.67 3.44-15.67 9.937 0 4.368 2.84 7.152 7.75 7.152 4.04 0 7.37-2.129 8.68-5.187l0.06 0.055c-0.22 1.42-0.27 3.003-0.27 4.586h6.6zm-7.15-11.356c0 3.276-2.35 6.552-5.79 6.552-2.02 0-3.22-1.147-3.22-2.894 0-2.184 1.64-4.313 9.01-4.313v0.655zm35.73 11.356c-0.11-2.238-0.16-4.804-0.16-6.988v-11.302c0-5.897-2.46-9.446-11.2-9.446-3.49 0-6.99 0.71-9.72 1.693l0.61 5.842c2.29-1.311 5.56-2.13 8.02-2.13 3.93 0 5.3 1.474 5.3 4.314v1.474c-9.23 0-15.67 3.44-15.67 9.937 0 4.368 2.84 7.152 7.75 7.152 4.04 0 7.37-2.129 8.68-5.187l0.06 0.055c-0.22 1.42-0.28 3.003-0.28 4.586h6.61zm-7.15-11.356c0 3.276-2.35 6.552-5.79 6.552-2.02 0-3.22-1.147-3.22-2.894 0-2.184 1.64-4.313 9.01-4.313v0.655zm31.41 2.948c0-8.79-11.13-6.825-11.13-11.247 0-1.693 1.31-2.785 4.04-2.785 1.69 0 3.49 0.273 5.02 0.71l0.22-5.515c-1.64-0.273-3.39-0.491-4.97-0.491-7.64 0-11.52 3.931-11.52 8.681 0 9.227 10.97 6.498 10.97 11.302 0 1.802-1.74 2.894-4.42 2.894-2.07 0-4.15-0.382-5.84-0.819l-0.16 5.733c1.74 0.273 3.71 0.491 5.67 0.491 7.43 0 12.12-3.603 12.12-8.954zm20.72 8.245v-5.624c-0.98 0.273-2.24 0.437-3.38 0.437-2.41 0-3.23-0.983-3.23-4.478v-11.902h6.61v-5.405h-6.61v-10.21l-6.98 1.856v8.354h-4.65v5.405h4.7v13.759c0 6.333 1.86 8.517 7.86 8.517 1.91 0 3.93-0.273 5.68-0.709zm20.5-27.573c-4.7-0.382-7.32 2.621-8.63 6.06h-0.11c0.33-1.91 0.49-4.094 0.49-5.459h-6.6v27.135h6.99v-11.083c0-7.535 2.51-10.811 7.53-9.774l0.33-6.879zm12.36-7.152c0-2.348-1.97-4.205-4.37-4.205s-4.31 1.911-4.31 4.205c0 2.347 1.91 4.258 4.31 4.258s4.37-1.911 4.37-4.258zm-0.87 34.888v-27.135h-6.99v27.135h6.99zm25.24-0.764l-0.54-5.951c-1.48 0.764-3.5 1.146-5.35 1.146-4.64 0-6.45-3.167-6.45-7.807 0-5.133 2.24-8.409 6.67-8.409 1.74 0 3.44 0.437 4.91 0.983l0.71-6.06c-1.75-0.492-3.71-0.765-5.57-0.765-9.61 0-14.03 6.497-14.03 14.96 0 9.228 4.69 13.159 12.23 13.159 2.89 0 5.57-0.546 7.42-1.256zm29.02 0.764v-19.055c0-4.75-1.97-8.681-8.08-8.681-4.21 0-7.32 2.02-8.9 5.078l-0.11-0.055c0.38-1.583 0.49-3.876 0.49-5.514v-11.63h-6.99v39.857h6.99v-13.103c0-4.751 2.78-8.791 6.33-8.791 2.57 0 3.33 1.693 3.33 4.532v17.362h6.94zm22.35-0.163v-5.624c-0.98 0.273-2.24 0.437-3.38 0.437-2.41 0-3.22-0.983-3.22-4.478v-11.902h6.6v-5.405h-6.6v-10.21l-6.99 1.856v8.354h-4.64v5.405h4.69v13.759c0 6.333 1.86 8.517 7.86 8.517 1.91 0 3.93-0.273 5.68-0.709zm47.93-14.142v-22.549h-7.04v22.986c0 6.279-2.3 8.572-7.76 8.572-6.11 0-7.64-3.276-7.64-7.917v-23.641h-7.1v24.078c0 7.043 2.62 13.377 14.25 13.377 9.72 0 15.29-4.805 15.29-14.906zm31.15 14.305v-19.055c0-4.75-1.97-8.681-8.09-8.681-4.42 0-7.58 2.239-9.22 5.46l-0.06-0.055c0.28-1.419 0.38-3.549 0.38-4.804h-6.6v27.135h6.99v-13.103c0-4.751 2.78-8.791 6.33-8.791 2.57 0 3.33 1.693 3.33 4.532v17.362h6.94zm15.41-34.888c0-2.348-1.96-4.205-4.36-4.205-2.41 0-4.32 1.911-4.32 4.205 0 2.347 1.91 4.258 4.32 4.258 2.4 0 4.36-1.911 4.36-4.258zm-0.87 34.888v-27.135h-6.99v27.135h6.99zm31.2-27.135h-7.43l-4.36 12.448c-0.66 1.857-1.2 3.931-1.64 5.788h-0.11c-0.49-1.966-1.15-4.15-1.8-6.006l-4.32-12.23h-7.64l10.05 27.135h7.09l10.16-27.135zm26.12 11.52c0-6.716-3.49-12.121-11.41-12.121-8.14 0-12.72 6.115-12.72 14.414 0 9.555 4.8 13.868 13.43 13.868 3.38 0 6.82-0.6 9.72-1.747l-0.66-5.405c-2.34 1.092-5.24 1.692-7.91 1.692-5.03 0-7.54-2.457-7.48-7.534h16.81c0.17-1.147 0.22-2.239 0.22-3.167zm-6.93-1.583h-9.99c0.38-3.276 2.4-5.406 5.29-5.406 2.95 0 4.81 2.02 4.7 5.406zm27.59-10.538c-4.69-0.382-7.31 2.621-8.62 6.06h-0.11c0.32-1.91 0.49-4.094 0.49-5.459h-6.61v27.135h6.99v-11.083c0-7.535 2.51-10.811 7.53-9.774l0.33-6.879zm21.32 19.328c0-8.79-11.14-6.825-11.14-11.247 0-1.693 1.31-2.785 4.04-2.785 1.69 0 3.49 0.273 5.02 0.71l0.22-5.515c-1.64-0.273-3.38-0.491-4.97-0.491-7.64 0-11.52 3.931-11.52 8.681 0 9.227 10.98 6.498 10.98 11.302 0 1.802-1.75 2.894-4.43 2.894-2.07 0-4.14-0.382-5.84-0.819l-0.16 5.733c1.75 0.273 3.71 0.491 5.68 0.491 7.42 0 12.12-3.603 12.12-8.954zm13.78-26.48c0-2.348-1.97-4.205-4.37-4.205s-4.31 1.911-4.31 4.205c0 2.347 1.91 4.258 4.31 4.258s4.37-1.911 4.37-4.258zm-0.87 34.888v-27.135h-6.99v27.135h6.99zm22.3-0.163v-5.624c-0.99 0.273-2.24 0.437-3.39 0.437-2.4 0-3.22-0.983-3.22-4.478v-11.902h6.61v-5.405h-6.61v-10.21l-6.99 1.856v8.354h-4.64v5.405h4.69v13.759c0 6.333 1.86 8.517 7.87 8.517 1.91 0 3.93-0.273 5.68-0.709zm29.12-26.972h-7.48l-3.22 9.227c-0.88 2.566-2.02 6.17-2.62 8.626h-0.06c-0.6-2.456-1.31-5.132-2.13-7.48l-3.65-10.373h-7.76l9.99 27.135-0.92 2.621c-1.42 4.04-2.95 5.078-5.25 5.078-1.31 0-2.45-0.219-3.71-0.601l-0.44 6.008c1.15 0.27 2.63 0.43 3.83 0.43 6.22 0 9.06-2.561 12.28-11.024l11.14-29.647z" fill="#001C3D"/>
 <path d="m47.136 52.913v-11.306h-5.111v11.583c0 2.334-0.667 3.223-2.75 3.223-2.139 0-2.75-1.084-2.75-3.084v-11.722h-5.167v11.972c0 3.973 1.583 7.167 7.611 7.167 5.028 0 8.167-2.389 8.167-7.833zm38.983 43.524l-3.801-18.75h-5.674l-3.447 13.459-3.139-13.459h-5.398l-4.63 18.75h4.63l2.749-13.437 3.247 13.437h5.157l3.385-13.437 2.405 13.437h4.516z" fill="#fff"/>
</svg>
