<?xml version="1.0" encoding="UTF-8"?>
<svg id="Layer_2" data-name="Layer 2" xmlns="http://www.w3.org/2000/svg" viewBox="0 0 301.33 93.46">
  <defs>
    <style>
      .cls-1 {
      fill: #c35650;
      }

      .cls-1, .cls-2, .cls-3, .cls-4, .cls-5 {
      stroke-width: 0px;
      }

      .cls-2 {
      fill: #093550;
      }

      .cls-3 {
      fill: #f3b54e;
      }

      .cls-4 {
      fill: #fff;
      }

      .cls-5 {
      fill: #04898e;
      }
    </style>
  </defs>
  <g id="Layer_1-2" data-name="Layer 1-2">
    <g>
      <g>
        <path class="cls-1" d="M45,46.73c0-.46.05-.91.13-1.35-10.64,2.85-40.35,10.8-42.82,11.48-1.26.35-2.14,1.14-2.29,2.53-.15,1.3.38,2.29,1.47,2.97.9.55,20.99,12.11,30.1,17.38,2.45,1.42,3.83,1.11,5.24-1.23v.03c3.27-5.64,10.37-17.89,14.49-25.04-3.54-.24-6.33-3.18-6.33-6.77h0Z"/>
        <path class="cls-2" d="M86.39,52.92s.02,0,.03-.02c-6.3-1.71-19.99-5.39-27.96-7.52.09.44.14.89.14,1.35,0,3.6-2.79,6.53-6.33,6.77,5.52,9.57,20.85,36.15,22.15,38.36.67,1.13,1.66,1.77,3.03,1.56,1.3-.19,2.12-.96,2.49-2.19.3-1.01,6.26-23.41,9-33.57.74-2.73.08-3.99-2.55-4.75h0Z"/>
        <path class="cls-5" d="M102.1,31.1c-.9-.55-20.99-12.11-30.1-17.38-2.45-1.42-3.83-1.11-5.24,1.23v-.03c-3.27,5.64-10.37,17.89-14.49,25.04,3.54.24,6.33,3.18,6.33,6.77,0,.46-.05.91-.13,1.35,10.64-2.85,40.35-10.8,42.82-11.48,1.26-.35,2.14-1.14,2.29-2.53.15-1.3-.38-2.29-1.47-2.97h-.01Z"/>
        <path class="cls-3" d="M45.13,48.09c-.09-.44-.14-.89-.14-1.35,0-3.6,2.79-6.53,6.33-6.77C45.81,30.39,30.47,3.81,29.18,1.6c-.67-1.13-1.66-1.77-3.03-1.56-1.3.19-2.12.96-2.49,2.19-.3,1.01-6.26,23.41-9,33.57-.74,2.73-.08,3.99,2.55,4.75,0,0-.02,0-.03.02,6.3,1.71,19.99,5.39,27.96,7.52h0Z"/>
      </g>
      <circle class="cls-4" cx="51.79" cy="46.73" r="6.8"/>
    </g>
    <g>
      <path class="cls-4" d="M126.08,61.2c-.29,0-.56-.08-.81-.26-.25-.17-.38-.43-.38-.77v-26.81c0-.34.13-.59.39-.75s.56-.24.91-.24c.32,0,.61.08.89.24s.41.41.41.75v25.43h11.24c.32,0,.54.12.67.37s.2.52.2.81c0,.32-.07.6-.2.85s-.35.37-.67.37h-12.65Z"/>
      <path class="cls-4" d="M145.28,61.2c-.29,0-.56-.08-.81-.26s-.37-.43-.37-.77v-26.77c0-.34.12-.6.37-.77.25-.17.52-.26.81-.26h14.03c.34,0,.59.12.75.37s.24.52.24.81c0,.32-.09.6-.26.85s-.41.37-.73.37h-12.61v10.84h6.19c.31,0,.56.12.73.35.17.24.26.51.26.83,0,.26-.08.51-.24.75s-.41.35-.75.35h-6.19v10.88h12.61c.32,0,.56.12.73.35s.26.53.26.87c0,.29-.08.56-.24.81s-.41.37-.75.37h-14.03v.03Z"/>
      <path class="cls-4" d="M164.39,61.2c-.21,0-.43-.04-.67-.14-.24-.09-.43-.22-.59-.39s-.24-.36-.24-.57c0-.1,0-.2.04-.28l8.24-26.73c.1-.34.3-.58.59-.73s.6-.22.95-.22c.37,0,.7.08,1,.24s.49.39.57.71l8.2,26.73c.03.08.04.16.04.24,0,.21-.08.4-.24.57s-.35.31-.59.41c-.24.11-.49.16-.75.16-.21,0-.41-.05-.59-.16-.18-.1-.32-.28-.39-.51l-1.81-6.07h-10.88l-1.81,6.07c-.08.24-.21.41-.39.51-.18.11-.41.16-.67.16h0ZM167.9,52.21h9.58l-4.77-15.89-4.81,15.89Z"/>
      <path class="cls-4" d="M202.36,61.28c-.29,0-.55-.15-.79-.45-.24-.3-.43-.61-.59-.93l-6.07-11.83h-5.01v12.1c0,.34-.14.6-.41.77s-.57.26-.89.26c-.34,0-.64-.08-.91-.26s-.39-.43-.39-.77v-26.81c0-.26.09-.49.28-.67s.42-.29.71-.32h6.98c1.55,0,2.97.24,4.26.71,1.29.47,2.32,1.28,3.09,2.41s1.16,2.68,1.16,4.65c0,1.63-.27,2.97-.81,4.02s-1.28,1.86-2.21,2.42c-.93.57-1.98.95-3.13,1.16l6.07,11.67c.08.08.12.16.14.26,0,.09.02.18.02.26,0,.21-.07.42-.22.63-.14.21-.33.38-.57.51-.24.13-.47.2-.71.2h0ZM189.9,45.83h5.36c1.76,0,3.19-.43,4.28-1.28s1.64-2.27,1.64-4.24-.55-3.42-1.64-4.26c-1.09-.84-2.52-1.26-4.28-1.26h-5.36s0,11.04,0,11.04Z"/>
      <path class="cls-4" d="M210.4,61.2c-.34,0-.64-.08-.91-.26s-.39-.43-.39-.77v-26.81c0-.37.13-.62.39-.77s.57-.22.91-.22c.32,0,.59.08.83.26.24.17.46.39.67.67.21.28.39.59.55.93l10.64,20.93v-21.8c0-.34.13-.59.39-.75s.56-.24.91-.24c.32,0,.61.08.89.24s.41.41.41.75v26.81c0,.34-.14.6-.41.77-.28.17-.57.26-.89.26-.37,0-.7-.15-1-.45s-.55-.65-.73-1.04l-10.96-21.33v21.8c0,.34-.14.6-.41.77s-.57.26-.89.26h0Z"/>
      <path class="cls-4" d="M234.37,61.2c-.53,0-1-.11-1.44-.33-.43-.22-.65-.57-.65-1.04v-26.06c0-.45.2-.79.59-1.03s.81-.35,1.26-.35h13.84c.47,0,.81.2,1.02.59s.32.8.32,1.22c0,.5-.11.94-.33,1.32s-.56.57-1,.57h-11.51v9.03h6.11c.45,0,.78.17,1.01.51.22.34.33.74.33,1.18,0,.37-.11.73-.32,1.08-.21.36-.55.53-1.03.53h-6.11v11.39c0,.47-.22.82-.65,1.04s-.91.33-1.44.33v.02Z"/>
      <path class="cls-4" d="M250.29,61.2c-.37,0-.76-.08-1.18-.24s-.76-.36-1.03-.61c-.26-.25-.39-.54-.39-.89,0-.08,0-.2.04-.35l7.84-25.54c.16-.47.49-.83,1-1.06.51-.24,1.06-.35,1.64-.35s1.16.12,1.67.35.85.59,1.01,1.06l7.8,25.54c.05.16.08.28.08.35,0,.32-.14.6-.41.87-.28.26-.62.47-1.02.63-.41.16-.81.24-1.2.24-.34,0-.64-.07-.89-.2s-.43-.35-.53-.67l-1.62-5.6h-9.78l-1.58,5.6c-.08.32-.26.54-.53.67-.28.13-.58.2-.93.2h0ZM254.27,51.38h7.88l-3.94-13.52-3.94,13.52Z"/>
      <path class="cls-4" d="M274.97,61.2c-.53,0-1-.11-1.44-.33-.43-.22-.65-.57-.65-1.04v-26.1c0-.47.22-.81.65-1.02s.91-.32,1.44-.32,1,.11,1.44.32.65.55.65,1.02v26.1c0,.47-.22.82-.65,1.04s-.91.33-1.44.33Z"/>
      <path class="cls-4" d="M298.78,61.32c-.34,0-.65-.12-.93-.35s-.51-.53-.69-.87l-5.79-11.27h-3.94v11c0,.45-.22.79-.65,1.03s-.91.35-1.44.35-1-.12-1.44-.35-.65-.58-.65-1.03v-26.1c0-.37.12-.68.37-.95.25-.26.6-.39,1.04-.39h7.49c1.66,0,3.17.24,4.53.73s2.46,1.31,3.27,2.48,1.22,2.78,1.22,4.83c0,1.58-.24,2.89-.73,3.94-.49,1.05-1.14,1.89-1.97,2.5s-1.77,1.07-2.82,1.36l5.52,10.37c.05.08.09.18.12.3s.04.22.04.3c0,.34-.13.68-.39,1-.26.33-.58.6-.97.81-.38.21-.78.32-1.2.32h.01ZM287.43,45.47h4.73c1.47,0,2.65-.36,3.53-1.06.88-.71,1.32-1.92,1.32-3.63s-.44-2.92-1.32-3.63c-.88-.71-2.06-1.06-3.53-1.06h-4.73v9.38Z"/>
    </g>
  </g>
</svg>